<?xml version="1.0" encoding="utf-8"?>
<!-- Generator: Adobe Illustrator 23.0.0, SVG Export Plug-In . SVG Version: 6.00 Build 0)  -->
<svg version="1.1" xmlns="http://www.w3.org/2000/svg" xmlns:xlink="http://www.w3.org/1999/xlink" x="0px" y="0px"
	 viewBox="0 0 128 128" style="enable-background:new 0 0 128 128;" xml:space="preserve">
<style type="text/css">
	.st0{display:none;}
	.st1{display:inline;fill:url(#SVGID_1_);}
	.st2{display:inline;fill:url(#SVGID_2_);}
	.st3{display:inline;fill-rule:evenodd;clip-rule:evenodd;fill:url(#SVGID_3_);}
	.st4{display:inline;fill-rule:evenodd;clip-rule:evenodd;fill:url(#SVGID_4_);}
	.st5{display:inline;fill-rule:evenodd;clip-rule:evenodd;fill:url(#SVGID_5_);}
	.st6{display:inline;fill:none;}
	.st7{display:inline;fill:none;filter:url(#Adobe_OpacityMaskFilter);}
	.st8{display:inline;mask:url(#mask0_1_);}
	.st9{fill:url(#SVGID_6_);}
	.st10{display:inline;fill:url(#SVGID_7_);}
	.st11{display:inline;fill:url(#SVGID_8_);}
	.st12{display:inline;fill:url(#SVGID_9_);}
	.st13{display:inline;fill:url(#SVGID_10_);}
	.st14{display:inline;fill:url(#SVGID_11_);}
	.st15{display:inline;fill:url(#SVGID_12_);}
	.st16{display:inline;fill-rule:evenodd;clip-rule:evenodd;fill:url(#SVGID_13_);}
	.st17{display:inline;fill:url(#SVGID_14_);}
	.st18{display:inline;fill:url(#SVGID_15_);}
	.st19{display:inline;fill:url(#SVGID_16_);}
	.st20{display:inline;fill:url(#SVGID_17_);}
	.st21{display:inline;fill:url(#SVGID_18_);}
	.st22{display:inline;fill:url(#SVGID_19_);}
	.st23{display:inline;fill:url(#SVGID_20_);}
	.st24{display:inline;fill:url(#SVGID_21_);}
	.st25{display:inline;fill:url(#SVGID_22_);}
	.st26{display:inline;fill-rule:evenodd;clip-rule:evenodd;fill:url(#SVGID_23_);}
	.st27{display:inline;fill-rule:evenodd;clip-rule:evenodd;fill:url(#SVGID_24_);}
	.st28{display:inline;fill:url(#SVGID_25_);}
	.st29{display:inline;fill:url(#SVGID_26_);}
	.st30{display:inline;fill:url(#SVGID_27_);}
	.st31{display:inline;fill:url(#SVGID_28_);}
	.st32{display:inline;fill:url(#SVGID_29_);}
	.st33{display:inline;fill:url(#SVGID_30_);}
	.st34{display:inline;fill:url(#SVGID_31_);}
	.st35{display:inline;fill:url(#SVGID_32_);}
	.st36{display:inline;fill:url(#SVGID_33_);}
	.st37{display:inline;fill:url(#SVGID_34_);}
	.st38{display:inline;fill:url(#SVGID_35_);}
	.st39{display:inline;fill:url(#SVGID_36_);}
	.st40{display:inline;fill:url(#SVGID_37_);}
	.st41{display:inline;fill-rule:evenodd;clip-rule:evenodd;fill:url(#SVGID_38_);}
	.st42{display:inline;fill:url(#SVGID_39_);}
	.st43{display:inline;fill-rule:evenodd;clip-rule:evenodd;fill:url(#SVGID_40_);}
	.st44{display:inline;fill:url(#SVGID_41_);}
	.st45{display:inline;fill:url(#SVGID_42_);}
	.st46{display:inline;fill-rule:evenodd;clip-rule:evenodd;fill:url(#SVGID_43_);}
	.st47{display:inline;fill:url(#SVGID_44_);}
	.st48{fill:url(#SVGID_45_);}
	.st49{fill:url(#SVGID_46_);}
</style>
<g id="Layer_1" class="st0">
	
		<linearGradient id="SVGID_1_" gradientUnits="userSpaceOnUse" x1="344.4206" y1="-289.9258" x2="344.4206" y2="-282.4743" gradientTransform="matrix(1 0 0 -1 -242 -202)">
		<stop  offset="0" style="stop-color:#005AA7"/>
		<stop  offset="1" style="stop-color:#0093D3"/>
	</linearGradient>
	<path class="st1" d="M104.9,82c-0.4,1.3-1.4,2.2-2.5,2.2c-1.1,0-2.2-0.9-2.5-2.3c-0.2-1-1.3-1.6-2.3-1.4c-1,0.2-1.6,1.3-1.4,2.3
		c0.7,3,3.3,5.1,6.1,5.1c2.8,0,5.3-2,6.1-4.9c0.3-1-0.3-2-1.3-2.3C106.2,80.4,105.2,81,104.9,82z"/>
	
		<linearGradient id="SVGID_2_" gradientUnits="userSpaceOnUse" x1="308.8309" y1="-271.3895" x2="308.8309" y2="-264.696" gradientTransform="matrix(1 0 0 -1 -242 -202)">
		<stop  offset="0" style="stop-color:#005AA7"/>
		<stop  offset="1" style="stop-color:#0093D3"/>
	</linearGradient>
	<path class="st2" d="M56.9,65.9c-0.9,0.5-1.2,1.7-0.6,2.6c0.5,0.9,1.7,1.2,2.6,0.6c5-3,10.8-3.5,16.2-1.4c1,0.4,2.1-0.1,2.4-1.1
		c0.4-1-0.1-2.1-1.1-2.4C69.9,61.7,63,62.3,56.9,65.9z"/>
	
		<linearGradient id="SVGID_3_" gradientUnits="userSpaceOnUse" x1="340.6296" y1="-276.266" x2="340.6296" y2="-250.7394" gradientTransform="matrix(1 0 0 -1 -242 -202)">
		<stop  offset="0" style="stop-color:#005AA7"/>
		<stop  offset="1" style="stop-color:#0093D3"/>
	</linearGradient>
	<path class="st3" d="M98.4,74.3c-2.6,0-5.5-0.6-7.7-2.3C88,70,85.2,66,86.9,58c0.3-1.6,1.5-3,3-3.7c13.3-6.1,16.8-6,18.5-5.1
		c1.6,0.8,2.4,3,2.5,6.7c0.1,5.4-1.7,14.6-5.9,17C103.4,73.7,101,74.3,98.4,74.3z M91.5,57.7c-0.4,0.2-0.8,0.6-0.9,1
		c-1,4.9-0.2,8.3,2.3,10.2c3,2.2,7.9,1.8,10.1,0.6c1.2-0.7,2.8-3.6,3.6-8.6c0.8-4.6,0.3-7.7-0.1-8.4c-0.1,0-0.2,0-0.3,0
		C105.2,52.5,101.8,53,91.5,57.7z"/>
	
		<linearGradient id="SVGID_4_" gradientUnits="userSpaceOnUse" x1="308.8169" y1="-330.5998" x2="308.8169" y2="-254.631" gradientTransform="matrix(1 0 0 -1 -242 -202)">
		<stop  offset="0" style="stop-color:#005AA7"/>
		<stop  offset="1" style="stop-color:#0093D3"/>
	</linearGradient>
	<path class="st4" d="M116.7,78l4.3,1.4c2.6,0.8,4.3,3.2,4.3,5.9v7.2c0,2.7-1.7,5-4.3,5.9l-7,2.2c-0.3,0.1-0.6,0.3-0.7,0.6
		c-3,5.2-7.6,9.5-13.7,12.7L98,125.2c0,0,0,0.1,0,0.1c-0.4,1.9-2.1,3.3-4,3.3h-7.3c-1.9,0-3.6-1.4-4-3.2l-1.7-5.7
		c-3,0.4-6.1,0.6-9.2,0.6c-2.2,0-4.5-0.1-6.6-0.3l-1.6,5.4c-0.4,1.9-2.1,3.2-4,3.2h-7.3c-2,0-3.7-1.4-4-3.3c0,0,0-0.1,0-0.1
		l-1.4-10.6c-5-2.8-9-6.5-11.8-10.9c-3-4.9-4.6-10.7-4.6-17.2c0-4.7,0.8-9.1,2.4-13c-1.8-0.3-3.7-0.2-5.4,0.1c1.5,1.4,2.4,3.4,2.5,6
		c0.4,7.4-11.7,9.7-13.5,2.3c-0.5-2.2-0.3-4.3,0.6-6c-2.5,0.9-4.6,2.5-5.1,4c-0.3,1-1.4,1.5-2.3,1.2c-1-0.3-1.5-1.4-1.2-2.3
		c1.3-4.2,7.9-7.8,13.5-7.4c1.8-0.9,3.7-1.3,5.3-1.5c2.5-0.4,5.1-0.3,7.4,0.1c2-3.6,4.8-6.7,8.3-9.2c7.2-5.3,17.2-8.1,29-8.1
		c3.1,0,6.3,0.2,9.3,0.6c1,0.1,1.7,1.1,1.6,2.1c-0.1,1-1.1,1.8-2.1,1.6c-2.9-0.4-5.8-0.6-8.8-0.6c-11,0-20.2,2.5-26.8,7.4
		C37.9,69,34.3,76.6,34.3,86.4c0,11.2,5.1,19.8,14.8,25c0.7,0.4,1.3,1.1,1.4,1.9c0,0,0,0.1,0,0.1l1.5,11.1c0,0.2,0.2,0.3,0.3,0.3
		h7.3c0.2,0,0.3-0.1,0.3-0.3c0-0.1,0-0.1,0-0.2l1.8-6.1c0.3-1.4,1.6-2.3,3-2.1c2.3,0.3,4.6,0.4,7,0.4c3.2,0,6.4-0.2,9.5-0.7
		c1.4-0.2,2.8,0.7,3.1,2.1l1.9,6.5c0,0.1,0,0.1,0,0.2c0,0.2,0.2,0.3,0.3,0.3H94c0.2,0,0.3-0.1,0.3-0.3l1.6-11.8c0,0,0-0.1,0-0.1
		c0.2-0.8,0.7-1.5,1.4-1.9c5.7-3,10-6.8,12.7-11.5c0.6-1.1,1.7-1.9,2.8-2.3l7-2.2c1-0.3,1.7-1.2,1.7-2.3v-7.2c0-1-0.7-2-1.7-2.3
		l-4.3-1.4c-1.6-0.5-2.9-1.8-3.4-3.4c-0.4-1.3-0.9-2.6-1.6-3.8c-0.5-0.9-0.1-2.1,0.8-2.5c0.9-0.5,2.1-0.1,2.5,0.8
		c0.7,1.4,1.3,2.9,1.8,4.4C115.9,77.5,116.2,77.9,116.7,78z M20.2,81c0.3,1.5,2.2,1.8,3.4,1.6c0.7-0.1,2.8-0.6,2.7-2.9
		c-0.1-2.5-1.3-4-3.5-4.5C20.6,76.5,19.6,78.6,20.2,81z"/>
	
		<linearGradient id="SVGID_5_" gradientUnits="userSpaceOnUse" x1="284.7144" y1="-252.15" x2="284.7144" y2="-202.6003" gradientTransform="matrix(1 0 0 -1 -242 -202)">
		<stop  offset="0" style="stop-color:#005AA7"/>
		<stop  offset="1" style="stop-color:#0093D3"/>
	</linearGradient>
	<path class="st5" d="M77.5,21.1c-2.2-2.5-5-4.3-8.1-5.2c-2.5-3.6-6-8.6-6.7-9.6c-1.2-1.7-3-2.8-5-3.2L43.8,0.8c-2.4-0.4-4.8,0-7,1
		c-0.7,0.3-1.5,0.7-2.4,1.1c-0.9,0.4-1.3,1.6-0.9,2.5C33.9,6.3,35,6.7,36,6.3c0.9-0.4,1.7-0.8,2.4-1.2c1.5-0.7,3.2-1,4.8-0.7
		l13.9,2.3c1,0.2,1.9,0.7,2.5,1.6c0.5,0.8,2.6,3.8,4.7,6.8c-1.8,0-3.5,0.3-5.1,0.8c-1-0.8-1.9-1.6-2.9-2.4l0,0l0,0l0,0
		c-0.4-0.3-0.8-0.7-1.2-1c-0.3-0.2-0.6-0.4-0.9-0.4l-5.5-0.9c-0.6-0.1-1.1,0.1-1.5,0.4l-8.8,7.7c-0.1,0.1-0.2,0.2-0.3,0.4
		c-1.2,1.8-1.1,4.8,0.3,6.4l0,0c0.9,1,2.1,1.6,3.4,1.7l7.2,0.5c3.2,0.2,7.5,2.3,9.3,4.6c0.3,0.4,0.7,1.1,0.7,1.7
		c-0.1,0.9-1.1,0.8-1.8,0.8c-1.8-0.1-3.6-0.3-5.4-0.4l0,0c-3.1-0.3-6.2-0.5-9.3-0.6c-2.6-0.1-5.2,0-7.8,0.2h0c-0.4,0-0.9,0-1.3,0.1
		c-2.3,0.1-4.7-0.4-6.7-1.6l-7.4-4.3c-0.6-0.4-1.3-0.7-2.1-0.9V11.3c0,0,5.4,0.4,5.4,0.4c0.1,0,0.3,0,0.4-0.1
		c1.2-0.3,2.8-0.8,4.9-1.7c1-0.4,1.4-1.5,1-2.4c-0.4-1-1.5-1.4-2.4-1c-1.7,0.7-3.1,1.2-4.1,1.5l-5.2-0.3V7.1c0-1.9-1.6-3.5-3.5-3.5
		H7.1c-1.9,0-3.5,1.6-3.5,3.5v23.6c0,1.9,1.6,3.5,3.5,3.5h6.5c1.6,0,3-1.1,3.3-2.6c0.1,0,7.7,4.5,7.7,4.5c2.7,1.5,5.7,2.3,8.8,2.1
		c4.8-0.2,9.5-0.1,14.3,0.2C50,45,56,49.6,63.1,50.1c4.6,0.3,9.2-1.3,12.7-4.3c3.5-3.1,5.6-7.4,5.9-12
		C82.1,29.1,80.5,24.6,77.5,21.1z M13.3,30.5h-6V7.4h6V30.5z M42,23.9c0.2,0,6.8,0.4,6.8,0.4c1.5-2.9,3.8-5.2,6.5-6.8L53,15.6
		l-4.1-0.7l-7.9,6.9C40.8,22.6,41,23.9,42,23.9z M62.6,34.9c0-0.4,0-0.7,0-1.1c0.4,0.2,0.9,0.5,1.3,0.7l0,0l0,0
		c0.5,0.3,1.1,0.6,1.6,0.9c0.9,0.6,1.8,1.4,1.5,2.6c-0.3,1.1-1.4,1.8-2.5,1.8c-1.1,0-2.3-0.4-3-1.2c-0.2-0.2-0.3-0.4-0.5-0.6
		c0.1,0.1,1.1-1.2,1.1-1.3C62.4,36.1,62.5,35.5,62.6,34.9z M73.3,43c2.8-2.4,4.4-5.8,4.7-9.5c0.2-3.7-1-7.2-3.4-10
		c-2.4-2.8-5.8-4.4-9.5-4.7c-5-0.3-9.8,2.1-12.5,6.2c2.2,0.7,4.4,1.8,6.1,3.1c0-0.4,0.1-0.8,0.2-1.2c0.6-2.3,2.7-3.3,5-3.3l0.1-1.7
		c0-0.4,0.3-0.6,0.7-0.6l1,0.1c0.4,0,0.6,0.3,0.6,0.7l-0.1,1.9c0.7,0.2,1.3,0.6,1.8,1l0-0.7c0-0.2,0.2-0.3,0.3-0.3l1.3,0.1
		c0.2,0,0.3,0.2,0.3,0.3l-0.3,5c0,0.2-0.2,0.3-0.3,0.3l-1-0.1c-0.1,0-0.3-0.1-0.3-0.3c-0.1-1.2-0.5-2.2-1-2.9
		c-0.6-0.7-1.4-1.1-2.5-1.2c-2.1-0.1-3.2,2.3-1.7,3.8c0.8,0.8,1.8,1.3,2.8,1.8c0.5,0.3,1,0.5,1.4,0.8c1.4,0.8,2.7,2,3.1,3.6
		c0.8,3.2-1.7,5.7-4.8,5.9l-0.2,2.2c0,0.4-0.3,0.6-0.7,0.6l-0.9-0.1c-0.4,0-0.6-0.3-0.6-0.7l0.1-2.2c-0.4-0.1-2.9-0.8-2.8-1.2l0,0.6
		c0,0.2-0.2,0.3-0.3,0.3L58.5,41c-0.2,0-0.3-0.2-0.3-0.3l0.1-1.7c-0.3,0-6.5-0.3-6.5-0.3c2.1,4.4,6.5,7.4,11.5,7.7
		C67,46.6,70.6,45.4,73.3,43z"/>
	<rect x="46.5" y="81.6" class="st6" width="47.7" height="14"/>
	<defs>
		<filter id="Adobe_OpacityMaskFilter" filterUnits="userSpaceOnUse" x="46.5" y="81.6" width="47.7" height="14">
			<feColorMatrix  type="matrix" values="1 0 0 0 0  0 1 0 0 0  0 0 1 0 0  0 0 0 1 0"/>
		</filter>
	</defs>
	<mask maskUnits="userSpaceOnUse" x="46.5" y="81.6" width="47.7" height="14" id="mask0_1_" style="display:inline;">
		<rect x="46.5" y="81.6" style="fill:none;filter:url(#Adobe_OpacityMaskFilter);" width="47.7" height="14"/>
	</mask>
	<g class="st8">
		
			<linearGradient id="SVGID_6_" gradientUnits="userSpaceOnUse" x1="312.3692" y1="-297.5998" x2="312.3692" y2="-283.5998" gradientTransform="matrix(1 0 0 -1 -242 -202)">
			<stop  offset="0" style="stop-color:#005AA7"/>
			<stop  offset="1" style="stop-color:#0093D3"/>
		</linearGradient>
		<rect x="46.5" y="81.6" class="st9" width="47.7" height="14"/>
	</g>
</g>
<g id="Layer_2" class="st0">
	
		<linearGradient id="SVGID_7_" gradientUnits="userSpaceOnUse" x1="277.1067" y1="-296.192" x2="277.1067" y2="-235.9486" gradientTransform="matrix(1 0 0 -1 -242 -202)">
		<stop  offset="0" style="stop-color:#005AA7"/>
		<stop  offset="1" style="stop-color:#0093D3"/>
	</linearGradient>
	<path class="st10" d="M18.7,33.9h-4.1v58.2c0,1.1,0.9,2,2.1,2h39.1v-4h-37V33.9z"/>
	
		<linearGradient id="SVGID_8_" gradientUnits="userSpaceOnUse" x1="272.9962" y1="-245.9428" x2="272.9962" y2="-241.9228" gradientTransform="matrix(1 0 0 -1 -242 -202)">
		<stop  offset="0" style="stop-color:#005AA7"/>
		<stop  offset="1" style="stop-color:#0093D3"/>
	</linearGradient>
	<path class="st11" d="M28.9,39.9h4.1v4h-4.1V39.9z"/>
	
		<linearGradient id="SVGID_9_" gradientUnits="userSpaceOnUse" x1="287.3835" y1="-245.9428" x2="287.3835" y2="-241.9228" gradientTransform="matrix(1 0 0 -1 -242 -202)">
		<stop  offset="0" style="stop-color:#005AA7"/>
		<stop  offset="1" style="stop-color:#0093D3"/>
	</linearGradient>
	<path class="st12" d="M37.2,39.9h16.4v4H37.2V39.9z"/>
	
		<linearGradient id="SVGID_10_" gradientUnits="userSpaceOnUse" x1="283.2729" y1="-253.9827" x2="283.2729" y2="-249.9627" gradientTransform="matrix(1 0 0 -1 -242 -202)">
		<stop  offset="0" style="stop-color:#005AA7"/>
		<stop  offset="1" style="stop-color:#0093D3"/>
	</linearGradient>
	<path class="st13" d="M28.9,48h24.7v4H28.9V48z"/>
	
		<linearGradient id="SVGID_11_" gradientUnits="userSpaceOnUse" x1="283.2729" y1="-262.0225" x2="283.2729" y2="-258.0026" gradientTransform="matrix(1 0 0 -1 -242 -202)">
		<stop  offset="0" style="stop-color:#005AA7"/>
		<stop  offset="1" style="stop-color:#0093D3"/>
	</linearGradient>
	<path class="st14" d="M28.9,56h24.7v4H28.9V56z"/>
	
		<linearGradient id="SVGID_12_" gradientUnits="userSpaceOnUse" x1="283.2729" y1="-270.0624" x2="283.2729" y2="-266.0424" gradientTransform="matrix(1 0 0 -1 -242 -202)">
		<stop  offset="0" style="stop-color:#005AA7"/>
		<stop  offset="1" style="stop-color:#0093D3"/>
	</linearGradient>
	<path class="st15" d="M28.9,64h24.7v4H28.9V64z"/>
	
		<linearGradient id="SVGID_13_" gradientUnits="userSpaceOnUse" x1="305.8816" y1="-298.2021" x2="305.8816" y2="-229.863" gradientTransform="matrix(1 0 0 -1 -242 -202)">
		<stop  offset="0" style="stop-color:#005AA7"/>
		<stop  offset="1" style="stop-color:#0093D3"/>
	</linearGradient>
	<path class="st16" d="M107,86.2c0,1.1-0.9,2-2.1,2H70v2c0,3.3-2.8,6-6.2,6s-6.2-2.7-6.2-6v-2H22.8c-1.1,0-2.1-0.9-2.1-2V29.9
		c0-1.1,0.9-2,2.1-2h37c1.1,0,2.1,0.9,2.1,2v2h4.1v-2c0-1.1,0.9-2,2.1-2h37c1.1,0,2.1,0.9,2.1,2V86.2z M102.9,31.9H70v52.3h32.9
		V31.9z M24.8,84.1V31.9h32.9v52.3H24.8z M63.9,92.2c1.1,0,2.1-0.9,2.1-2V35.9h-4.1v54.3C61.8,91.3,62.7,92.2,63.9,92.2z"/>
	
		<linearGradient id="SVGID_14_" gradientUnits="userSpaceOnUse" x1="334.6562" y1="-296.192" x2="334.6562" y2="-235.9486" gradientTransform="matrix(1 0 0 -1 -242 -202)">
		<stop  offset="0" style="stop-color:#005AA7"/>
		<stop  offset="1" style="stop-color:#0093D3"/>
	</linearGradient>
	<path class="st17" d="M113.2,92.2V33.9h-4.1v56.2h-37v4h39.1C112.3,94.2,113.2,93.3,113.2,92.2z"/>
	
		<linearGradient id="SVGID_15_" gradientUnits="userSpaceOnUse" x1="334.6565" y1="-245.9428" x2="334.6565" y2="-241.9228" gradientTransform="matrix(1 0 0 -1 -242 -202)">
		<stop  offset="0" style="stop-color:#005AA7"/>
		<stop  offset="1" style="stop-color:#0093D3"/>
	</linearGradient>
	<path class="st18" d="M86.5,39.9h12.3v4H86.5V39.9z"/>
	
		<linearGradient id="SVGID_16_" gradientUnits="userSpaceOnUse" x1="320.2687" y1="-245.9428" x2="320.2687" y2="-241.9228" gradientTransform="matrix(1 0 0 -1 -242 -202)">
		<stop  offset="0" style="stop-color:#005AA7"/>
		<stop  offset="1" style="stop-color:#0093D3"/>
	</linearGradient>
	<path class="st19" d="M74.2,39.9h8.2v4h-8.2V39.9z"/>
	
		<linearGradient id="SVGID_17_" gradientUnits="userSpaceOnUse" x1="328.4899" y1="-253.9827" x2="328.4899" y2="-249.9627" gradientTransform="matrix(1 0 0 -1 -242 -202)">
		<stop  offset="0" style="stop-color:#005AA7"/>
		<stop  offset="1" style="stop-color:#0093D3"/>
	</linearGradient>
	<path class="st20" d="M74.2,48h24.7v4H74.2V48z"/>
	
		<linearGradient id="SVGID_18_" gradientUnits="userSpaceOnUse" x1="328.4899" y1="-262.0225" x2="328.4899" y2="-258.0026" gradientTransform="matrix(1 0 0 -1 -242 -202)">
		<stop  offset="0" style="stop-color:#005AA7"/>
		<stop  offset="1" style="stop-color:#0093D3"/>
	</linearGradient>
	<path class="st21" d="M74.2,56h24.7v4H74.2V56z"/>
	
		<linearGradient id="SVGID_19_" gradientUnits="userSpaceOnUse" x1="328.4899" y1="-270.0624" x2="328.4899" y2="-266.0424" gradientTransform="matrix(1 0 0 -1 -242 -202)">
		<stop  offset="0" style="stop-color:#005AA7"/>
		<stop  offset="1" style="stop-color:#0093D3"/>
	</linearGradient>
	<path class="st22" d="M74.2,64h24.7v4H74.2V64z"/>
	
		<linearGradient id="SVGID_20_" gradientUnits="userSpaceOnUse" x1="283.2729" y1="-278.1023" x2="283.2729" y2="-274.0823" gradientTransform="matrix(1 0 0 -1 -242 -202)">
		<stop  offset="0" style="stop-color:#005AA7"/>
		<stop  offset="1" style="stop-color:#0093D3"/>
	</linearGradient>
	<path class="st23" d="M28.9,72.1h24.7v4H28.9V72.1z"/>
	
		<linearGradient id="SVGID_21_" gradientUnits="userSpaceOnUse" x1="328.4899" y1="-278.1023" x2="328.4899" y2="-274.0823" gradientTransform="matrix(1 0 0 -1 -242 -202)">
		<stop  offset="0" style="stop-color:#005AA7"/>
		<stop  offset="1" style="stop-color:#0093D3"/>
	</linearGradient>
	<path class="st24" d="M74.2,72.1h24.7v4H74.2V72.1z"/>
	
		<linearGradient id="SVGID_22_" gradientUnits="userSpaceOnUse" x1="344.2061" y1="-227.264" x2="344.2061" y2="-215.793" gradientTransform="matrix(1 0 0 -1 -242 -202)">
		<stop  offset="0" style="stop-color:#005AA7"/>
		<stop  offset="1" style="stop-color:#0093D3"/>
	</linearGradient>
	<path class="st25" d="M105.8,17.8h3.3v-4H105c-0.5,0-1.1,0.2-1.5,0.6l-8.2,8l2.9,2.8L105.8,17.8z"/>
	
		<linearGradient id="SVGID_23_" gradientUnits="userSpaceOnUse" x1="361.3754" y1="-223.8329" x2="361.3754" y2="-211.7731" gradientTransform="matrix(1 0 0 -1 -242 -202)">
		<stop  offset="0" style="stop-color:#005AA7"/>
		<stop  offset="1" style="stop-color:#0093D3"/>
	</linearGradient>
	<path class="st26" d="M125.5,15.8c0,3.3-2.8,6-6.2,6c-3.4,0-6.2-2.7-6.2-6c0-3.3,2.8-6,6.2-6C122.8,9.8,125.5,12.5,125.5,15.8z
		 M121.4,15.8c0-1.1-0.9-2-2.1-2c-1.1,0-2.1,0.9-2.1,2s0.9,2,2.1,2C120.5,17.8,121.4,16.9,121.4,15.8z"/>
	
		<linearGradient id="SVGID_24_" gradientUnits="userSpaceOnUse" x1="250.3874" y1="-223.8329" x2="250.3874" y2="-211.7731" gradientTransform="matrix(1 0 0 -1 -242 -202)">
		<stop  offset="0" style="stop-color:#005AA7"/>
		<stop  offset="1" style="stop-color:#0093D3"/>
	</linearGradient>
	<path class="st27" d="M12.5,21.8H4.3c-1.1,0-2.1-0.9-2.1-2v-8c0-1.1,0.9-2,2.1-2h8.2c1.1,0,2.1,0.9,2.1,2v8
		C14.6,20.9,13.6,21.8,12.5,21.8z M10.4,13.8H6.3v4h4.1V13.8z"/>
	
		<linearGradient id="SVGID_25_" gradientUnits="userSpaceOnUse" x1="271.9684" y1="-225.8429" x2="271.9684" y2="-215.793" gradientTransform="matrix(1 0 0 -1 -242 -202)">
		<stop  offset="0" style="stop-color:#005AA7"/>
		<stop  offset="1" style="stop-color:#0093D3"/>
	</linearGradient>
	<path class="st28" d="M37.2,23.8h4.1v-8c0-1.1-0.9-2-2.1-2H18.7v4h18.5V23.8z"/>
	
		<linearGradient id="SVGID_26_" gradientUnits="userSpaceOnUse" x1="277.8332" y1="-314.282" x2="277.8332" y2="-300.8011" gradientTransform="matrix(1 0 0 -1 -242 -202)">
		<stop  offset="0" style="stop-color:#005AA7"/>
		<stop  offset="1" style="stop-color:#0093D3"/>
	</linearGradient>
	<path class="st29" d="M32.2,108.3h-5.3v4h6.2c0.5,0,1.1-0.2,1.5-0.6l10.3-10l-2.9-2.8L32.2,108.3z"/>
	
		<linearGradient id="SVGID_27_" gradientUnits="userSpaceOnUse" x1="258.6087" y1="-314.282" x2="258.6087" y2="-310.2618" gradientTransform="matrix(1 0 0 -1 -242 -202)">
		<stop  offset="0" style="stop-color:#005AA7"/>
		<stop  offset="1" style="stop-color:#0093D3"/>
	</linearGradient>
	<path class="st30" d="M10.4,108.3h12.3v4H10.4V108.3z"/>
	
		<linearGradient id="SVGID_28_" gradientUnits="userSpaceOnUse" x1="258.6087" y1="-320.3119" x2="258.6087" y2="-316.2917" gradientTransform="matrix(1 0 0 -1 -242 -202)">
		<stop  offset="0" style="stop-color:#005AA7"/>
		<stop  offset="1" style="stop-color:#0093D3"/>
	</linearGradient>
	<path class="st31" d="M10.4,114.3h12.3v4H10.4V114.3z"/>
	
		<linearGradient id="SVGID_29_" gradientUnits="userSpaceOnUse" x1="335.3828" y1="-315.7032" x2="335.3828" y2="-300.2118" gradientTransform="matrix(1 0 0 -1 -242 -202)">
		<stop  offset="0" style="stop-color:#005AA7"/>
		<stop  offset="1" style="stop-color:#0093D3"/>
	</linearGradient>
	<path class="st32" d="M92.7,98.2h-4.1v8c0,0.5,0.2,1,0.6,1.4l6.2,6l2.9-2.8l-5.6-5.4V98.2z"/>
	
		<linearGradient id="SVGID_30_" gradientUnits="userSpaceOnUse" x1="351.099" y1="-314.282" x2="351.099" y2="-310.2618" gradientTransform="matrix(1 0 0 -1 -242 -202)">
		<stop  offset="0" style="stop-color:#005AA7"/>
		<stop  offset="1" style="stop-color:#0093D3"/>
	</linearGradient>
	<path class="st33" d="M102.9,108.3h12.3v4h-12.3V108.3z"/>
	
		<linearGradient id="SVGID_31_" gradientUnits="userSpaceOnUse" x1="351.099" y1="-320.3119" x2="351.099" y2="-316.2917" gradientTransform="matrix(1 0 0 -1 -242 -202)">
		<stop  offset="0" style="stop-color:#005AA7"/>
		<stop  offset="1" style="stop-color:#0093D3"/>
	</linearGradient>
	<path class="st34" d="M102.9,114.3h12.3v4h-12.3V114.3z"/>
	
		<linearGradient id="SVGID_32_" gradientUnits="userSpaceOnUse" x1="363.4313" y1="-266.0424" x2="363.4313" y2="-262.0225" gradientTransform="matrix(1 0 0 -1 -242 -202)">
		<stop  offset="0" style="stop-color:#005AA7"/>
		<stop  offset="1" style="stop-color:#0093D3"/>
	</linearGradient>
	<path class="st35" d="M117.3,60h8.2v4h-8.2V60z"/>
	
		<linearGradient id="SVGID_33_" gradientUnits="userSpaceOnUse" x1="362.4034" y1="-255.4037" x2="362.4034" y2="-246.5315" gradientTransform="matrix(1 0 0 -1 -242 -202)">
		<stop  offset="0" style="stop-color:#005AA7"/>
		<stop  offset="1" style="stop-color:#0093D3"/>
	</linearGradient>
	<path class="st36" d="M115.9,50.6l6.2-6l2.9,2.8l-6.2,6L115.9,50.6z"/>
	
		<linearGradient id="SVGID_34_" gradientUnits="userSpaceOnUse" x1="362.4051" y1="-281.5345" x2="362.4051" y2="-272.6614" gradientTransform="matrix(1 0 0 -1 -242 -202)">
		<stop  offset="0" style="stop-color:#005AA7"/>
		<stop  offset="1" style="stop-color:#0093D3"/>
	</linearGradient>
	<path class="st37" d="M115.9,73.5l2.9-2.8l6.2,6l-2.9,2.8L115.9,73.5z"/>
	
		<linearGradient id="SVGID_35_" gradientUnits="userSpaceOnUse" x1="248.332" y1="-266.0424" x2="248.332" y2="-262.0225" gradientTransform="matrix(1 0 0 -1 -242 -202)">
		<stop  offset="0" style="stop-color:#005AA7"/>
		<stop  offset="1" style="stop-color:#0093D3"/>
	</linearGradient>
	<path class="st38" d="M2.2,60h8.2v4H2.2V60z"/>
	
		<linearGradient id="SVGID_36_" gradientUnits="userSpaceOnUse" x1="249.3614" y1="-255.4055" x2="249.3614" y2="-246.5323" gradientTransform="matrix(1 0 0 -1 -242 -202)">
		<stop  offset="0" style="stop-color:#005AA7"/>
		<stop  offset="1" style="stop-color:#0093D3"/>
	</linearGradient>
	<path class="st39" d="M2.8,47.4l2.9-2.8l6.2,6L9,53.4L2.8,47.4z"/>
	
		<linearGradient id="SVGID_37_" gradientUnits="userSpaceOnUse" x1="249.3593" y1="-281.5324" x2="249.3593" y2="-272.6592" gradientTransform="matrix(1 0 0 -1 -242 -202)">
		<stop  offset="0" style="stop-color:#005AA7"/>
		<stop  offset="1" style="stop-color:#0093D3"/>
	</linearGradient>
	<path class="st40" d="M2.8,76.7l6.2-6l2.9,2.8l-6.2,6L2.8,76.7z"/>
</g>
<g id="Layer_3" class="st0">
	
		<linearGradient id="SVGID_38_" gradientUnits="userSpaceOnUse" x1="306.0816" y1="-314.6826" x2="306.0816" y2="-218.8525" gradientTransform="matrix(1 0 0 -1 -242 -202)">
		<stop  offset="0" style="stop-color:#005AA7"/>
		<stop  offset="1" style="stop-color:#0093D3"/>
	</linearGradient>
	<path class="st41" d="M112.3,31.6h14.8v47.1h-81l0.2,24.2L35,96.5l-9.2,16.2L3.1,99.9l9.2-16.2L1.1,77.3L24,63.9H1.1V16.9h111.2
		V31.6z M8.5,24.2v32.3h28.1l9.3-5.4l0,5.4h58.9V24.2H8.5z M32.2,86.4L23,102.6l-9.7-5.5l9.2-16.2l-6.6-3.7l22.7-13.3l0.2,26.2
		L32.2,86.4z M46,71.3h73.6V39h-7.4v24.9H46L46,71.3z"/>
	
		<linearGradient id="SVGID_39_" gradientUnits="userSpaceOnUse" x1="261.3682" y1="-248.6684" x2="261.3682" y2="-236.8514" gradientTransform="matrix(1 0 0 -1 -242 -202)">
		<stop  offset="0" style="stop-color:#005AA7"/>
		<stop  offset="1" style="stop-color:#0093D3"/>
	</linearGradient>
	<path class="st42" d="M14.6,46.7h4v-3.8h4.9v-3h-4.9v-2h5.6v-3h-9.6V46.7z"/>
	
		<linearGradient id="SVGID_40_" gradientUnits="userSpaceOnUse" x1="274.4285" y1="-248.9383" x2="274.4285" y2="-236.5813" gradientTransform="matrix(1 0 0 -1 -242 -202)">
		<stop  offset="0" style="stop-color:#005AA7"/>
		<stop  offset="1" style="stop-color:#0093D3"/>
	</linearGradient>
	<path class="st43" d="M25.7,40.8c0-3.6,2.8-6.2,6.7-6.2c3.9,0,6.7,2.6,6.7,6.2c0,3.6-2.8,6.2-6.7,6.2
		C28.6,46.9,25.7,44.3,25.7,40.8z M29.8,40.8c0,1.8,1.2,3,2.7,3c1.5,0,2.7-1.1,2.7-3c0-1.8-1.2-3-2.7-3C31,37.8,29.8,38.9,29.8,40.8
		z"/>
	
		<linearGradient id="SVGID_41_" gradientUnits="userSpaceOnUse" x1="288.0903" y1="-248.6684" x2="288.0903" y2="-236.8514" gradientTransform="matrix(1 0 0 -1 -242 -202)">
		<stop  offset="0" style="stop-color:#005AA7"/>
		<stop  offset="1" style="stop-color:#0093D3"/>
	</linearGradient>
	<path class="st44" d="M50.8,43.6h-5.3v-8.7h-4v11.8h9.3V43.6z"/>
	
		<linearGradient id="SVGID_42_" gradientUnits="userSpaceOnUse" x1="299.3813" y1="-248.6684" x2="299.3813" y2="-236.8514" gradientTransform="matrix(1 0 0 -1 -242 -202)">
		<stop  offset="0" style="stop-color:#005AA7"/>
		<stop  offset="1" style="stop-color:#0093D3"/>
	</linearGradient>
	<path class="st45" d="M62.1,43.6h-5.3v-8.7h-4v11.8h9.3V43.6z"/>
	
		<linearGradient id="SVGID_43_" gradientUnits="userSpaceOnUse" x1="312.0435" y1="-248.9386" x2="312.0435" y2="-236.5816" gradientTransform="matrix(1 0 0 -1 -242 -202)">
		<stop  offset="0" style="stop-color:#005AA7"/>
		<stop  offset="1" style="stop-color:#0093D3"/>
	</linearGradient>
	<path class="st46" d="M76.7,40.8c0,3.6-2.8,6.2-6.7,6.2c-3.9,0-6.7-2.6-6.7-6.2c0-3.6,2.8-6.2,6.7-6.2
		C73.9,34.6,76.7,37.2,76.7,40.8z M72.7,40.8c0-1.8-1.2-3-2.7-3c-1.5,0-2.7,1.1-2.7,3c0,1.8,1.2,3,2.7,3
		C71.5,43.7,72.7,42.6,72.7,40.8z"/>
	
		<linearGradient id="SVGID_44_" gradientUnits="userSpaceOnUse" x1="329.8518" y1="-248.6684" x2="329.8518" y2="-236.8514" gradientTransform="matrix(1 0 0 -1 -242 -202)">
		<stop  offset="0" style="stop-color:#005AA7"/>
		<stop  offset="1" style="stop-color:#0093D3"/>
	</linearGradient>
	<path class="st47" d="M85.9,46.7l2-6.3l1.9,6.3h4.3l3.8-11.8h-3.8l-2.2,6.8l-2.1-6.8h-3.7L84,41.6l-2.1-6.7h-4.1l3.8,11.8H85.9z"/>
</g>
<g id="Layer_4">
	
		<linearGradient id="SVGID_45_" gradientUnits="userSpaceOnUse" x1="305.6482" y1="-327.302" x2="305.6482" y2="-213.6377" gradientTransform="matrix(1 0 0 -1 -242 -202)">
		<stop  offset="0" style="stop-color:#005AA7"/>
		<stop  offset="1" style="stop-color:#0093D3"/>
	</linearGradient>
	<path class="st48" d="M83.9,11.6v15.6c14.3,7.4,24,22.2,24,39.3c0,24.5-19.8,44.3-44.3,44.3c-24.5,0-44.3-19.8-44.3-44.3
		c0-15.7,8.2-29.5,20.6-37.4V13C19.4,22.1,5,42.7,5,66.6c0,32.4,26.3,58.7,58.7,58.7c32.4,0,58.7-26.3,58.7-58.7
		C122.3,41.4,106.3,19.9,83.9,11.6z"/>
	
		<linearGradient id="SVGID_46_" gradientUnits="userSpaceOnUse" x1="304.5226" y1="-276.1967" x2="304.5226" y2="-204" gradientTransform="matrix(1 0 0 -1 -242 -202)">
		<stop  offset="0" style="stop-color:#005AA7"/>
		<stop  offset="1" style="stop-color:#0093D3"/>
	</linearGradient>
	<path class="st49" d="M62.5,74.2c6.4,0,11.6-3.8,11.6-8.5V10.5C74.2,5.8,69,2,62.5,2c-6.4,0-11.6,3.8-11.6,8.5v55.2
		C50.9,70.4,56.1,74.2,62.5,74.2z"/>
</g>
</svg>
