<?xml version="1.0" encoding="utf-8"?>
<!-- Generator: Adobe Illustrator 23.0.0, SVG Export Plug-In . SVG Version: 6.00 Build 0)  -->
<svg version="1.1" id="Layer_1" xmlns="http://www.w3.org/2000/svg" xmlns:xlink="http://www.w3.org/1999/xlink" x="0px" y="0px"
	 viewBox="0 0 128 128" style="enable-background:new 0 0 128 128;" xml:space="preserve">
<style type="text/css">
	.st0{fill:url(#SVGID_1_);}
	.st1{fill:url(#SVGID_2_);}
	.st2{fill-rule:evenodd;clip-rule:evenodd;fill:url(#SVGID_3_);}
	.st3{fill-rule:evenodd;clip-rule:evenodd;fill:url(#SVGID_4_);}
	.st4{fill-rule:evenodd;clip-rule:evenodd;fill:url(#SVGID_5_);}
	.st5{fill:none;}
	.st6{fill:none;filter:url(#Adobe_OpacityMaskFilter);}
	.st7{mask:url(#mask0_1_);}
	.st8{fill:url(#SVGID_6_);}
</style>
<linearGradient id="SVGID_1_" gradientUnits="userSpaceOnUse" x1="344.4206" y1="-289.9258" x2="344.4206" y2="-282.4743" gradientTransform="matrix(1 0 0 -1 -242 -202)">
	<stop  offset="0" style="stop-color:#005AA7"/>
	<stop  offset="1" style="stop-color:#0093D3"/>
</linearGradient>
<path class="st0" d="M104.9,82c-0.4,1.3-1.4,2.2-2.5,2.2c-1.1,0-2.2-0.9-2.5-2.3c-0.2-1-1.3-1.6-2.3-1.4c-1,0.2-1.6,1.3-1.4,2.3
	c0.7,3,3.3,5.1,6.1,5.1c2.8,0,5.3-2,6.1-4.9c0.3-1-0.3-2-1.3-2.3C106.2,80.4,105.2,81,104.9,82z"/>
<linearGradient id="SVGID_2_" gradientUnits="userSpaceOnUse" x1="308.8309" y1="-271.3895" x2="308.8309" y2="-264.696" gradientTransform="matrix(1 0 0 -1 -242 -202)">
	<stop  offset="0" style="stop-color:#005AA7"/>
	<stop  offset="1" style="stop-color:#0093D3"/>
</linearGradient>
<path class="st1" d="M56.9,65.9c-0.9,0.5-1.2,1.7-0.6,2.6c0.5,0.9,1.7,1.2,2.6,0.6c5-3,10.8-3.5,16.2-1.4c1,0.4,2.1-0.1,2.4-1.1
	c0.4-1-0.1-2.1-1.1-2.4C69.9,61.7,63,62.3,56.9,65.9z"/>
<linearGradient id="SVGID_3_" gradientUnits="userSpaceOnUse" x1="340.6296" y1="-276.266" x2="340.6296" y2="-250.7394" gradientTransform="matrix(1 0 0 -1 -242 -202)">
	<stop  offset="0" style="stop-color:#005AA7"/>
	<stop  offset="1" style="stop-color:#0093D3"/>
</linearGradient>
<path class="st2" d="M98.4,74.3c-2.6,0-5.5-0.6-7.7-2.3C88,70,85.2,66,86.9,58c0.3-1.6,1.5-3,3-3.7c13.3-6.1,16.8-6,18.5-5.1
	c1.6,0.8,2.4,3,2.5,6.7c0.1,5.4-1.7,14.6-5.9,17C103.4,73.7,101,74.3,98.4,74.3z M91.5,57.7c-0.4,0.2-0.8,0.6-0.9,1
	c-1,4.9-0.2,8.3,2.3,10.2c3,2.2,7.9,1.8,10.1,0.6c1.2-0.7,2.8-3.6,3.6-8.6c0.8-4.6,0.3-7.7-0.1-8.4c-0.1,0-0.2,0-0.3,0
	C105.2,52.5,101.8,53,91.5,57.7z"/>
<linearGradient id="SVGID_4_" gradientUnits="userSpaceOnUse" x1="308.8169" y1="-330.5998" x2="308.8169" y2="-254.631" gradientTransform="matrix(1 0 0 -1 -242 -202)">
	<stop  offset="0" style="stop-color:#005AA7"/>
	<stop  offset="1" style="stop-color:#0093D3"/>
</linearGradient>
<path class="st3" d="M116.7,78l4.3,1.4c2.6,0.8,4.3,3.2,4.3,5.9v7.2c0,2.7-1.7,5-4.3,5.9l-7,2.2c-0.3,0.1-0.6,0.3-0.7,0.6
	c-3,5.2-7.6,9.5-13.7,12.7L98,125.2c0,0,0,0.1,0,0.1c-0.4,1.9-2.1,3.3-4,3.3h-7.3c-1.9,0-3.6-1.4-4-3.2l-1.7-5.7
	c-3,0.4-6.1,0.6-9.2,0.6c-2.2,0-4.5-0.1-6.6-0.3l-1.6,5.4c-0.4,1.9-2.1,3.2-4,3.2h-7.3c-2,0-3.7-1.4-4-3.3c0,0,0-0.1,0-0.1
	l-1.4-10.6c-5-2.8-9-6.5-11.8-10.9c-3-4.9-4.6-10.7-4.6-17.2c0-4.7,0.8-9.1,2.4-13c-1.8-0.3-3.7-0.2-5.4,0.1c1.5,1.4,2.4,3.4,2.5,6
	c0.4,7.4-11.7,9.7-13.5,2.3c-0.5-2.2-0.3-4.3,0.6-6c-2.5,0.9-4.6,2.5-5.1,4c-0.3,1-1.4,1.5-2.3,1.2c-1-0.3-1.5-1.4-1.2-2.3
	c1.3-4.2,7.9-7.8,13.5-7.4c1.8-0.9,3.7-1.3,5.3-1.5c2.5-0.4,5.1-0.3,7.4,0.1c2-3.6,4.8-6.7,8.3-9.2c7.2-5.3,17.2-8.1,29-8.1
	c3.1,0,6.3,0.2,9.3,0.6c1,0.1,1.7,1.1,1.6,2.1c-0.1,1-1.1,1.8-2.1,1.6c-2.9-0.4-5.8-0.6-8.8-0.6c-11,0-20.2,2.5-26.8,7.4
	C37.9,69,34.3,76.6,34.3,86.4c0,11.2,5.1,19.8,14.8,25c0.7,0.4,1.3,1.1,1.4,1.9c0,0,0,0.1,0,0.1l1.5,11.1c0,0.2,0.2,0.3,0.3,0.3h7.3
	c0.2,0,0.3-0.1,0.3-0.3c0-0.1,0-0.1,0-0.2l1.8-6.1c0.3-1.4,1.6-2.3,3-2.1c2.3,0.3,4.6,0.4,7,0.4c3.2,0,6.4-0.2,9.5-0.7
	c1.4-0.2,2.8,0.7,3.1,2.1l1.9,6.5c0,0.1,0,0.1,0,0.2c0,0.2,0.2,0.3,0.3,0.3H94c0.2,0,0.3-0.1,0.3-0.3l1.6-11.8c0,0,0-0.1,0-0.1
	c0.2-0.8,0.7-1.5,1.4-1.9c5.7-3,10-6.8,12.7-11.5c0.6-1.1,1.7-1.9,2.8-2.3l7-2.2c1-0.3,1.7-1.2,1.7-2.3v-7.2c0-1-0.7-2-1.7-2.3
	l-4.3-1.4c-1.6-0.5-2.9-1.8-3.4-3.4c-0.4-1.3-0.9-2.6-1.6-3.8c-0.5-0.9-0.1-2.1,0.8-2.5c0.9-0.5,2.1-0.1,2.5,0.8
	c0.7,1.4,1.3,2.9,1.8,4.4C115.9,77.5,116.2,77.9,116.7,78z M20.2,81c0.3,1.5,2.2,1.8,3.4,1.6c0.7-0.1,2.8-0.6,2.7-2.9
	c-0.1-2.5-1.3-4-3.5-4.5C20.6,76.5,19.6,78.6,20.2,81z"/>
<linearGradient id="SVGID_5_" gradientUnits="userSpaceOnUse" x1="284.7144" y1="-252.15" x2="284.7144" y2="-202.6003" gradientTransform="matrix(1 0 0 -1 -242 -202)">
	<stop  offset="0" style="stop-color:#005AA7"/>
	<stop  offset="1" style="stop-color:#0093D3"/>
</linearGradient>
<path class="st4" d="M77.5,21.1c-2.2-2.5-5-4.3-8.1-5.2c-2.5-3.6-6-8.6-6.7-9.6c-1.2-1.7-3-2.8-5-3.2L43.8,0.8c-2.4-0.4-4.8,0-7,1
	c-0.7,0.3-1.5,0.7-2.4,1.1c-0.9,0.4-1.3,1.6-0.9,2.5C33.9,6.3,35,6.7,36,6.3c0.9-0.4,1.7-0.8,2.4-1.2c1.5-0.7,3.2-1,4.8-0.7
	l13.9,2.3c1,0.2,1.9,0.7,2.5,1.6c0.5,0.8,2.6,3.8,4.7,6.8c-1.8,0-3.5,0.3-5.1,0.8c-1-0.8-1.9-1.6-2.9-2.4l0,0l0,0l0,0
	c-0.4-0.3-0.8-0.7-1.2-1c-0.3-0.2-0.6-0.4-0.9-0.4l-5.5-0.9c-0.6-0.1-1.1,0.1-1.5,0.4l-8.8,7.7c-0.1,0.1-0.2,0.2-0.3,0.4
	c-1.2,1.8-1.1,4.8,0.3,6.4l0,0c0.9,1,2.1,1.6,3.4,1.7l7.2,0.5c3.2,0.2,7.5,2.3,9.3,4.6c0.3,0.4,0.7,1.1,0.7,1.7
	c-0.1,0.9-1.1,0.8-1.8,0.8c-1.8-0.1-3.6-0.3-5.4-0.4l0,0c-3.1-0.3-6.2-0.5-9.3-0.6c-2.6-0.1-5.2,0-7.8,0.2h0c-0.4,0-0.9,0-1.3,0.1
	c-2.3,0.1-4.7-0.4-6.7-1.6l-7.4-4.3c-0.6-0.4-1.3-0.7-2.1-0.9V11.3c0,0,5.4,0.4,5.4,0.4c0.1,0,0.3,0,0.4-0.1
	c1.2-0.3,2.8-0.8,4.9-1.7c1-0.4,1.4-1.5,1-2.4c-0.4-1-1.5-1.4-2.4-1c-1.7,0.7-3.1,1.2-4.1,1.5l-5.2-0.3V7.1c0-1.9-1.6-3.5-3.5-3.5
	H7.1c-1.9,0-3.5,1.6-3.5,3.5v23.6c0,1.9,1.6,3.5,3.5,3.5h6.5c1.6,0,3-1.1,3.3-2.6c0.1,0,7.7,4.5,7.7,4.5c2.7,1.5,5.7,2.3,8.8,2.1
	c4.8-0.2,9.5-0.1,14.3,0.2C50,45,56,49.6,63.1,50.1c4.6,0.3,9.2-1.3,12.7-4.3c3.5-3.1,5.6-7.4,5.9-12C82.1,29.1,80.5,24.6,77.5,21.1
	z M13.3,30.5h-6V7.4h6V30.5z M42,23.9c0.2,0,6.8,0.4,6.8,0.4c1.5-2.9,3.8-5.2,6.5-6.8L53,15.6l-4.1-0.7l-7.9,6.9
	C40.8,22.6,41,23.9,42,23.9z M62.6,34.9c0-0.4,0-0.7,0-1.1c0.4,0.2,0.9,0.5,1.3,0.7l0,0l0,0c0.5,0.3,1.1,0.6,1.6,0.9
	c0.9,0.6,1.8,1.4,1.5,2.6c-0.3,1.1-1.4,1.8-2.5,1.8c-1.1,0-2.3-0.4-3-1.2c-0.2-0.2-0.3-0.4-0.5-0.6c0.1,0.1,1.1-1.2,1.1-1.3
	C62.4,36.1,62.5,35.5,62.6,34.9z M73.3,43c2.8-2.4,4.4-5.8,4.7-9.5c0.2-3.7-1-7.2-3.4-10c-2.4-2.8-5.8-4.4-9.5-4.7
	c-5-0.3-9.8,2.1-12.5,6.2c2.2,0.7,4.4,1.8,6.1,3.1c0-0.4,0.1-0.8,0.2-1.2c0.6-2.3,2.7-3.3,5-3.3l0.1-1.7c0-0.4,0.3-0.6,0.7-0.6
	l1,0.1c0.4,0,0.6,0.3,0.6,0.7l-0.1,1.9c0.7,0.2,1.3,0.6,1.8,1l0-0.7c0-0.2,0.2-0.3,0.3-0.3l1.3,0.1c0.2,0,0.3,0.2,0.3,0.3l-0.3,5
	c0,0.2-0.2,0.3-0.3,0.3l-1-0.1c-0.1,0-0.3-0.1-0.3-0.3c-0.1-1.2-0.5-2.2-1-2.9c-0.6-0.7-1.4-1.1-2.5-1.2c-2.1-0.1-3.2,2.3-1.7,3.8
	c0.8,0.8,1.8,1.3,2.8,1.8c0.5,0.3,1,0.5,1.4,0.8c1.4,0.8,2.7,2,3.1,3.6c0.8,3.2-1.7,5.7-4.8,5.9l-0.2,2.2c0,0.4-0.3,0.6-0.7,0.6
	l-0.9-0.1c-0.4,0-0.6-0.3-0.6-0.7l0.1-2.2c-0.4-0.1-2.9-0.8-2.8-1.2l0,0.6c0,0.2-0.2,0.3-0.3,0.3L58.5,41c-0.2,0-0.3-0.2-0.3-0.3
	l0.1-1.7c-0.3,0-6.5-0.3-6.5-0.3c2.1,4.4,6.5,7.4,11.5,7.7C67,46.6,70.6,45.4,73.3,43z"/>
<rect x="46.5" y="81.6" class="st5" width="47.7" height="14"/>
<defs>
	<filter id="Adobe_OpacityMaskFilter" filterUnits="userSpaceOnUse" x="46.5" y="81.6" width="47.7" height="14">
		<feColorMatrix  type="matrix" values="1 0 0 0 0  0 1 0 0 0  0 0 1 0 0  0 0 0 1 0"/>
	</filter>
</defs>
<mask maskUnits="userSpaceOnUse" x="46.5" y="81.6" width="47.7" height="14" id="mask0_1_">
	<rect x="46.5" y="81.6" class="st6" width="47.7" height="14"/>
</mask>
<g class="st7">
	
		<linearGradient id="SVGID_6_" gradientUnits="userSpaceOnUse" x1="312.3692" y1="-297.5998" x2="312.3692" y2="-283.5998" gradientTransform="matrix(1 0 0 -1 -242 -202)">
		<stop  offset="0" style="stop-color:#005AA7"/>
		<stop  offset="1" style="stop-color:#0093D3"/>
	</linearGradient>
	<rect x="46.5" y="81.6" class="st8" width="47.7" height="14"/>
</g>
</svg>
