<svg id="Layer_1" data-name="Layer 1" xmlns="http://www.w3.org/2000/svg" viewBox="0 0 512 335.45"><defs><style>.cls-1{fill:#ff4b55;}.cls-2{fill:#ffe15a;}</style></defs><title>china</title><path class="cls-1" d="M503.17,423.73H8.83A8.83,8.83,0,0,1,0,414.9V97.1a8.82,8.82,0,0,1,8.83-8.82H503.17A8.82,8.82,0,0,1,512,97.1V414.9A8.83,8.83,0,0,1,503.17,423.73Z" transform="translate(0 -88.28)"/><path class="cls-2" d="M85,140.73,93.42,166l26.6.2a3.58,3.58,0,0,1,2.1,6.47l-21.39,15.8,8,25.36a3.58,3.58,0,0,1-5.5,4L81.61,202.33,60,217.8a3.59,3.59,0,0,1-5.5-4l8-25.36-21.4-15.8a3.59,3.59,0,0,1,2.1-6.47l26.6-.2,8.42-25.24A3.58,3.58,0,0,1,85,140.73Z" transform="translate(0 -88.28)"/><path class="cls-2" d="M181.6,147l6,8.23,9.74-3.05a1.38,1.38,0,0,1,1.53,2.12l-6,8.28,5.9,8.32A1.38,1.38,0,0,1,197.3,173l-9.72-3.11L181.5,178a1.38,1.38,0,0,1-2.48-.82L179,167l-9.67-3.26a1.38,1.38,0,0,1,0-2.61L179,158l.12-10.2A1.37,1.37,0,0,1,181.6,147Z" transform="translate(0 -88.28)"/><path class="cls-2" d="M144.86,122.42l10.14,1.1,4.33-9.24a1.38,1.38,0,0,1,2.59.3l2.09,10,10.12,1.26a1.38,1.38,0,0,1,.52,2.56l-8.86,5.07,1.93,10a1.37,1.37,0,0,1-2.27,1.28l-7.56-6.86L149,142.84a1.38,1.38,0,0,1-1.92-1.77l4.18-9.31-7.45-7A1.37,1.37,0,0,1,144.86,122.42Z" transform="translate(0 -88.28)"/><path class="cls-2" d="M160.9,221.31l-6,8.23-9.74-3a1.37,1.37,0,0,0-1.52,2.11l6,8.28-5.91,8.32a1.38,1.38,0,0,0,1.54,2.11l9.72-3.11L161,252.4a1.38,1.38,0,0,0,2.48-.82l0-10.2,9.67-3.26a1.38,1.38,0,0,0,0-2.61l-9.69-3.2-.11-10.2A1.37,1.37,0,0,0,160.9,221.31Z" transform="translate(0 -88.28)"/><path class="cls-2" d="M197.63,198.26l-10.14,1.11-4.33-9.25a1.37,1.37,0,0,0-2.59.31l-2.09,10-10.12,1.26a1.38,1.38,0,0,0-.52,2.56l8.86,5.07-1.93,10A1.37,1.37,0,0,0,177,220.6l7.56-6.85,8.93,4.93a1.38,1.38,0,0,0,1.92-1.77l-4.18-9.31,7.45-7A1.37,1.37,0,0,0,197.63,198.26Z" transform="translate(0 -88.28)"/></svg>