<svg id="Layer_1" data-name="Layer 1" xmlns="http://www.w3.org/2000/svg" viewBox="0 0 512 335.45"><defs><style>.cls-1{fill:#f5f5f5;}.cls-2{fill:#ff4b55;}.cls-3{fill:#41479b;}.cls-4{fill:#464655;}</style></defs><title>south-korea</title><path class="cls-1" d="M503.17,423.73H8.83A8.83,8.83,0,0,1,0,414.9V97.1a8.82,8.82,0,0,1,8.83-8.82H503.17A8.82,8.82,0,0,1,512,97.1V414.9A8.83,8.83,0,0,1,503.17,423.73Z" transform="translate(0 -88.28)"/><path class="cls-2" d="M305,182.53A88.29,88.29,0,0,0,182.64,207,44.11,44.11,0,1,0,256,256a44.11,44.11,0,1,1,73.4,48.94A88.26,88.26,0,0,0,305,182.53" transform="translate(0 -88.28)"/><path class="cls-3" d="M182.63,207A44.11,44.11,0,1,0,256,256a44.11,44.11,0,1,1,73.4,48.94A88.22,88.22,0,1,1,182.63,207" transform="translate(0 -88.28)"/><path class="cls-4" d="M349.92,149.19l16,24.1a4.42,4.42,0,0,1-1.22,6.11l-4.07,2.73a4.42,4.42,0,0,1-6.13-1.22l-16.05-24.1a4.42,4.42,0,0,1,1.22-6.12L343.8,148A4.4,4.4,0,0,1,349.92,149.19Z" transform="translate(0 -88.28)"/><path class="cls-4" d="M374.66,186.35l16.09,24.09a4.41,4.41,0,0,1-1.24,6.13l-4.08,2.7a4.42,4.42,0,0,1-6.11-1.23L363.24,194a4.41,4.41,0,0,1,1.22-6.12l4.08-2.73A4.42,4.42,0,0,1,374.66,186.35Z" transform="translate(0 -88.28)"/><path class="cls-4" d="M367.09,137.73,407.92,199a4.42,4.42,0,0,1-1.23,6.12l-4.1,2.73a4.42,4.42,0,0,1-6.12-1.22l-40.84-61.27a4.42,4.42,0,0,1,1.22-6.13l4.12-2.73A4.42,4.42,0,0,1,367.09,137.73Z" transform="translate(0 -88.28)"/><path class="cls-4" d="M384.21,126.29l16.07,24.15a4.41,4.41,0,0,1-1.24,6.13l-4.09,2.7a4.41,4.41,0,0,1-6.1-1.23l-16.08-24.12A4.4,4.4,0,0,1,374,127.8l4.1-2.74A4.41,4.41,0,0,1,384.21,126.29Z" transform="translate(0 -88.28)"/><path class="cls-4" d="M409,163.53l16,24.1a4.41,4.41,0,0,1-1.22,6.12l-4.07,2.72a4.41,4.41,0,0,1-6.13-1.22l-16-24.1a4.43,4.43,0,0,1,1.22-6.12l4.08-2.72A4.42,4.42,0,0,1,409,163.53Z" transform="translate(0 -88.28)"/><path class="cls-4" d="M132.72,294l40.82,61.21a4.4,4.4,0,0,1-1.22,6.12L168.24,364a4.43,4.43,0,0,1-6.13-1.22l-40.82-61.21a4.41,4.41,0,0,1,1.22-6.12l4.09-2.73A4.41,4.41,0,0,1,132.72,294Z" transform="translate(0 -88.28)"/><path class="cls-4" d="M115.58,305.43l16,24a4.41,4.41,0,0,1-1.22,6.12l-4.06,2.72a4.42,4.42,0,0,1-6.13-1.22l-16-24a4.42,4.42,0,0,1,1.22-6.12l4.09-2.73A4.41,4.41,0,0,1,115.58,305.43Z" transform="translate(0 -88.28)"/><path class="cls-4" d="M140.35,342.61l16.05,24.1a4.41,4.41,0,0,1-1.22,6.11l-4.08,2.73a4.42,4.42,0,0,1-6.13-1.22l-16.06-24.1a4.41,4.41,0,0,1,1.23-6.12l4.08-2.73A4.42,4.42,0,0,1,140.35,342.61Z" transform="translate(0 -88.28)"/><path class="cls-4" d="M98.44,316.88l40.8,61.21a4.42,4.42,0,0,1-1.22,6.12l-4.08,2.72a4.4,4.4,0,0,1-6.12-1.22L87,324.51a4.4,4.4,0,0,1,1.22-6.12l4.1-2.74A4.41,4.41,0,0,1,98.44,316.88Z" transform="translate(0 -88.28)"/><path class="cls-4" d="M121.29,210.44l40.82-61.25a4.43,4.43,0,0,1,6.13-1.23l4.08,2.73a4.4,4.4,0,0,1,1.22,6.12L132.71,218a4.4,4.4,0,0,1-6.11,1.23l-4.07-2.69A4.42,4.42,0,0,1,121.29,210.44Z" transform="translate(0 -88.28)"/><path class="cls-4" d="M104.15,199,145,137.74a4.41,4.41,0,0,1,6.13-1.22l4.08,2.72a4.42,4.42,0,0,1,1.22,6.12l-40.82,61.27a4.41,4.41,0,0,1-6.12,1.23l-4.09-2.73A4.41,4.41,0,0,1,104.15,199Z" transform="translate(0 -88.28)"/><path class="cls-4" d="M87,187.63l40.83-61.33a4.43,4.43,0,0,1,6.13-1.23L138,127.8a4.4,4.4,0,0,1,1.22,6.11l-40.8,61.34a4.41,4.41,0,0,1-6.12,1.23l-4.1-2.73A4.42,4.42,0,0,1,87,187.63Z" transform="translate(0 -88.28)"/><path class="cls-4" d="M338.49,355.19l16.05-24a4.42,4.42,0,0,1,6.13-1.21l4.06,2.72a4.41,4.41,0,0,1,1.22,6.12l-16,24A4.41,4.41,0,0,1,343.8,364l-4.09-2.73A4.41,4.41,0,0,1,338.49,355.19Z" transform="translate(0 -88.28)"/><path class="cls-4" d="M363.24,318.14,379.32,294a4.41,4.41,0,0,1,6.12-1.23l4.1,2.73a4.43,4.43,0,0,1,1.22,6.13l-16.11,24.11a4.42,4.42,0,0,1-6.11,1.23l-4.06-2.69A4.43,4.43,0,0,1,363.24,318.14Z" transform="translate(0 -88.28)"/><path class="cls-4" d="M355.63,366.7l16.05-24.1a4.42,4.42,0,0,1,6.13-1.22l4.1,2.73a4.41,4.41,0,0,1,1.22,6.12l-16,24.1a4.41,4.41,0,0,1-6.12,1.23l-4.12-2.74A4.4,4.4,0,0,1,355.63,366.7Z" transform="translate(0 -88.28)"/><path class="cls-4" d="M380.4,329.46l16.07-24a4.42,4.42,0,0,1,6.12-1.22l4.1,2.74a4.4,4.4,0,0,1,1.22,6.12l-16.06,24a4.42,4.42,0,0,1-6.12,1.22l-4.11-2.73A4.42,4.42,0,0,1,380.4,329.46Z" transform="translate(0 -88.28)"/><path class="cls-4" d="M372.77,378.08,388.85,354a4.41,4.41,0,0,1,6.1-1.23l4.09,2.7a4.41,4.41,0,0,1,1.23,6.13l-16.06,24.09a4.42,4.42,0,0,1-6.12,1.22l-4.1-2.73A4.43,4.43,0,0,1,372.77,378.08Z" transform="translate(0 -88.28)"/><path class="cls-4" d="M397.55,341l16-24.08a4.42,4.42,0,0,1,6.13-1.23l4.07,2.72A4.42,4.42,0,0,1,425,324.5L409,348.56a4.42,4.42,0,0,1-6.11,1.23l-4.06-2.69A4.42,4.42,0,0,1,397.55,341Z" transform="translate(0 -88.28)"/></svg>