<svg id="Layer_1" data-name="Layer 1" xmlns="http://www.w3.org/2000/svg" viewBox="0 0 512 335.45"><defs><style>.cls-1{fill:#f5f5f5;}.cls-2{fill:#ff4b55;}.cls-3{fill:#41479b;}</style></defs><title>united-states</title><path class="cls-1" d="M503.17,423.73H8.83A8.83,8.83,0,0,1,0,414.9V97.1a8.82,8.82,0,0,1,8.83-8.82H503.17A8.82,8.82,0,0,1,512,97.1V414.9A8.83,8.83,0,0,1,503.17,423.73Z" transform="translate(0 -88.28)"/><path class="cls-2" d="M512,114.08H0v-17a8.82,8.82,0,0,1,8.83-8.82H503.17A8.82,8.82,0,0,1,512,97.1v17Z" transform="translate(0 -88.28)"/><rect class="cls-2" y="103.22" width="512" height="25.8"/><rect class="cls-2" y="51.61" width="512" height="25.8"/><path class="cls-2" d="M512,268.9H8.83A8.82,8.82,0,0,1,0,260.08v-17H512Z" transform="translate(0 -88.28)"/><rect class="cls-2" y="258.05" width="512" height="25.8"/><path class="cls-2" d="M503.17,423.73H8.83A8.83,8.83,0,0,1,0,414.9v-17H512v17A8.83,8.83,0,0,1,503.17,423.73Z" transform="translate(0 -88.28)"/><rect class="cls-2" y="206.44" width="512" height="25.8"/><path class="cls-3" d="M229.52,88.28H8.83A8.82,8.82,0,0,0,0,97.1v163a8.83,8.83,0,0,0,8.83,8.83H229.52a8.83,8.83,0,0,0,8.83-8.83V97.1A8.83,8.83,0,0,0,229.52,88.28Z" transform="translate(0 -88.28)"/><path class="cls-1" d="M24.79,108.54l1.95,5.86,6.18,0a.84.84,0,0,1,.49,1.51l-5,3.67,1.86,5.89a.83.83,0,0,1-1.28.92l-5-3.59-5,3.6a.83.83,0,0,1-1.28-.93l1.86-5.89-5-3.67a.83.83,0,0,1,.49-1.5l6.18,0,1.95-5.86A.83.83,0,0,1,24.79,108.54Z" transform="translate(0 -88.28)"/><path class="cls-1" d="M24.79,139.19l1.95,5.86,6.18,0a.83.83,0,0,1,.49,1.5l-5,3.67,1.86,5.89a.83.83,0,0,1-1.28.93l-5-3.59-5,3.59a.83.83,0,0,1-1.28-.93l1.86-5.89-5-3.67a.83.83,0,0,1,.49-1.5l6.18,0,1.95-5.86A.83.83,0,0,1,24.79,139.19Z" transform="translate(0 -88.28)"/><path class="cls-1" d="M24.79,169.85l1.95,5.86,6.18,0a.83.83,0,0,1,.49,1.5l-5,3.67,1.86,5.89a.83.83,0,0,1-1.28.93l-5-3.59-5,3.59a.83.83,0,0,1-1.28-.92l1.86-5.89-5-3.67a.84.84,0,0,1,.49-1.51l6.18,0,1.95-5.86A.83.83,0,0,1,24.79,169.85Z" transform="translate(0 -88.28)"/><path class="cls-1" d="M24.79,200.5l1.95,5.86,6.18,0a.83.83,0,0,1,.49,1.5l-5,3.67,1.86,5.89a.83.83,0,0,1-1.28.93l-5-3.59-5,3.59a.83.83,0,0,1-1.28-.93l1.86-5.89-5-3.67a.83.83,0,0,1,.49-1.5l6.18,0,1.95-5.86A.83.83,0,0,1,24.79,200.5Z" transform="translate(0 -88.28)"/><path class="cls-1" d="M24.79,231.15,26.74,237l6.18.05a.83.83,0,0,1,.49,1.5l-5,3.67,1.86,5.89a.83.83,0,0,1-1.28.93l-5-3.59-5,3.59a.83.83,0,0,1-1.28-.93l1.86-5.88-5-3.67a.84.84,0,0,1,.49-1.51l6.18,0,1.95-5.86A.83.83,0,0,1,24.79,231.15Z" transform="translate(0 -88.28)"/><path class="cls-1" d="M48.58,123.57l2,5.86,6.17,0A.84.84,0,0,1,57.2,131l-5,3.67,1.87,5.89a.83.83,0,0,1-1.28.92l-5-3.59-5,3.59a.83.83,0,0,1-1.28-.92l1.86-5.89-5-3.67a.84.84,0,0,1,.49-1.51l6.18,0,2-5.86A.83.83,0,0,1,48.58,123.57Z" transform="translate(0 -88.28)"/><path class="cls-1" d="M48.58,154.22l2,5.86,6.17,0a.83.83,0,0,1,.49,1.5l-5,3.67,1.87,5.89a.84.84,0,0,1-1.28.93l-5-3.59-5,3.59a.84.84,0,0,1-1.28-.93l1.86-5.89-5-3.67a.83.83,0,0,1,.49-1.5l6.18,0,2-5.86A.83.83,0,0,1,48.58,154.22Z" transform="translate(0 -88.28)"/><path class="cls-1" d="M48.58,184.88l2,5.86,6.17,0a.84.84,0,0,1,.49,1.51l-5,3.67,1.87,5.88a.83.83,0,0,1-1.28.93l-5-3.59-5,3.59a.83.83,0,0,1-1.28-.93L43.35,196l-5-3.67a.83.83,0,0,1,.49-1.5l6.18,0,2-5.86A.83.83,0,0,1,48.58,184.88Z" transform="translate(0 -88.28)"/><path class="cls-1" d="M48.58,215.53l2,5.86,6.17.05a.83.83,0,0,1,.49,1.5l-5,3.67,1.87,5.89a.84.84,0,0,1-1.28.93l-5-3.6-5,3.6a.84.84,0,0,1-1.28-.93l1.86-5.89-5-3.67a.83.83,0,0,1,.49-1.5l6.18-.05,2-5.86A.83.83,0,0,1,48.58,215.53Z" transform="translate(0 -88.28)"/><path class="cls-1" d="M72.38,108.54l2,5.86,6.18,0A.83.83,0,0,1,81,116l-5,3.67,1.86,5.89a.83.83,0,0,1-1.28.92l-5-3.59-5,3.59a.83.83,0,0,1-1.28-.92l1.87-5.89-5-3.67a.84.84,0,0,1,.49-1.51l6.17,0,2-5.86A.83.83,0,0,1,72.38,108.54Z" transform="translate(0 -88.28)"/><path class="cls-1" d="M72.38,139.19l2,5.86,6.18,0a.83.83,0,0,1,.48,1.5l-5,3.67,1.86,5.89a.84.84,0,0,1-1.28.93l-5-3.59-5,3.59a.84.84,0,0,1-1.28-.93l1.87-5.89-5-3.67a.83.83,0,0,1,.49-1.5l6.17,0,2-5.86A.83.83,0,0,1,72.38,139.19Z" transform="translate(0 -88.28)"/><path class="cls-1" d="M72.38,169.85l2,5.86,6.18,0a.83.83,0,0,1,.48,1.5l-5,3.67,1.86,5.89a.83.83,0,0,1-1.28.93l-5-3.59-5,3.59a.83.83,0,0,1-1.28-.93l1.87-5.89-5-3.67a.83.83,0,0,1,.49-1.5l6.17,0,2-5.86A.83.83,0,0,1,72.38,169.85Z" transform="translate(0 -88.28)"/><path class="cls-1" d="M72.38,200.5l2,5.86,6.18,0a.83.83,0,0,1,.48,1.5l-5,3.67,1.86,5.89a.84.84,0,0,1-1.28.93l-5-3.6-5,3.6a.84.84,0,0,1-1.28-.93l1.87-5.89-5-3.67a.83.83,0,0,1,.49-1.5l6.17,0,2-5.86A.83.83,0,0,1,72.38,200.5Z" transform="translate(0 -88.28)"/><path class="cls-1" d="M72.38,231.15l2,5.86,6.18.05a.83.83,0,0,1,.48,1.5l-5,3.67,1.86,5.89a.83.83,0,0,1-1.28.93l-5-3.59-5,3.59a.83.83,0,0,1-1.28-.93l1.87-5.89-5-3.67a.83.83,0,0,1,.49-1.5l6.17-.05,2-5.86A.84.84,0,0,1,72.38,231.15Z" transform="translate(0 -88.28)"/><path class="cls-1" d="M96.17,123.57l2,5.86,6.18,0a.84.84,0,0,1,.49,1.51l-5,3.67,1.86,5.89a.83.83,0,0,1-1.28.92l-5-3.59-5,3.59a.82.82,0,0,1-1.27-.92l1.86-5.89L86,131a.84.84,0,0,1,.49-1.51l6.18,0,2-5.86A.83.83,0,0,1,96.17,123.57Z" transform="translate(0 -88.28)"/><path class="cls-1" d="M96.17,154.22l2,5.86,6.18,0a.83.83,0,0,1,.49,1.5l-5,3.67,1.86,5.89a.83.83,0,0,1-1.28.93l-5-3.59-5,3.59a.83.83,0,0,1-1.27-.93l1.86-5.89-5-3.67a.83.83,0,0,1,.49-1.5l6.18,0,2-5.86A.83.83,0,0,1,96.17,154.22Z" transform="translate(0 -88.28)"/><path class="cls-1" d="M96.17,184.88l2,5.86,6.18,0a.84.84,0,0,1,.49,1.51l-5,3.67,1.86,5.88a.83.83,0,0,1-1.28.93l-5-3.59-5,3.59a.83.83,0,0,1-1.27-.93L90.94,196l-5-3.67a.83.83,0,0,1,.49-1.5l6.18,0,2-5.86A.83.83,0,0,1,96.17,184.88Z" transform="translate(0 -88.28)"/><path class="cls-1" d="M96.17,215.53l2,5.86,6.18.05a.83.83,0,0,1,.49,1.5l-5,3.67,1.86,5.89a.83.83,0,0,1-1.28.93l-5-3.6-5,3.6a.83.83,0,0,1-1.27-.93l1.86-5.89-5-3.67a.83.83,0,0,1,.49-1.5l6.18-.05,2-5.86A.83.83,0,0,1,96.17,215.53Z" transform="translate(0 -88.28)"/><path class="cls-1" d="M120,108.54l2,5.86,6.17,0a.84.84,0,0,1,.49,1.51l-5,3.67,1.87,5.89a.83.83,0,0,1-1.28.92l-5-3.59-5,3.59a.83.83,0,0,1-1.28-.92l1.86-5.89-5-3.67a.84.84,0,0,1,.49-1.51l6.18,0,1.95-5.86A.83.83,0,0,1,120,108.54Z" transform="translate(0 -88.28)"/><path class="cls-1" d="M120,139.19l2,5.86,6.17,0a.83.83,0,0,1,.49,1.5l-5,3.67,1.87,5.89a.84.84,0,0,1-1.28.93l-5-3.59-5,3.59a.84.84,0,0,1-1.28-.93l1.86-5.89-5-3.67a.83.83,0,0,1,.49-1.5l6.18,0,1.95-5.86A.83.83,0,0,1,120,139.19Z" transform="translate(0 -88.28)"/><path class="cls-1" d="M120,169.85l2,5.86,6.17,0a.83.83,0,0,1,.49,1.5l-5,3.67,1.87,5.89a.83.83,0,0,1-1.28.93l-5-3.59-5,3.59a.83.83,0,0,1-1.28-.93l1.86-5.89-5-3.67a.83.83,0,0,1,.49-1.5l6.18,0,1.95-5.86A.83.83,0,0,1,120,169.85Z" transform="translate(0 -88.28)"/><path class="cls-1" d="M120,200.5l2,5.86,6.17,0a.83.83,0,0,1,.49,1.5l-5,3.67,1.87,5.89a.84.84,0,0,1-1.28.93l-5-3.6-5,3.6a.84.84,0,0,1-1.28-.93l1.86-5.89-5-3.67a.83.83,0,0,1,.49-1.5l6.18,0,1.95-5.86A.83.83,0,0,1,120,200.5Z" transform="translate(0 -88.28)"/><path class="cls-1" d="M120,231.15l2,5.86,6.17.05a.83.83,0,0,1,.49,1.5l-5,3.67,1.87,5.89a.83.83,0,0,1-1.28.93l-5-3.59-5,3.59a.83.83,0,0,1-1.28-.93l1.86-5.89-5-3.67a.83.83,0,0,1,.49-1.5l6.18-.05,1.95-5.86A.84.84,0,0,1,120,231.15Z" transform="translate(0 -88.28)"/><path class="cls-1" d="M143.76,123.57l2,5.86,6.18,0a.83.83,0,0,1,.48,1.51l-5,3.67,1.86,5.89a.83.83,0,0,1-1.28.92l-5-3.59-5,3.59a.83.83,0,0,1-1.28-.92l1.87-5.89-5-3.67a.84.84,0,0,1,.49-1.51l6.17,0,2-5.86A.83.83,0,0,1,143.76,123.57Z" transform="translate(0 -88.28)"/><path class="cls-1" d="M143.76,154.22l2,5.86,6.18,0a.83.83,0,0,1,.48,1.5l-5,3.67,1.86,5.89a.84.84,0,0,1-1.28.93l-5-3.59-5,3.59a.84.84,0,0,1-1.28-.93l1.87-5.89-5-3.67a.83.83,0,0,1,.49-1.5l6.17,0,2-5.86A.83.83,0,0,1,143.76,154.22Z" transform="translate(0 -88.28)"/><path class="cls-1" d="M143.76,184.88l2,5.86,6.18,0a.83.83,0,0,1,.48,1.51l-5,3.67,1.86,5.88a.83.83,0,0,1-1.28.93l-5-3.59-5,3.59a.83.83,0,0,1-1.28-.93l1.87-5.89-5-3.67a.83.83,0,0,1,.49-1.5l6.17,0,2-5.86A.83.83,0,0,1,143.76,184.88Z" transform="translate(0 -88.28)"/><path class="cls-1" d="M143.76,215.53l2,5.86,6.18.05a.83.83,0,0,1,.48,1.5l-5,3.67,1.86,5.89a.84.84,0,0,1-1.28.93l-5-3.6-5,3.6a.84.84,0,0,1-1.28-.93l1.87-5.89-5-3.67a.83.83,0,0,1,.49-1.5l6.17-.05,2-5.86A.83.83,0,0,1,143.76,215.53Z" transform="translate(0 -88.28)"/><path class="cls-1" d="M167.55,108.54l1.95,5.86,6.18,0a.84.84,0,0,1,.49,1.51l-5,3.67,1.86,5.89a.82.82,0,0,1-1.27.92l-5-3.59-5,3.59a.83.83,0,0,1-1.28-.92l1.86-5.89-5-3.67a.84.84,0,0,1,.49-1.51l6.18,0,1.95-5.86A.83.83,0,0,1,167.55,108.54Z" transform="translate(0 -88.28)"/><path class="cls-1" d="M167.55,139.19l1.95,5.86,6.18,0a.83.83,0,0,1,.49,1.5l-5,3.67,1.86,5.89a.83.83,0,0,1-1.27.93l-5-3.59-5,3.59a.83.83,0,0,1-1.28-.93l1.86-5.89-5-3.67a.83.83,0,0,1,.49-1.5l6.18,0,1.95-5.86A.83.83,0,0,1,167.55,139.19Z" transform="translate(0 -88.28)"/><path class="cls-1" d="M167.55,169.85l1.95,5.86,6.18,0a.83.83,0,0,1,.49,1.5l-5,3.67,1.86,5.89a.83.83,0,0,1-1.27.93l-5-3.59-5,3.59a.83.83,0,0,1-1.28-.93l1.86-5.89-5-3.67a.83.83,0,0,1,.49-1.5l6.18,0,1.95-5.86A.83.83,0,0,1,167.55,169.85Z" transform="translate(0 -88.28)"/><path class="cls-1" d="M167.55,200.5l1.95,5.86,6.18,0a.83.83,0,0,1,.49,1.5l-5,3.67,1.86,5.89a.83.83,0,0,1-1.27.93l-5-3.6-5,3.6a.83.83,0,0,1-1.28-.93l1.86-5.89-5-3.67a.83.83,0,0,1,.49-1.5l6.18,0L166,200.5A.83.83,0,0,1,167.55,200.5Z" transform="translate(0 -88.28)"/><path class="cls-1" d="M167.55,231.15,169.5,237l6.18.05a.83.83,0,0,1,.49,1.5l-5,3.67,1.86,5.89a.83.83,0,0,1-1.27.93l-5-3.59-5,3.59a.83.83,0,0,1-1.28-.93l1.86-5.89-5-3.67a.83.83,0,0,1,.49-1.5L164,237l1.95-5.86A.84.84,0,0,1,167.55,231.15Z" transform="translate(0 -88.28)"/><path class="cls-1" d="M191.34,123.57l2,5.86,6.17,0A.84.84,0,0,1,200,131l-5,3.67,1.87,5.89a.83.83,0,0,1-1.28.92l-5-3.59-5,3.59a.83.83,0,0,1-1.28-.92l1.86-5.89-5-3.67a.83.83,0,0,1,.48-1.51l6.18,0,1.95-5.86A.83.83,0,0,1,191.34,123.57Z" transform="translate(0 -88.28)"/><path class="cls-1" d="M191.34,154.22l2,5.86,6.17,0a.83.83,0,0,1,.49,1.5l-5,3.67,1.87,5.89a.84.84,0,0,1-1.28.93l-5-3.59-5,3.59a.84.84,0,0,1-1.28-.93l1.86-5.89-5-3.67a.83.83,0,0,1,.48-1.5l6.18,0,1.95-5.86A.83.83,0,0,1,191.34,154.22Z" transform="translate(0 -88.28)"/><path class="cls-1" d="M191.34,184.88l2,5.86,6.17,0a.84.84,0,0,1,.49,1.51L195,196l1.87,5.88a.83.83,0,0,1-1.28.93l-5-3.59-5,3.59a.83.83,0,0,1-1.28-.93l1.86-5.89-5-3.67a.83.83,0,0,1,.48-1.5l6.18,0,1.95-5.86A.83.83,0,0,1,191.34,184.88Z" transform="translate(0 -88.28)"/><path class="cls-1" d="M191.34,215.53l2,5.86,6.17.05a.83.83,0,0,1,.49,1.5l-5,3.67,1.87,5.89a.84.84,0,0,1-1.28.93l-5-3.6-5,3.6a.84.84,0,0,1-1.28-.93l1.86-5.89-5-3.67a.83.83,0,0,1,.48-1.5l6.18-.05,1.95-5.86A.83.83,0,0,1,191.34,215.53Z" transform="translate(0 -88.28)"/><path class="cls-1" d="M215.14,108.54l2,5.86,6.18,0a.84.84,0,0,1,.49,1.51l-5,3.67,1.86,5.89a.83.83,0,0,1-1.28.92l-5-3.59-5,3.59a.83.83,0,0,1-1.28-.92l1.87-5.89-5-3.67a.84.84,0,0,1,.49-1.51l6.17,0,2-5.86A.83.83,0,0,1,215.14,108.54Z" transform="translate(0 -88.28)"/><path class="cls-1" d="M215.14,139.19l2,5.86,6.18,0a.83.83,0,0,1,.49,1.5l-5,3.67,1.86,5.89a.84.84,0,0,1-1.28.93l-5-3.59-5,3.59a.84.84,0,0,1-1.28-.93l1.87-5.89-5-3.67a.83.83,0,0,1,.49-1.5l6.17,0,2-5.86A.83.83,0,0,1,215.14,139.19Z" transform="translate(0 -88.28)"/><path class="cls-1" d="M215.14,169.85l2,5.86,6.18,0a.83.83,0,0,1,.49,1.5l-5,3.67,1.86,5.89a.83.83,0,0,1-1.28.93l-5-3.59-5,3.59a.83.83,0,0,1-1.28-.93l1.87-5.89-5-3.67a.83.83,0,0,1,.49-1.5l6.17,0,2-5.86A.83.83,0,0,1,215.14,169.85Z" transform="translate(0 -88.28)"/><path class="cls-1" d="M215.14,200.5l2,5.86,6.18,0a.83.83,0,0,1,.49,1.5l-5,3.67,1.86,5.89a.84.84,0,0,1-1.28.93l-5-3.6-5,3.6a.84.84,0,0,1-1.28-.93l1.87-5.89-5-3.67a.83.83,0,0,1,.49-1.5l6.17,0,2-5.86A.83.83,0,0,1,215.14,200.5Z" transform="translate(0 -88.28)"/><path class="cls-1" d="M215.14,231.15l2,5.86,6.18.05a.83.83,0,0,1,.49,1.5l-5,3.67,1.86,5.89a.83.83,0,0,1-1.28.93l-5-3.59-5,3.59a.83.83,0,0,1-1.28-.93l1.87-5.89-5-3.67a.83.83,0,0,1,.49-1.5l6.17-.05,2-5.86A.84.84,0,0,1,215.14,231.15Z" transform="translate(0 -88.28)"/></svg>