<?xml version="1.0" encoding="utf-8"?>
<!-- Generator: Adobe Illustrator 23.0.0, SVG Export Plug-In . SVG Version: 6.00 Build 0)  -->
<svg version="1.1" id="Layer_1" xmlns="http://www.w3.org/2000/svg" xmlns:xlink="http://www.w3.org/1999/xlink" x="0px" y="0px"
	 viewBox="0 0 128 128" style="enable-background:new 0 0 128 128;" xml:space="preserve">
<style type="text/css">
	.st0{fill:#9FD9FF;}
	.st1{fill:#F93E7E;}
	.st2{fill:#FF4285;}
	.st3{fill:#A0D9FF;}
</style>
<path class="st0" d="M115.9,43.5v0.4c0,0.3,0,0.6,0,0.9L120,45c0-0.4,0-0.7,0-1.1v-0.4c0-1-0.1-2-0.2-3l-4.1,0.6
	C115.8,41.9,115.9,42.7,115.9,43.5z"/>
<path class="st0" d="M113.9,51.8l3.6,2c0.7-1.3,1.3-2.8,1.7-4.2l-4-1.1C115,49.6,114.5,50.8,113.9,51.8z"/>
<path class="st0" d="M113.1,34.3c0.7,1,1.3,2.1,1.7,3.2l3.9-1.5c-0.5-1.4-1.3-2.8-2.1-4.1L113.1,34.3z"/>
<path class="st0" d="M85.5,52.8c-1.7-2.7-2.6-5.7-2.6-8.9v-0.4h-4.1v0.4c0,3.9,1.1,7.8,3.2,11.1l3.9,6.1l3.5-2.2L85.5,52.8z"/>
<path class="st0" d="M88.5,65.2L92,63l2.6,4.1l-3.5,2.2L88.5,65.2z"/>
<path class="st1" d="M99.4,14.6c-15.9,0-28.9,13-28.9,28.9v0.4c0,5.5,1.6,10.9,4.5,15.5l9.9,15.6v7.7c0,5.7,4.6,10.3,10.3,10.3h8.3
	c5.7,0,10.3-4.6,10.3-10.3v-7.7l9.9-15.6c3-4.6,4.5-10,4.5-15.5v-0.4C128.3,27.6,115.3,14.6,99.4,14.6z M103.5,88.9h-8.3
	c-3.4,0-6.2-2.8-6.2-6.2v-6.2h20.6v6.2C109.7,86.1,106.9,88.9,103.5,88.9z M124.2,43.9c0,4.7-1.3,9.3-3.9,13.3l-9.6,15.2H88.1
	l-9.6-15.2c-2.5-4-3.9-8.6-3.9-13.3v-0.4c0-13.7,11.1-24.8,24.8-24.8c13.7,0,24.8,11.1,24.8,24.8V43.9z"/>
<path class="st0" d="M99.4,35.2c2.3,0,4.1,1.9,4.1,4.1h4.1c0-3.8-2.6-7-6.2-8V27h-4.1v4.1h-6.2v8.3c0,4.6,3.7,8.3,8.3,8.3
	c2.3,0,4.1,1.9,4.1,4.1v4.1h-4.1c-2.3,0-4.1-1.9-4.1-4.1h-4.1c0,3.8,2.6,7,6.2,8v4.4h4.1V60h6.2v-8.3c0-4.6-3.7-8.3-8.3-8.3
	c-2.3,0-4.1-1.9-4.1-4.1v-4.1H99.4z"/>
<path class="st2" d="M106.5,95.1c-1,0-2,0.3-2.9,0.9l-5.4,3.6c-3.7,2.5-8.1,3.8-12.6,3.8H62.2v-2.1c0-2.7-1.7-5-4.1-5.8V65.8
	c2.4-0.9,4.1-3.1,4.1-5.8c0-1.6-0.6-3-1.6-4.1c1-1.1,1.6-2.5,1.6-4.1s-0.6-3-1.6-4.1c1-1.1,1.6-2.5,1.6-4.1c0-1.6-0.6-3-1.6-4.1
	c1-1.1,1.6-2.5,1.6-4.1c0-1-0.3-2-0.7-2.8c2.8-1.3,4.8-4.2,4.8-7.5c0-2.3-1.9-4.1-4.1-4.1h-4.1V5.5l-1.8-1.8
	c-2.2-2.2-5.3-3.5-8.5-3.5c-3.2,0-6.3,1.3-8.5,3.5l-1.8,1.8v15.3h-3.1c-3.8,0-7.4,1.5-10.1,4.1h-3.3v-4.1H0.3v45.4h20.6v-4.1h3.6
	l5.2,2.6c2,1,4.2,1.5,6.5,1.5h1.2v29.3c-2.4,0.9-4.1,3.1-4.1,5.8v2.1H20.6c-0.9-2.4-3.1-4.1-5.8-4.1H6.5c-3.4,0-6.2,2.8-6.2,6.2
	v16.5c0,3.4,2.8,6.2,6.2,6.2h8.3c2.7,0,5-1.7,5.8-4.1h13.1c0.9,2.4,3.1,4.1,5.8,4.1H56c2.7,0,5-1.7,5.8-4.1h20.6
	c8.8,0,17-4.3,22-11.5l6.4-9.2c0.6-0.9,0.9-1.9,0.9-3C111.8,97.4,109.4,95.1,106.5,95.1z M41.6,33.2h4.5c-0.2,0.6-0.4,1.3-0.4,2.1
	c0,1.6,0.6,3,1.6,4.1c-1,1.1-1.6,2.5-1.6,4.1c0,1.6,0.6,3,1.6,4.1c-1,1.1-1.6,2.5-1.6,4.1s0.6,3,1.6,4.1c-1,1.1-1.6,2.5-1.6,4.1
	c0,3.4,2.8,6.2,6.2,6.2H54v28.9H41.6V33.2z M58.1,35.2c0,1.1-0.9,2.1-2.1,2.1h-4.1c-1.1,0-2.1-0.9-2.1-2.1c0-1.1,0.9-2.1,2.1-2.1H56
	C57.2,33.2,58.1,34.1,58.1,35.2z M58.1,43.5c0,1.1-0.9,2.1-2.1,2.1h-4.1c-1.1,0-2.1-0.9-2.1-2.1c0-1.1,0.9-2.1,2.1-2.1H56
	C57.2,41.4,58.1,42.4,58.1,43.5z M58.1,51.8c0,1.1-0.9,2.1-2.1,2.1h-4.1c-1.1,0-2.1-0.9-2.1-2.1c0-1.1,0.9-2.1,2.1-2.1H56
	C57.2,49.7,58.1,50.6,58.1,51.8z M56,62.1h-4.1c-1.1,0-2.1-0.9-2.1-2.1c0-1.1,0.9-2.1,2.1-2.1H56c1.1,0,2.1,0.9,2.1,2.1
	C58.1,61.2,57.2,62.1,56,62.1z M41.6,7.2l0.6-0.6c1.5-1.5,3.5-2.3,5.6-2.3c2.1,0,4.1,0.8,5.6,2.3L54,7.2v13.6H41.6V7.2z M16.8,62.1
	H4.4V24.9h12.4V62.1z M36.2,62.1c-1.6,0-3.2-0.4-4.6-1.1l-6.1-3h-4.6V29h5l1.1-1.1c2-2,4.5-3,7.3-3h27.9c0,2.3-1.9,4.1-4.1,4.1H56
	h-4.1H38.7l-1.1,1.1c-2,2-4.5,3-7.3,3h-5.2v4.1h5.2c2.6,0,5-0.7,7.2-1.9v26.7H36.2z M33.3,107.5v12.4H20.9v-12.4H33.3z M16.8,121.9
	c0,1.1-0.9,2.1-2.1,2.1H6.5c-1.1,0-2.1-0.9-2.1-2.1v-16.5c0-1.1,0.9-2.1,2.1-2.1h8.3c1.1,0,2.1,0.9,2.1,2.1V121.9z M58.1,121.9
	c0,1.1-0.9,2.1-2.1,2.1H39.5c-1.1,0-2.1-0.9-2.1-2.1v-20.6c0-1.1,0.9-2.1,2.1-2.1H56c1.1,0,2.1,0.9,2.1,2.1V121.9z M107.5,100.9
	l-6.4,9.2c-4.2,6.1-11.2,9.7-18.6,9.7H62.2v-12.4h23.5c5.3,0,10.5-1.6,14.9-4.5l5.4-3.6c0.2-0.1,0.4-0.2,0.6-0.2
	c0.6,0,1.1,0.5,1.1,1.1C107.6,100.5,107.6,100.8,107.5,100.9z"/>
<path class="st3" d="M41.6,111.6h4.1v4.1h-4.1V111.6z"/>
<path class="st3" d="M41.6,103.4h4.1v4.1h-4.1V103.4z"/>
<path class="st3" d="M74.6,111.6h4.1v4.1h-4.1V111.6z"/>
<path class="st3" d="M66.4,111.6h4.1v4.1h-4.1V111.6z"/>
<path class="st3" d="M45.7,70.3h4.1v4.1h-4.1V70.3z"/>
<path class="st3" d="M45.7,86.9h4.1V91h-4.1V86.9z"/>
<path class="st3" d="M45.7,78.6h4.1v4.1h-4.1V78.6z"/>
</svg>
