<?xml version="1.0" encoding="utf-8"?>
<!-- Generator: Adobe Illustrator 23.0.0, SVG Export Plug-In . SVG Version: 6.00 Build 0)  -->
<svg version="1.1" xmlns="http://www.w3.org/2000/svg" xmlns:xlink="http://www.w3.org/1999/xlink" x="0px" y="0px"
	 viewBox="0 0 128 128" style="enable-background:new 0 0 128 128;" xml:space="preserve">
<style type="text/css">
	.st0{display:none;}
	.st1{display:inline;fill:#9FD9FF;}
	.st2{display:inline;fill:#F93E7E;}
	.st3{display:inline;fill:#FF4285;}
	.st4{display:inline;fill:#A0D9FF;}
	.st5{display:inline;}
	.st6{clip-path:url(#SVGID_2_);}
	.st7{fill:#FF4285;}
	.st8{fill:#9FD9FF;}
</style>
<g id="Layer_1" class="st0">
	<path class="st1" d="M115.9,43.5v0.4c0,0.3,0,0.6,0,0.9L120,45c0-0.4,0-0.7,0-1.1v-0.4c0-1-0.1-2-0.2-3l-4.1,0.6
		C115.8,41.9,115.9,42.7,115.9,43.5z"/>
	<path class="st1" d="M113.9,51.8l3.6,2c0.7-1.3,1.3-2.8,1.7-4.2l-4-1.1C115,49.6,114.5,50.8,113.9,51.8z"/>
	<path class="st1" d="M113.1,34.3c0.7,1,1.3,2.1,1.7,3.2l3.9-1.5c-0.5-1.4-1.3-2.8-2.1-4.1L113.1,34.3z"/>
	<path class="st1" d="M85.5,52.8c-1.7-2.7-2.6-5.7-2.6-8.9v-0.4h-4.1v0.4c0,3.9,1.1,7.8,3.2,11.1l3.9,6.1l3.5-2.2L85.5,52.8z"/>
	<path class="st1" d="M88.5,65.2L92,63l2.6,4.1l-3.5,2.2L88.5,65.2z"/>
	<path class="st2" d="M99.4,14.6c-15.9,0-28.9,13-28.9,28.9v0.4c0,5.5,1.6,10.9,4.5,15.5l9.9,15.6v7.7c0,5.7,4.6,10.3,10.3,10.3h8.3
		c5.7,0,10.3-4.6,10.3-10.3v-7.7l9.9-15.6c3-4.6,4.5-10,4.5-15.5v-0.4C128.3,27.6,115.3,14.6,99.4,14.6z M103.5,88.9h-8.3
		c-3.4,0-6.2-2.8-6.2-6.2v-6.2h20.6v6.2C109.7,86.1,106.9,88.9,103.5,88.9z M124.2,43.9c0,4.7-1.3,9.3-3.9,13.3l-9.6,15.2H88.1
		l-9.6-15.2c-2.5-4-3.9-8.6-3.9-13.3v-0.4c0-13.7,11.1-24.8,24.8-24.8c13.7,0,24.8,11.1,24.8,24.8V43.9z"/>
	<path class="st1" d="M99.4,35.2c2.3,0,4.1,1.9,4.1,4.1h4.1c0-3.8-2.6-7-6.2-8V27h-4.1v4.1h-6.2v8.3c0,4.6,3.7,8.3,8.3,8.3
		c2.3,0,4.1,1.9,4.1,4.1v4.1h-4.1c-2.3,0-4.1-1.9-4.1-4.1h-4.1c0,3.8,2.6,7,6.2,8v4.4h4.1V60h6.2v-8.3c0-4.6-3.7-8.3-8.3-8.3
		c-2.3,0-4.1-1.9-4.1-4.1v-4.1H99.4z"/>
	<path class="st3" d="M106.5,95.1c-1,0-2,0.3-2.9,0.9l-5.4,3.6c-3.7,2.5-8.1,3.8-12.6,3.8H62.2v-2.1c0-2.7-1.7-5-4.1-5.8V65.8
		c2.4-0.9,4.1-3.1,4.1-5.8c0-1.6-0.6-3-1.6-4.1c1-1.1,1.6-2.5,1.6-4.1s-0.6-3-1.6-4.1c1-1.1,1.6-2.5,1.6-4.1c0-1.6-0.6-3-1.6-4.1
		c1-1.1,1.6-2.5,1.6-4.1c0-1-0.3-2-0.7-2.8c2.8-1.3,4.8-4.2,4.8-7.5c0-2.3-1.9-4.1-4.1-4.1h-4.1V5.5l-1.8-1.8
		c-2.2-2.2-5.3-3.5-8.5-3.5c-3.2,0-6.3,1.3-8.5,3.5l-1.8,1.8v15.3h-3.1c-3.8,0-7.4,1.5-10.1,4.1h-3.3v-4.1H0.3v45.4h20.6v-4.1h3.6
		l5.2,2.6c2,1,4.2,1.5,6.5,1.5h1.2v29.3c-2.4,0.9-4.1,3.1-4.1,5.8v2.1H20.6c-0.9-2.4-3.1-4.1-5.8-4.1H6.5c-3.4,0-6.2,2.8-6.2,6.2
		v16.5c0,3.4,2.8,6.2,6.2,6.2h8.3c2.7,0,5-1.7,5.8-4.1h13.1c0.9,2.4,3.1,4.1,5.8,4.1H56c2.7,0,5-1.7,5.8-4.1h20.6
		c8.8,0,17-4.3,22-11.5l6.4-9.2c0.6-0.9,0.9-1.9,0.9-3C111.8,97.4,109.4,95.1,106.5,95.1z M41.6,33.2h4.5c-0.2,0.6-0.4,1.3-0.4,2.1
		c0,1.6,0.6,3,1.6,4.1c-1,1.1-1.6,2.5-1.6,4.1c0,1.6,0.6,3,1.6,4.1c-1,1.1-1.6,2.5-1.6,4.1s0.6,3,1.6,4.1c-1,1.1-1.6,2.5-1.6,4.1
		c0,3.4,2.8,6.2,6.2,6.2H54v28.9H41.6V33.2z M58.1,35.2c0,1.1-0.9,2.1-2.1,2.1h-4.1c-1.1,0-2.1-0.9-2.1-2.1c0-1.1,0.9-2.1,2.1-2.1
		H56C57.2,33.2,58.1,34.1,58.1,35.2z M58.1,43.5c0,1.1-0.9,2.1-2.1,2.1h-4.1c-1.1,0-2.1-0.9-2.1-2.1c0-1.1,0.9-2.1,2.1-2.1H56
		C57.2,41.4,58.1,42.4,58.1,43.5z M58.1,51.8c0,1.1-0.9,2.1-2.1,2.1h-4.1c-1.1,0-2.1-0.9-2.1-2.1c0-1.1,0.9-2.1,2.1-2.1H56
		C57.2,49.7,58.1,50.6,58.1,51.8z M56,62.1h-4.1c-1.1,0-2.1-0.9-2.1-2.1c0-1.1,0.9-2.1,2.1-2.1H56c1.1,0,2.1,0.9,2.1,2.1
		C58.1,61.2,57.2,62.1,56,62.1z M41.6,7.2l0.6-0.6c1.5-1.5,3.5-2.3,5.6-2.3c2.1,0,4.1,0.8,5.6,2.3L54,7.2v13.6H41.6V7.2z M16.8,62.1
		H4.4V24.9h12.4V62.1z M36.2,62.1c-1.6,0-3.2-0.4-4.6-1.1l-6.1-3h-4.6V29h5l1.1-1.1c2-2,4.5-3,7.3-3h27.9c0,2.3-1.9,4.1-4.1,4.1H56
		h-4.1H38.7l-1.1,1.1c-2,2-4.5,3-7.3,3h-5.2v4.1h5.2c2.6,0,5-0.7,7.2-1.9v26.7H36.2z M33.3,107.5v12.4H20.9v-12.4H33.3z M16.8,121.9
		c0,1.1-0.9,2.1-2.1,2.1H6.5c-1.1,0-2.1-0.9-2.1-2.1v-16.5c0-1.1,0.9-2.1,2.1-2.1h8.3c1.1,0,2.1,0.9,2.1,2.1V121.9z M58.1,121.9
		c0,1.1-0.9,2.1-2.1,2.1H39.5c-1.1,0-2.1-0.9-2.1-2.1v-20.6c0-1.1,0.9-2.1,2.1-2.1H56c1.1,0,2.1,0.9,2.1,2.1V121.9z M107.5,100.9
		l-6.4,9.2c-4.2,6.1-11.2,9.7-18.6,9.7H62.2v-12.4h23.5c5.3,0,10.5-1.6,14.9-4.5l5.4-3.6c0.2-0.1,0.4-0.2,0.6-0.2
		c0.6,0,1.1,0.5,1.1,1.1C107.6,100.5,107.6,100.8,107.5,100.9z"/>
	<path class="st4" d="M41.6,111.6h4.1v4.1h-4.1V111.6z"/>
	<path class="st4" d="M41.6,103.4h4.1v4.1h-4.1V103.4z"/>
	<path class="st4" d="M74.6,111.6h4.1v4.1h-4.1V111.6z"/>
	<path class="st4" d="M66.4,111.6h4.1v4.1h-4.1V111.6z"/>
	<path class="st4" d="M45.7,70.3h4.1v4.1h-4.1V70.3z"/>
	<path class="st4" d="M45.7,86.9h4.1V91h-4.1V86.9z"/>
	<path class="st4" d="M45.7,78.6h4.1v4.1h-4.1V78.6z"/>
</g>
<g id="Layer_2" class="st0">
	<g class="st5">
		<defs>
			<rect id="SVGID_1_" x="4" width="119.5" height="128"/>
		</defs>
		<clipPath id="SVGID_2_">
			<use xlink:href="#SVGID_1_"  style="overflow:visible;"/>
		</clipPath>
		<g class="st6">
			<path class="st7" d="M72.3,34.1C72.3,15.3,57,0,38.2,0C19.3,0,4,15.3,4,34.1C4,53,19.3,68.3,38.2,68.3C57,68.3,72.3,53,72.3,34.1
				z M38.2,64C21.7,64,8.3,50.6,8.3,34.1c0-16.5,13.4-29.9,29.9-29.9C54.7,4.3,68,17.6,68,34.1C68,50.6,54.6,64,38.2,64z"/>
			<path class="st8" d="M38.2,6.4c-15.3,0-27.7,12.4-27.7,27.7c0,15.3,12.4,27.7,27.7,27.7s27.7-12.4,27.7-27.7
				C65.9,18.8,53.5,6.4,38.2,6.4z M38.2,57.6c-13,0-23.5-10.5-23.5-23.5s10.5-23.5,23.5-23.5s23.5,10.5,23.5,23.5
				C61.6,47.1,51.1,57.6,38.2,57.6z"/>
			<path class="st8" d="M44.6,19.6v-4.7h-4.3v4.3h-2.1v-4.3h-4.3v4.3h-6.4v4.3h4.3v21.3h-4.3v4.3h6.4v4.3h4.3v-4.3h2.1v4.3h4.3v-4.7
				c2.5-0.9,4.3-3.3,4.3-6v-4.3c0-1.6-0.6-3.1-1.7-4.3c1.1-1.2,1.7-2.7,1.7-4.3v-4.3C48.8,22.9,47.1,20.5,44.6,19.6z M36,23.5h6.4
				c1.2,0,2.1,1,2.1,2.1v4.3c0,1.2-1,2.1-2.1,2.1H36V23.5z M44.6,42.7c0,1.2-1,2.1-2.1,2.1H36v-8.5h6.4c1.2,0,2.1,1,2.1,2.1V42.7z"
				/>
			<path class="st7" d="M113.5,69.8c-12.9-12.9-33.6-13.4-47-1.1c-0.6-0.2-1.3-0.3-1.9-0.3H11.8c-3.1,0-5.6,2.5-5.6,5.6v43.5
				c0,3.5,2.9,6.4,6.4,6.4h51.2c2,0,3.9-1,5.1-2.6c15.1,11.3,36.5,8.3,47.8-6.8C126.9,100.8,125.5,81.8,113.5,69.8z M10.4,73.9
				c0-0.7,0.6-1.3,1.3-1.3h51c-1.1,1.3-2,2.8-2.9,4.3H10.4V73.9z M10.4,98.2h45.1c0.2,1.4,0.5,2.9,0.8,4.3H10.4V98.2z M55.2,93.9
				H10.4v-4.3h45.1C55.3,91,55.3,92.5,55.2,93.9z M10.4,106.7h47.3c0.6,1.5,1.3,2.9,2.1,4.3H10.4V106.7z M56.3,85.4H10.4v-4.3h47.3
				C57.2,82.5,56.7,83.9,56.3,85.4z M63.8,119.5H12.5c-1.2,0-2.1-1-2.1-2.1v-2.1h52.3c0.8,1,1.6,1.9,2.5,2.8
				c0.1,0.1,0.3,0.2,0.4,0.4C65.2,119.1,64.5,119.5,63.8,119.5z M110.5,115c-11.7,11.7-30.6,11.7-42.3,0
				c-11.7-11.7-11.7-30.6-0.1-42.3c11.7-11.7,30.6-11.7,42.3-0.1c5.6,5.6,8.8,13.2,8.8,21.2C119.3,101.8,116.1,109.4,110.5,115z"/>
			<path class="st8" d="M109,74.3c-10.8-10.8-28.3-10.9-39.2-0.1c-1.4,1.4-2.7,3-3.8,4.8h-0.1v0.2c-8.2,13-4.2,30.1,8.7,38.3
				c13,8.2,30.1,4.2,38.3-8.7C119.8,97.7,118.2,83.4,109,74.3z M106,110.5c-9.2,9.2-24,9.2-33.2,0c-9.2-9.2-9.2-24,0-33.2
				c9.2-9.2,24-9.2,33.2,0c0,0,0,0,0,0C115.1,86.5,115.1,101.3,106,110.5z"/>
			<path class="st8" d="M104.2,99.7c1.2-2.4,0.7-5.3-1.2-7.3l-3-3c-1.1-1.1-2.6-1.8-4.2-1.8c-0.1-1.6-0.7-3.1-1.8-4.2l-3-3
				c-1.9-1.9-4.8-2.4-7.3-1.2l-3.3-3.3l-3,3l3,3l-1.5,1.5l-3-3l-3,3l3,3l-4.5,4.5l3,3l3-3L92.4,106l-3,3l3,3l4.5-4.5l3,3l3-3l-3-3
				l1.5-1.5l3,3l3-3L104.2,99.7z M84.8,83.3c0.8-0.8,2.2-0.8,3,0c0,0,0,0,0,0l3,3c0.8,0.8,0.8,2.2,0,3c0,0,0,0,0,0l-4.5,4.5l-6-6
				L84.8,83.3z M93.9,92.4c0.8-0.8,2.2-0.8,3,0c0,0,0,0,0,0l3,3c0.8,0.8,0.8,2.2,0,3c0,0,0,0,0,0l-4.5,4.5l-6-6L93.9,92.4z"/>
		</g>
	</g>
</g>
<g id="Layer_3">
	<path class="st8" d="M94.8,75.7c-0.2,0-0.3,0-0.5-0.1c-1.1-0.3-1.7-1.4-1.4-2.5l2.1-8c0.3-1.1,1.4-1.7,2.5-1.4
		c1.1,0.3,1.7,1.4,1.4,2.5l-2.1,8C96.5,75.1,95.7,75.7,94.8,75.7z"/>
	<path class="st7" d="M127.6,46.5c-0.4-0.5-0.9-0.7-1.5-0.7H74c-0.8,0-1.6,0.6-1.8,1.4l-7.5,28.1c-0.2,0.6,0,1.2,0.3,1.6
		c0.4,0.5,0.9,0.7,1.5,0.7h33.3l-1.1,4.3H50.4l6.5-24.3H64c1,0,1.9-0.8,1.9-1.9S65,53.8,64,53.8h-8.5c-0.8,0-1.6,0.6-1.8,1.4
		l-7.5,28.1c-0.2,0.6,0,1.2,0.3,1.6c0.4,0.5,0.9,0.7,1.5,0.7h52.1c0.8,0,1.6-0.6,1.8-1.4l1.8-6.6h14.9c0.8,0,1.6-0.6,1.8-1.4
		l7.5-28.1C128.1,47.5,128,46.9,127.6,46.5z M75.5,49.5h22.2L97,51.9c-3,0.5-5.6,2.4-6.2,4.8c-1.2,4.5,3,6,5,6.8
		c3,1.1,2.8,1.5,2.6,2.3c-0.3,1-2.1,2.1-4.1,2.1c-1.2,0-1.9-0.4-2.2-0.7c-0.1-0.1-0.1-0.2-0.1-0.4c0.3-1-0.3-2-1.3-2.3
		c-1-0.3-2,0.3-2.3,1.3c-0.4,1.3-0.1,2.6,0.7,3.7c0.7,0.8,1.6,1.5,2.8,1.8l-0.7,2.6H68.9L75.5,49.5z M117.2,73.8H95l0.6-2.4
		c3.1-0.5,5.7-2.4,6.3-4.8c1.2-4.5-3-6-5-6.8c-3-1.1-2.8-1.5-2.6-2.3c0.3-1,2.1-2.1,4.1-2.1c1.2,0,1.9,0.4,2.2,0.7
		c0.1,0.1,0.1,0.2,0.1,0.4c-0.3,1,0.3,2,1.3,2.3c1,0.3,2-0.3,2.3-1.3c0.4-1.3,0.1-2.6-0.7-3.7c-0.7-0.9-1.7-1.5-2.9-1.9l0.7-2.6
		h22.2L117.2,73.8z"/>
	<path class="st8" d="M79.8,55.8c-1-0.3-2,0.3-2.3,1.3l-2.1,8c-0.3,1,0.3,2,1.3,2.3c0.2,0,0.3,0.1,0.5,0.1c0.8,0,1.6-0.6,1.8-1.4
		l2.1-8C81.4,57.1,80.8,56.1,79.8,55.8z"/>
	<path class="st8" d="M112.8,67.5c0.2,0,0.3,0.1,0.5,0.1c0.8,0,1.6-0.6,1.8-1.4l2.1-8c0.3-1-0.3-2-1.3-2.3c-1-0.3-2,0.3-2.3,1.3
		l-2.1,8C111.2,66.2,111.8,67.2,112.8,67.5z"/>
	<path class="st8" d="M59,65.2l-2.1,8c-0.3,1,0.3,2,1.3,2.3c0.2,0,0.3,0.1,0.5,0.1c0.8,0,1.6-0.6,1.8-1.4l2.1-8c0.3-1-0.3-2-1.3-2.3
		C60.3,63.6,59.3,64.2,59,65.2z"/>
	<path class="st8" d="M31.9,49.5H66c1,0,1.9-0.8,1.9-1.9S67,45.7,66,45.7H31.9c-1,0-1.9,0.8-1.9,1.9S30.9,49.5,31.9,49.5z"/>
	<path class="st8" d="M31.8,55.6c0-1-0.8-1.9-1.9-1.9H1.9c-1,0-1.9,0.8-1.9,1.9c0,1,0.8,1.9,1.9,1.9h28.1
		C31,57.5,31.8,56.7,31.8,55.6z"/>
	<path class="st7" d="M47.8,55.6c0-1-0.8-1.9-1.9-1.9h-8c-1,0-1.9,0.8-1.9,1.9c0,1,0.8,1.9,1.9,1.9h8C47,57.5,47.8,56.7,47.8,55.6z"
		/>
	<path class="st8" d="M44,61.8H15.9c-1,0-1.9,0.8-1.9,1.9c0,1,0.8,1.9,1.9,1.9H44c1,0,1.9-0.8,1.9-1.9C45.8,62.6,45,61.8,44,61.8z"
		/>
	<path class="st7" d="M44,69.8h-16c-1,0-1.9,0.8-1.9,1.9s0.8,1.9,1.9,1.9h16c1,0,1.9-0.8,1.9-1.9S45,69.8,44,69.8z"/>
</g>
</svg>
