<?xml version="1.0" encoding="utf-8"?>
<!-- Generator: Adobe Illustrator 23.0.0, SVG Export Plug-In . SVG Version: 6.00 Build 0)  -->
<svg version="1.1" xmlns="http://www.w3.org/2000/svg" xmlns:xlink="http://www.w3.org/1999/xlink" x="0px" y="0px"
	 viewBox="0 0 128 128" style="enable-background:new 0 0 128 128;" xml:space="preserve">
<style type="text/css">
	.st0{display:none;}
	.st1{display:inline;fill:#9FD9FF;}
	.st2{display:inline;fill:#F93E7E;}
	.st3{display:inline;fill:#FF4285;}
	.st4{display:inline;fill:#A0D9FF;}
	.st5{display:inline;}
	.st6{clip-path:url(#SVGID_2_);}
	.st7{fill:#FF4285;}
	.st8{fill:#9FD9FF;}
	.st9{display:inline;fill:#A3D4FF;}
	.st10{display:inline;fill:#F63F7D;}
	.st11{fill:#F93E7E;}
</style>
<g id="Layer_1" class="st0">
	<path class="st1" d="M115.9,43.5v0.4c0,0.3,0,0.6,0,0.9L120,45c0-0.4,0-0.7,0-1.1v-0.4c0-1-0.1-2-0.2-3l-4.1,0.6
		C115.8,41.9,115.9,42.7,115.9,43.5z"/>
	<path class="st1" d="M113.9,51.8l3.6,2c0.7-1.3,1.3-2.8,1.7-4.2l-4-1.1C115,49.6,114.5,50.8,113.9,51.8z"/>
	<path class="st1" d="M113.1,34.3c0.7,1,1.3,2.1,1.7,3.2l3.9-1.5c-0.5-1.4-1.3-2.8-2.1-4.1L113.1,34.3z"/>
	<path class="st1" d="M85.5,52.8c-1.7-2.7-2.6-5.7-2.6-8.9v-0.4h-4.1v0.4c0,3.9,1.1,7.8,3.2,11.1l3.9,6.1l3.5-2.2L85.5,52.8z"/>
	<path class="st1" d="M88.5,65.2L92,63l2.6,4.1l-3.5,2.2L88.5,65.2z"/>
	<path class="st2" d="M99.4,14.6c-15.9,0-28.9,13-28.9,28.9v0.4c0,5.5,1.6,10.9,4.5,15.5l9.9,15.6v7.7c0,5.7,4.6,10.3,10.3,10.3h8.3
		c5.7,0,10.3-4.6,10.3-10.3v-7.7l9.9-15.6c3-4.6,4.5-10,4.5-15.5v-0.4C128.3,27.6,115.3,14.6,99.4,14.6z M103.5,88.9h-8.3
		c-3.4,0-6.2-2.8-6.2-6.2v-6.2h20.6v6.2C109.7,86.1,106.9,88.9,103.5,88.9z M124.2,43.9c0,4.7-1.3,9.3-3.9,13.3l-9.6,15.2H88.1
		l-9.6-15.2c-2.5-4-3.9-8.6-3.9-13.3v-0.4c0-13.7,11.1-24.8,24.8-24.8c13.7,0,24.8,11.1,24.8,24.8V43.9z"/>
	<path class="st1" d="M99.4,35.2c2.3,0,4.1,1.9,4.1,4.1h4.1c0-3.8-2.6-7-6.2-8V27h-4.1v4.1h-6.2v8.3c0,4.6,3.7,8.3,8.3,8.3
		c2.3,0,4.1,1.9,4.1,4.1v4.1h-4.1c-2.3,0-4.1-1.9-4.1-4.1h-4.1c0,3.8,2.6,7,6.2,8v4.4h4.1V60h6.2v-8.3c0-4.6-3.7-8.3-8.3-8.3
		c-2.3,0-4.1-1.9-4.1-4.1v-4.1H99.4z"/>
	<path class="st3" d="M106.5,95.1c-1,0-2,0.3-2.9,0.9l-5.4,3.6c-3.7,2.5-8.1,3.8-12.6,3.8H62.2v-2.1c0-2.7-1.7-5-4.1-5.8V65.8
		c2.4-0.9,4.1-3.1,4.1-5.8c0-1.6-0.6-3-1.6-4.1c1-1.1,1.6-2.5,1.6-4.1s-0.6-3-1.6-4.1c1-1.1,1.6-2.5,1.6-4.1c0-1.6-0.6-3-1.6-4.1
		c1-1.1,1.6-2.5,1.6-4.1c0-1-0.3-2-0.7-2.8c2.8-1.3,4.8-4.2,4.8-7.5c0-2.3-1.9-4.1-4.1-4.1h-4.1V5.5l-1.8-1.8
		c-2.2-2.2-5.3-3.5-8.5-3.5c-3.2,0-6.3,1.3-8.5,3.5l-1.8,1.8v15.3h-3.1c-3.8,0-7.4,1.5-10.1,4.1h-3.3v-4.1H0.3v45.4h20.6v-4.1h3.6
		l5.2,2.6c2,1,4.2,1.5,6.5,1.5h1.2v29.3c-2.4,0.9-4.1,3.1-4.1,5.8v2.1H20.6c-0.9-2.4-3.1-4.1-5.8-4.1H6.5c-3.4,0-6.2,2.8-6.2,6.2
		v16.5c0,3.4,2.8,6.2,6.2,6.2h8.3c2.7,0,5-1.7,5.8-4.1h13.1c0.9,2.4,3.1,4.1,5.8,4.1H56c2.7,0,5-1.7,5.8-4.1h20.6
		c8.8,0,17-4.3,22-11.5l6.4-9.2c0.6-0.9,0.9-1.9,0.9-3C111.8,97.4,109.4,95.1,106.5,95.1z M41.6,33.2h4.5c-0.2,0.6-0.4,1.3-0.4,2.1
		c0,1.6,0.6,3,1.6,4.1c-1,1.1-1.6,2.5-1.6,4.1c0,1.6,0.6,3,1.6,4.1c-1,1.1-1.6,2.5-1.6,4.1s0.6,3,1.6,4.1c-1,1.1-1.6,2.5-1.6,4.1
		c0,3.4,2.8,6.2,6.2,6.2H54v28.9H41.6V33.2z M58.1,35.2c0,1.1-0.9,2.1-2.1,2.1h-4.1c-1.1,0-2.1-0.9-2.1-2.1c0-1.1,0.9-2.1,2.1-2.1
		H56C57.2,33.2,58.1,34.1,58.1,35.2z M58.1,43.5c0,1.1-0.9,2.1-2.1,2.1h-4.1c-1.1,0-2.1-0.9-2.1-2.1c0-1.1,0.9-2.1,2.1-2.1H56
		C57.2,41.4,58.1,42.4,58.1,43.5z M58.1,51.8c0,1.1-0.9,2.1-2.1,2.1h-4.1c-1.1,0-2.1-0.9-2.1-2.1c0-1.1,0.9-2.1,2.1-2.1H56
		C57.2,49.7,58.1,50.6,58.1,51.8z M56,62.1h-4.1c-1.1,0-2.1-0.9-2.1-2.1c0-1.1,0.9-2.1,2.1-2.1H56c1.1,0,2.1,0.9,2.1,2.1
		C58.1,61.2,57.2,62.1,56,62.1z M41.6,7.2l0.6-0.6c1.5-1.5,3.5-2.3,5.6-2.3c2.1,0,4.1,0.8,5.6,2.3L54,7.2v13.6H41.6V7.2z M16.8,62.1
		H4.4V24.9h12.4V62.1z M36.2,62.1c-1.6,0-3.2-0.4-4.6-1.1l-6.1-3h-4.6V29h5l1.1-1.1c2-2,4.5-3,7.3-3h27.9c0,2.3-1.9,4.1-4.1,4.1H56
		h-4.1H38.7l-1.1,1.1c-2,2-4.5,3-7.3,3h-5.2v4.1h5.2c2.6,0,5-0.7,7.2-1.9v26.7H36.2z M33.3,107.5v12.4H20.9v-12.4H33.3z M16.8,121.9
		c0,1.1-0.9,2.1-2.1,2.1H6.5c-1.1,0-2.1-0.9-2.1-2.1v-16.5c0-1.1,0.9-2.1,2.1-2.1h8.3c1.1,0,2.1,0.9,2.1,2.1V121.9z M58.1,121.9
		c0,1.1-0.9,2.1-2.1,2.1H39.5c-1.1,0-2.1-0.9-2.1-2.1v-20.6c0-1.1,0.9-2.1,2.1-2.1H56c1.1,0,2.1,0.9,2.1,2.1V121.9z M107.5,100.9
		l-6.4,9.2c-4.2,6.1-11.2,9.7-18.6,9.7H62.2v-12.4h23.5c5.3,0,10.5-1.6,14.9-4.5l5.4-3.6c0.2-0.1,0.4-0.2,0.6-0.2
		c0.6,0,1.1,0.5,1.1,1.1C107.6,100.5,107.6,100.8,107.5,100.9z"/>
	<path class="st4" d="M41.6,111.6h4.1v4.1h-4.1V111.6z"/>
	<path class="st4" d="M41.6,103.4h4.1v4.1h-4.1V103.4z"/>
	<path class="st4" d="M74.6,111.6h4.1v4.1h-4.1V111.6z"/>
	<path class="st4" d="M66.4,111.6h4.1v4.1h-4.1V111.6z"/>
	<path class="st4" d="M45.7,70.3h4.1v4.1h-4.1V70.3z"/>
	<path class="st4" d="M45.7,86.9h4.1V91h-4.1V86.9z"/>
	<path class="st4" d="M45.7,78.6h4.1v4.1h-4.1V78.6z"/>
</g>
<g id="Layer_2" class="st0">
	<g class="st5">
		<defs>
			<rect id="SVGID_1_" x="4" width="119.5" height="128"/>
		</defs>
		<clipPath id="SVGID_2_">
			<use xlink:href="#SVGID_1_"  style="overflow:visible;"/>
		</clipPath>
		<g class="st6">
			<path class="st7" d="M72.3,34.1C72.3,15.3,57,0,38.2,0C19.3,0,4,15.3,4,34.1C4,53,19.3,68.3,38.2,68.3C57,68.3,72.3,53,72.3,34.1
				z M38.2,64C21.7,64,8.3,50.6,8.3,34.1c0-16.5,13.4-29.9,29.9-29.9C54.7,4.3,68,17.6,68,34.1C68,50.6,54.6,64,38.2,64z"/>
			<path class="st8" d="M38.2,6.4c-15.3,0-27.7,12.4-27.7,27.7c0,15.3,12.4,27.7,27.7,27.7s27.7-12.4,27.7-27.7
				C65.9,18.8,53.5,6.4,38.2,6.4z M38.2,57.6c-13,0-23.5-10.5-23.5-23.5s10.5-23.5,23.5-23.5s23.5,10.5,23.5,23.5
				C61.6,47.1,51.1,57.6,38.2,57.6z"/>
			<path class="st8" d="M44.6,19.6v-4.7h-4.3v4.3h-2.1v-4.3h-4.3v4.3h-6.4v4.3h4.3v21.3h-4.3v4.3h6.4v4.3h4.3v-4.3h2.1v4.3h4.3v-4.7
				c2.5-0.9,4.3-3.3,4.3-6v-4.3c0-1.6-0.6-3.1-1.7-4.3c1.1-1.2,1.7-2.7,1.7-4.3v-4.3C48.8,22.9,47.1,20.5,44.6,19.6z M36,23.5h6.4
				c1.2,0,2.1,1,2.1,2.1v4.3c0,1.2-1,2.1-2.1,2.1H36V23.5z M44.6,42.7c0,1.2-1,2.1-2.1,2.1H36v-8.5h6.4c1.2,0,2.1,1,2.1,2.1V42.7z"
				/>
			<path class="st7" d="M113.5,69.8c-12.9-12.9-33.6-13.4-47-1.1c-0.6-0.2-1.3-0.3-1.9-0.3H11.8c-3.1,0-5.6,2.5-5.6,5.6v43.5
				c0,3.5,2.9,6.4,6.4,6.4h51.2c2,0,3.9-1,5.1-2.6c15.1,11.3,36.5,8.3,47.8-6.8C126.9,100.8,125.5,81.8,113.5,69.8z M10.4,73.9
				c0-0.7,0.6-1.3,1.3-1.3h51c-1.1,1.3-2,2.8-2.9,4.3H10.4V73.9z M10.4,98.2h45.1c0.2,1.4,0.5,2.9,0.8,4.3H10.4V98.2z M55.2,93.9
				H10.4v-4.3h45.1C55.3,91,55.3,92.5,55.2,93.9z M10.4,106.7h47.3c0.6,1.5,1.3,2.9,2.1,4.3H10.4V106.7z M56.3,85.4H10.4v-4.3h47.3
				C57.2,82.5,56.7,83.9,56.3,85.4z M63.8,119.5H12.5c-1.2,0-2.1-1-2.1-2.1v-2.1h52.3c0.8,1,1.6,1.9,2.5,2.8
				c0.1,0.1,0.3,0.2,0.4,0.4C65.2,119.1,64.5,119.5,63.8,119.5z M110.5,115c-11.7,11.7-30.6,11.7-42.3,0
				c-11.7-11.7-11.7-30.6-0.1-42.3c11.7-11.7,30.6-11.7,42.3-0.1c5.6,5.6,8.8,13.2,8.8,21.2C119.3,101.8,116.1,109.4,110.5,115z"/>
			<path class="st8" d="M109,74.3c-10.8-10.8-28.3-10.9-39.2-0.1c-1.4,1.4-2.7,3-3.8,4.8h-0.1v0.2c-8.2,13-4.2,30.1,8.7,38.3
				c13,8.2,30.1,4.2,38.3-8.7C119.8,97.7,118.2,83.4,109,74.3z M106,110.5c-9.2,9.2-24,9.2-33.2,0c-9.2-9.2-9.2-24,0-33.2
				c9.2-9.2,24-9.2,33.2,0c0,0,0,0,0,0C115.1,86.5,115.1,101.3,106,110.5z"/>
			<path class="st8" d="M104.2,99.7c1.2-2.4,0.7-5.3-1.2-7.3l-3-3c-1.1-1.1-2.6-1.8-4.2-1.8c-0.1-1.6-0.7-3.1-1.8-4.2l-3-3
				c-1.9-1.9-4.8-2.4-7.3-1.2l-3.3-3.3l-3,3l3,3l-1.5,1.5l-3-3l-3,3l3,3l-4.5,4.5l3,3l3-3L92.4,106l-3,3l3,3l4.5-4.5l3,3l3-3l-3-3
				l1.5-1.5l3,3l3-3L104.2,99.7z M84.8,83.3c0.8-0.8,2.2-0.8,3,0c0,0,0,0,0,0l3,3c0.8,0.8,0.8,2.2,0,3c0,0,0,0,0,0l-4.5,4.5l-6-6
				L84.8,83.3z M93.9,92.4c0.8-0.8,2.2-0.8,3,0c0,0,0,0,0,0l3,3c0.8,0.8,0.8,2.2,0,3c0,0,0,0,0,0l-4.5,4.5l-6-6L93.9,92.4z"/>
		</g>
	</g>
</g>
<g id="Layer_3" class="st0">
	<path class="st1" d="M94.8,75.7c-0.2,0-0.3,0-0.5-0.1c-1.1-0.3-1.7-1.4-1.4-2.5l2.1-8c0.3-1.1,1.4-1.7,2.5-1.4
		c1.1,0.3,1.7,1.4,1.4,2.5l-2.1,8C96.5,75.1,95.7,75.7,94.8,75.7z"/>
	<path class="st3" d="M127.6,46.5c-0.4-0.5-0.9-0.7-1.5-0.7H74c-0.8,0-1.6,0.6-1.8,1.4l-7.5,28.1c-0.2,0.6,0,1.2,0.3,1.6
		c0.4,0.5,0.9,0.7,1.5,0.7h33.3l-1.1,4.3H50.4l6.5-24.3H64c1,0,1.9-0.8,1.9-1.9S65,53.8,64,53.8h-8.5c-0.8,0-1.6,0.6-1.8,1.4
		l-7.5,28.1c-0.2,0.6,0,1.2,0.3,1.6c0.4,0.5,0.9,0.7,1.5,0.7h52.1c0.8,0,1.6-0.6,1.8-1.4l1.8-6.6h14.9c0.8,0,1.6-0.6,1.8-1.4
		l7.5-28.1C128.1,47.5,128,46.9,127.6,46.5z M75.5,49.5h22.2L97,51.9c-3,0.5-5.6,2.4-6.2,4.8c-1.2,4.5,3,6,5,6.8
		c3,1.1,2.8,1.5,2.6,2.3c-0.3,1-2.1,2.1-4.1,2.1c-1.2,0-1.9-0.4-2.2-0.7c-0.1-0.1-0.1-0.2-0.1-0.4c0.3-1-0.3-2-1.3-2.3
		c-1-0.3-2,0.3-2.3,1.3c-0.4,1.3-0.1,2.6,0.7,3.7c0.7,0.8,1.6,1.5,2.8,1.8l-0.7,2.6H68.9L75.5,49.5z M117.2,73.8H95l0.6-2.4
		c3.1-0.5,5.7-2.4,6.3-4.8c1.2-4.5-3-6-5-6.8c-3-1.1-2.8-1.5-2.6-2.3c0.3-1,2.1-2.1,4.1-2.1c1.2,0,1.9,0.4,2.2,0.7
		c0.1,0.1,0.1,0.2,0.1,0.4c-0.3,1,0.3,2,1.3,2.3c1,0.3,2-0.3,2.3-1.3c0.4-1.3,0.1-2.6-0.7-3.7c-0.7-0.9-1.7-1.5-2.9-1.9l0.7-2.6
		h22.2L117.2,73.8z"/>
	<path class="st1" d="M79.8,55.8c-1-0.3-2,0.3-2.3,1.3l-2.1,8c-0.3,1,0.3,2,1.3,2.3c0.2,0,0.3,0.1,0.5,0.1c0.8,0,1.6-0.6,1.8-1.4
		l2.1-8C81.4,57.1,80.8,56.1,79.8,55.8z"/>
	<path class="st1" d="M112.8,67.5c0.2,0,0.3,0.1,0.5,0.1c0.8,0,1.6-0.6,1.8-1.4l2.1-8c0.3-1-0.3-2-1.3-2.3c-1-0.3-2,0.3-2.3,1.3
		l-2.1,8C111.2,66.2,111.8,67.2,112.8,67.5z"/>
	<path class="st1" d="M59,65.2l-2.1,8c-0.3,1,0.3,2,1.3,2.3c0.2,0,0.3,0.1,0.5,0.1c0.8,0,1.6-0.6,1.8-1.4l2.1-8c0.3-1-0.3-2-1.3-2.3
		C60.3,63.6,59.3,64.2,59,65.2z"/>
	<path class="st1" d="M31.9,49.5H66c1,0,1.9-0.8,1.9-1.9S67,45.7,66,45.7H31.9c-1,0-1.9,0.8-1.9,1.9S30.9,49.5,31.9,49.5z"/>
	<path class="st1" d="M31.8,55.6c0-1-0.8-1.9-1.9-1.9H1.9c-1,0-1.9,0.8-1.9,1.9c0,1,0.8,1.9,1.9,1.9h28.1
		C31,57.5,31.8,56.7,31.8,55.6z"/>
	<path class="st3" d="M47.8,55.6c0-1-0.8-1.9-1.9-1.9h-8c-1,0-1.9,0.8-1.9,1.9c0,1,0.8,1.9,1.9,1.9h8C47,57.5,47.8,56.7,47.8,55.6z"
		/>
	<path class="st1" d="M44,61.8H15.9c-1,0-1.9,0.8-1.9,1.9c0,1,0.8,1.9,1.9,1.9H44c1,0,1.9-0.8,1.9-1.9C45.8,62.6,45,61.8,44,61.8z"
		/>
	<path class="st3" d="M44,69.8h-16c-1,0-1.9,0.8-1.9,1.9s0.8,1.9,1.9,1.9h16c1,0,1.9-0.8,1.9-1.9S45,69.8,44,69.8z"/>
</g>
<g id="Layer_4" class="st0">
	<path class="st9" d="M92.6,2.1h28.9c2.3,0,4.1,1.8,4.1,4.1v16.5c0,2.3-1.8,4.1-4.1,4.1h-6.2L98.8,37.2l1.8-10.3h-8
		c-2.3,0-4.1-1.8-4.1-4.1V6.2C88.5,3.9,90.3,2.1,92.6,2.1z"/>
	<path class="st10" d="M99,97.1c-1.7-5-5.9-8.7-11.1-9.6L74,85v-1.1c2.4-1.4,4.5-3.3,6.2-5.5h4.2c3.4,0,6.2-2.8,6.2-6.2V47.5
		c0-14.8-12-26.8-26.8-26.8c-14.8,0-26.8,12-26.8,26.8v14.5c0,4,2.8,7.3,6.6,8.1c1.2,5.9,4.9,11,9.9,13.9V85l-13.8,2.5
		c-5.2,0.9-9.5,4.6-11.1,9.6l-0.8,2.5l-7-7c-0.8-0.8-0.8-2.1,0-2.9l8.2-8.2L13.5,66.2l-9.2,9.2C1.5,78.2,0,81.8,0,85.6
		c0,3.9,1.5,7.5,4.2,10.2l27.9,27.9c2.7,2.7,6.4,4.2,10.2,4.2c3.9,0,7.5-1.5,10.2-4.2l10.1-9.2l-3.1-3.1h44.3L99,97.1z M63.7,92
		l-6.2-6.2v-0.1c2,0.6,4,1,6.2,1s4.2-0.3,6.2-1v0.1L63.7,92z M84.4,74.3h-1.7c0.6-1.4,1.1-2.8,1.3-4.3c0.9-0.2,1.7-0.5,2.5-1v3.2
		C86.4,73.4,85.5,74.3,84.4,74.3z M84.4,58.4c1.2,0.7,2.1,2,2.1,3.6c0,1.5-0.8,2.8-2.1,3.6V58.4z M41,61.9c0-1.5,0.8-2.8,2.1-3.6
		v7.1C41.8,64.8,41,63.5,41,61.9z M43.1,51.6V54c-0.7,0.2-1.4,0.5-2.1,0.9v-7.3C41,35,51.2,24.8,63.7,24.8S86.4,35,86.4,47.5v7.3
		c-0.6-0.4-1.3-0.7-2.1-0.9v-2.4h-2.1c-6.1,0-11.8-2.4-16.2-6.7l-2.4-2.4l-2.4,2.4c-4.3,4.3-10.1,6.7-16.2,6.7H43.1z M47.2,66.1
		V55.7c6.2-0.5,12-3,16.5-7.3c4.5,4.3,10.3,6.9,16.5,7.3v10.4c0,3-0.8,5.8-2.2,8.3H63.7v4.1h10.9c-2.9,2.6-6.7,4.1-10.9,4.1
		C54.6,82.6,47.2,75.2,47.2,66.1z M22.9,81.5l-2.2,2.2l-9.5-9.5l2.2-2.2L22.9,81.5z M42.4,123.9c-2.8,0-5.3-1.1-7.3-3L7.1,92.9
		c-1.9-1.9-3-4.5-3-7.3c0-2.8,1.1-5.4,3-7.3l1.1-1.1l9.5,9.5l-0.1,0.1c-2.4,2.4-2.4,6.3,0,8.8l14.8,14.8c1.2,1.2,2.7,1.8,4.4,1.8
		c1.7,0,3.2-0.6,4.3-1.7l0.2-0.1l9.5,9.5l-1.2,1.1C47.7,122.8,45.1,123.9,42.4,123.9z M53.9,117l-9.5-9.5l2.7-2.5l9.5,9.5L53.9,117z
		 M55.3,107.4l-8-8l-8.9,8.1c-0.8,0.8-2.1,0.8-2.9,0l-4.5-4.5l1.5-4.4c1.2-3.6,4.2-6.2,7.9-6.9l14.4-2.6l9,9l9-9l14.4,2.6
		c3.7,0.7,6.8,3.3,7.9,6.9l3,8.9H55.3z"/>
	<path class="st10" d="M121.5,0H92.6c-3.4,0-6.2,2.8-6.2,6.2v16.5c0,3.4,2.8,6.2,6.2,6.2h5.5L96,41.4l19.9-12.5h5.6
		c3.4,0,6.2-2.8,6.2-6.2V6.2C127.7,2.8,124.9,0,121.5,0z M123.6,22.7c0,1.1-0.9,2.1-2.1,2.1h-6.8L101.6,33l1.4-8.2H92.6
		c-1.1,0-2.1-0.9-2.1-2.1V6.2c0-1.1,0.9-2.1,2.1-2.1h28.9c1.1,0,2.1,0.9,2.1,2.1V22.7z"/>
	<path class="st10" d="M119.4,8.3H94.7v4.1h24.8V8.3z"/>
	<path class="st10" d="M111.2,16.5H94.7v4.1h16.5V16.5z"/>
	<path class="st10" d="M119.4,16.5h-4.1v4.1h4.1V16.5z"/>
	<path class="st9" d="M19.3,51.3l-2.1-3.5l-5.6,3.4c5.9-23.8,27.3-40.8,52.1-40.8c5.4,0,10.8,0.8,15.9,2.4l1.2-3.9
		c-5.5-1.7-11.3-2.6-17.1-2.6c-27,0-50.2,18.7-56.3,44.7l-3.9-6.5L0,46.5l7.3,12.1L19.3,51.3z"/>
	<path class="st9" d="M107.4,50.5l3.5,2.1l3.6-6c1.9,5.6,2.9,11.4,2.9,17.3c0,12.3-4.3,24.3-12,33.8l3.2,2.6
		c8.3-10.2,12.9-23.2,12.9-36.4c0-6.3-1-12.5-3-18.4l6.1,3.6l2.1-3.5l-12.1-7.3L107.4,50.5z"/>
</g>
<g id="Layer_5" class="st0">
	<path class="st1" d="M90.2,40.7l2.7-2.7l4.1,4.1l6.2-6.2c1.3-1.3,2.1-3.1,2.1-5c0-1.9-0.7-3.7-2.1-5l-1.2-1.2
		c-0.5-0.5-0.9-1.3-0.9-2.1c0-0.8,0.3-1.5,0.9-2.1l3.3-3.3l3.3,3.3c0.6,0.6,0.9,1.3,0.9,2.1c0,0.8-0.3,1.5-0.9,2.1l-2.7,2.7l2.9,2.9
		l2.7-2.7c1.3-1.3,2.1-3.1,2.1-5c0-1.5-0.5-2.9-1.3-4l2.8-2.8l-2.9-2.9l-2.7,2.7l-4.1-4.1l-6.2,6.2c-1.3,1.3-2.1,3.1-2.1,5
		c0,1.9,0.7,3.7,2.1,5l1.2,1.2c0.6,0.6,0.9,1.3,0.9,2.1c0,0.8-0.3,1.5-0.9,2.1L97,36.3L93.8,33c-0.5-0.5-0.9-1.3-0.9-2.1
		c0-0.8,0.3-1.5,0.9-2.1l2.7-2.7l-2.9-2.9L90.8,26c-1.3,1.3-2.1,3.1-2.1,5c0,1.5,0.5,2.9,1.3,4l-2.8,2.8L90.2,40.7z"/>
	<path class="st1" d="M113.5,37.2c0,1.1-0.9,2.1-2.1,2.1s-2.1-0.9-2.1-2.1c0-1.1,0.9-2.1,2.1-2.1S113.5,36,113.5,37.2z"/>
	<path class="st1" d="M92.9,16.5c0,1.1-0.9,2.1-2.1,2.1s-2.1-0.9-2.1-2.1s0.9-2.1,2.1-2.1S92.9,15.4,92.9,16.5z"/>
	<path class="st2" d="M109.1,52.5C120,49.1,128,38.9,128,26.8C128,12,116,0,101.2,0c-12,0-22.3,8-25.6,18.9L60.1,3.5
		C57.8,1.3,54.8,0,51.6,0s-6.2,1.3-8.5,3.5L3.5,43.1C1.3,45.3,0,48.4,0,51.6s1.3,6.3,3.5,8.5l64.4,64.4c2.3,2.3,5.3,3.5,8.5,3.5
		s6.2-1.3,8.5-3.5l39.6-39.6c2.2-2.2,3.5-5.3,3.5-8.5s-1.3-6.3-3.5-8.5L109.1,52.5z M101.2,4.1c12.5,0,22.7,10.2,22.7,22.7
		s-10.2,22.7-22.7,22.7c-12.5,0-22.7-10.2-22.7-22.7S88.6,4.1,101.2,4.1z M85.1,48.3L76.4,57L42.1,22.7l9.5-9.5l25.6,25.6
		C79,42.5,81.8,45.8,85.1,48.3z M121.6,82L82,121.6c-3,3-8.2,3-11.2,0L6.4,57.2c-1.5-1.5-2.3-3.5-2.3-5.6S5,47.5,6.4,46L46,6.4
		c3-3,8.2-3,11.2,0l17.3,17.3c-0.1,1-0.2,2-0.2,3.1c0,1.2,0.1,2.4,0.3,3.5l-23-23L36.3,22.7l40.1,40.1l12.2-12.2
		c3.7,2,8,3.1,12.5,3.1c1,0,2.1-0.1,3.1-0.2l17.3,17.3c1.5,1.5,2.3,3.5,2.3,5.6C123.9,78.5,123,80.5,121.6,82z"/>
	<path class="st2" d="M42.5,86.7l33.9,33.9l17.4-17.4L59.9,69.3L42.5,86.7z M59.9,75.2l3.3,3.3L51.6,90l-3.3-3.3L59.9,75.2z
		 M64,102.4l-3.3-3.3l11.5-11.5l3.3,3.3L64,102.4z M78.5,93.8l3.3,3.3l-11.5,11.5l-3.3-3.3L78.5,93.8z M57.8,96.2l-3.3-3.3
		l11.5-11.5l3.3,3.3L57.8,96.2z M76.4,114.8l-3.3-3.3L84.6,100l3.3,3.3L76.4,114.8z"/>
	<path class="st1" d="M6.8,52.2l8.3-8.3l2.9,2.9l-8.3,8.3L6.8,52.2z"/>
	<path class="st1" d="M13,58.4l8.3-8.3l2.9,2.9l-8.3,8.3L13,58.4z"/>
	<path class="st1" d="M19.2,64.6l8.3-8.3l2.9,2.9l-8.3,8.3L19.2,64.6z"/>
	<path class="st1" d="M25.4,70.8l8.3-8.3l2.9,2.9l-8.3,8.3L25.4,70.8z"/>
	<path class="st1" d="M29.5,28.3l2.9-2.9l24.8,24.8l-2.9,2.9L29.5,28.3z"/>
	<path class="st1" d="M23.3,34.5l2.9-2.9L51,56.3l-2.9,2.9L23.3,34.5z"/>
	<path class="st1" d="M111.5,68.1c-4.6,0-8.3,3.7-8.3,8.3c0,4.6,3.7,8.3,8.3,8.3c4.6,0,8.3-3.7,8.3-8.3
		C119.7,71.8,116,68.1,111.5,68.1z M111.5,80.5c-2.3,0-4.1-1.9-4.1-4.1s1.9-4.1,4.1-4.1s4.1,1.9,4.1,4.1S113.8,80.5,111.5,80.5z"/>
	<path class="st1" d="M89.4,55.1l2.9-2.9l12.4,12.4l-2.9,2.9L89.4,55.1z"/>
	<path class="st1" d="M83.2,61.3l2.9-2.9l12.4,12.4l-2.9,2.9L83.2,61.3z"/>
	<path class="st1" d="M77,67.5l2.9-2.9l26.8,26.8l-2.9,2.9L77,67.5z"/>
	<path class="st1" d="M70.8,73.7l2.9-2.9l26.8,26.8l-2.9,2.9L70.8,73.7z"/>
</g>
<g id="Layer_6" class="st0">
	<path class="st3" d="M95.9,49.6L93,52.8l13.1,12c3.1,2.8,4.8,6.8,4.8,11V128h4.3V75.8c0-5.4-2.3-10.5-6.2-14.2L95.9,49.6z"/>
	<path class="st3" d="M78.9,0H23.4c-5.9,0-10.7,4.8-10.7,10.7v106.7c0,5.9,4.8,10.7,10.7,10.7h53.3v-3.8c0-9.6,2.8-19,8.2-27
		c0.6-0.8,0.5-2-0.3-2.7L69.7,79.6c-1.4-1.4-2.1-3.3-2-5.2c0.1-2,1-3.8,2.5-5c2.9-2.2,7-1.9,9.6,0.7l21.1,21.1l3-3L89.6,73.8V10.7
		C89.6,4.8,84.8,0,78.9,0z M85.3,69.5L82.8,67c-4.1-4.2-10.7-4.6-15.3-1c-2.4,2-3.9,4.9-4.1,8.1c-0.2,3.2,1,6.2,3.3,8.5l13.7,13.7
		c-5.1,8.2-7.9,17.7-7.9,27.4H23.4c-3.5,0-6.4-2.9-6.4-6.4v-6.4h53.3v-4.3H17V17.1h68.3V69.5z M85.3,12.8H17v-2.1
		c0-3.5,2.9-6.4,6.4-6.4h55.5c3.5,0,6.4,2.9,6.4,6.4V12.8z"/>
	<path class="st4" d="M25.6,38.4h8.5c2.4,0,4.3-1.9,4.3-4.3v-8.5c0-2.4-1.9-4.3-4.3-4.3h-8.5c-2.4,0-4.3,1.9-4.3,4.3v8.5
		C21.3,36.5,23.2,38.4,25.6,38.4z M25.6,25.6h8.5v8.5h-8.5V25.6z"/>
	<path class="st4" d="M46.9,38.4h8.5c2.4,0,4.3-1.9,4.3-4.3v-8.5c0-2.4-1.9-4.3-4.3-4.3h-8.5c-2.4,0-4.3,1.9-4.3,4.3v8.5
		C42.6,36.5,44.5,38.4,46.9,38.4z M46.9,25.6h8.5v8.5h-8.5V25.6z"/>
	<path class="st4" d="M68.2,38.4h8.5c2.4,0,4.3-1.9,4.3-4.3v-8.5c0-2.4-1.9-4.3-4.3-4.3h-8.5c-2.4,0-4.3,1.9-4.3,4.3v8.5
		C64,36.5,65.9,38.4,68.2,38.4z M68.2,25.6h8.5v8.5h-8.5V25.6z"/>
	<path class="st4" d="M25.6,59.7h8.5c2.4,0,4.3-1.9,4.3-4.3v-8.5c0-2.4-1.9-4.3-4.3-4.3h-8.5c-2.4,0-4.3,1.9-4.3,4.3v8.5
		C21.3,57.8,23.2,59.7,25.6,59.7z M25.6,46.9h8.5v8.5h-8.5V46.9z"/>
	<path class="st4" d="M25.6,81.1h8.5c2.4,0,4.3-1.9,4.3-4.3v-8.5c0-2.4-1.9-4.3-4.3-4.3h-8.5c-2.4,0-4.3,1.9-4.3,4.3v8.5
		C21.3,79.2,23.2,81.1,25.6,81.1z M25.6,68.3h8.5v8.5h-8.5V68.3z"/>
	<path class="st4" d="M46.9,59.7h8.5c2.4,0,4.3-1.9,4.3-4.3v-8.5c0-2.4-1.9-4.3-4.3-4.3h-8.5c-2.4,0-4.3,1.9-4.3,4.3v8.5
		C42.6,57.8,44.5,59.7,46.9,59.7z M46.9,46.9h8.5v8.5h-8.5V46.9z"/>
	<path class="st4" d="M68.2,59.7h8.5c2.4,0,4.3-1.9,4.3-4.3v-8.5c0-2.4-1.9-4.3-4.3-4.3h-8.5c-2.4,0-4.3,1.9-4.3,4.3v8.5
		C64,57.8,65.9,59.7,68.2,59.7z M68.2,46.9h8.5v8.5h-8.5V46.9z"/>
	<path class="st4" d="M46.9,81.1h8.5c2.4,0,4.3-1.9,4.3-4.3v-8.5c0-2.4-1.9-4.3-4.3-4.3h-8.5c-2.4,0-4.3,1.9-4.3,4.3v8.5
		C42.6,79.2,44.5,81.1,46.9,81.1z M46.9,68.3h8.5v8.5h-8.5V68.3z"/>
	<path class="st4" d="M25.6,102.4h8.5c2.4,0,4.3-1.9,4.3-4.3v-8.5c0-2.4-1.9-4.3-4.3-4.3h-8.5c-2.4,0-4.3,1.9-4.3,4.3v8.5
		C21.3,100.5,23.2,102.4,25.6,102.4z M25.6,89.6h8.5v8.5h-8.5V89.6z"/>
	<path class="st4" d="M46.9,102.4h8.5c2.4,0,4.3-1.9,4.3-4.3v-8.5c0-2.4-1.9-4.3-4.3-4.3h-8.5c-2.4,0-4.3,1.9-4.3,4.3v8.5
		C42.6,100.5,44.5,102.4,46.9,102.4z M46.9,89.6h8.5v8.5h-8.5V89.6z"/>
	<path class="st4" d="M49,115.2h4.3v4.3H49V115.2z"/>
</g>
<g id="Layer_7">
	<path class="st11" d="M118.1,16H53.3c-1.6,0-3.2-0.6-4.3-1.8l-3.3-3.3C43.8,9,41.3,8,38.6,8H9.9C4.4,8,0,12.5,0,17.9v92.2
		c0,5.5,4.4,9.9,9.9,9.9h108.2c5.5,0,9.9-4.4,9.9-9.9V25.9C128,20.5,123.6,16,118.1,16z M124.3,28.2c-1.7-1.3-3.8-2.1-6.1-2.1h-2
		c-1,0-1.9,0.8-1.9,1.9c0,1,0.8,1.9,1.9,1.9h2c3.4,0,6.1,2.8,6.1,6.1v74.1c0,3.4-2.8,6.1-6.1,6.1H9.9c-3.4,0-6.1-2.8-6.1-6.1V35.9
		c0-3.4,2.8-6.1,6.1-6.1h98.2c1,0,1.9-0.8,1.9-1.9c0-1-0.8-1.9-1.9-1.9H9.9c-2.3,0-4.5,0.8-6.1,2.1V17.9c0-3.4,2.8-6.1,6.1-6.1h28.7
		c1.6,0,3.2,0.6,4.3,1.8l3.3,3.3c1.9,1.9,4.4,2.9,7,2.9h64.8c3.4,0,6.1,2.8,6.1,6.1V28.2z"/>
	<path class="st8" d="M81.9,64.4V56c0-9.9-8-17.9-17.9-17.9s-17.9,8-17.9,17.9v8.4c-3.4,0.8-6,4-6,7.7c0,1,0.8,1.9,1.9,1.9
		s1.9-0.8,1.9-1.9c0-2.3,1.9-4.1,4.1-4.1H80c2.3,0,4.1,1.9,4.1,4.1v12c0,11.1-9,20.2-20.2,20.2s-20.2-9-20.2-20.2v-4
		c0-1-0.8-1.9-1.9-1.9S40.1,79,40.1,80v4C40.1,97.2,50.8,108,64,108S87.9,97.2,87.9,84V72C87.9,68.3,85.4,65.2,81.9,64.4z
		 M57.9,64.1V56c0-3.4,2.8-6.1,6.1-6.1s6.1,2.8,6.1,6.1v8.1H57.9z M78.2,64.1h-4.3V56c0-5.5-4.4-9.9-9.9-9.9c-5.5,0-9.9,4.4-9.9,9.9
		v8.1h-4.3V56c0-7.8,6.4-14.2,14.2-14.2S78.2,48.2,78.2,56V64.1z"/>
	<path class="st8" d="M64,76.2c-3.2,0-5.9,2.6-5.9,5.9c0,2.6,1.7,4.8,4,5.6v4.4c0,1,0.8,1.9,1.9,1.9s1.9-0.8,1.9-1.9v-4.4
		c2.3-0.8,4-3,4-5.6C69.9,78.8,67.2,76.2,64,76.2z M64,84.2c-1.2,0-2.1-1-2.1-2.1c0-1.2,1-2.1,2.1-2.1c1.2,0,2.1,1,2.1,2.1
		C66.1,83.2,65.2,84.2,64,84.2z"/>
</g>
</svg>
