<?xml version="1.0" encoding="utf-8"?>
<!-- Generator: Adobe Illustrator 15.0.0, SVG Export Plug-In . SVG Version: 6.00 Build 0)  -->
<!DOCTYPE svg PUBLIC "-//W3C//DTD SVG 1.1//EN" "http://www.w3.org/Graphics/SVG/1.1/DTD/svg11.dtd">
<svg version="1.1" xmlns="http://www.w3.org/2000/svg" xmlns:xlink="http://www.w3.org/1999/xlink" x="0px" y="0px" width="100px"
	 height="100px" viewBox="0 0 100 100" enable-background="new 0 0 100 100" xml:space="preserve">
<g id="Layer_2" display="none">
	<rect display="inline" fill="#111111" width="100" height="100"/>
</g>
<g id="Layer_1">
	<g>
		<g>
			<path fill="#F53E7D" d="M12.902,57.939H6.672C4.096,57.939,2,55.845,2,53.269v-9.345c0-2.576,2.096-4.672,4.672-4.672h6.229
				v7.787H9.787v-4.672H6.672c-0.859,0-1.558,0.698-1.558,1.557v9.345c0,0.859,0.699,1.557,1.558,1.557h3.115v-3.114h3.115V57.939z"
				/>
		</g>
		<g>
			<rect x="9.787" y="45.481" fill="#F53E7D" width="85.656" height="3.115"/>
		</g>
		<g>
			<rect x="82.984" y="33.022" fill="#F53E7D" width="3.113" height="12.459"/>
		</g>
		<g>
			<rect x="16.017" y="33.022" fill="#F53E7D" width="3.115" height="12.459"/>
		</g>
		<g>
			<path fill="#F53E7D" d="M95.443,96.875H8.229c-0.86,0-1.557-0.696-1.557-1.558v-9.345c0-3.367,1.717-6.871,5.103-10.417
				c3.737-3.916,4.241-10.315,4.241-16.059c0-0.86,0.697-1.558,1.557-1.558h6.23v3.115h-4.686c-0.11,5.94-0.957,12.319-5.09,16.651
				c-2.813,2.947-4.241,5.73-4.241,8.267v7.787h84.098v-7.787c0-2.536-1.427-5.319-4.238-8.267
				c-4.135-4.332-4.98-10.711-5.09-16.651h-4.688v-3.115h6.229c0.861,0,1.559,0.697,1.559,1.558c0,5.743,0.505,12.143,4.241,16.059
				C95.285,79.102,97,82.605,97,85.973v9.345C97,96.179,96.305,96.875,95.443,96.875z"/>
		</g>
		<g>
			<path fill="#F53E7D" d="M51.836,67.284c-8.92,0-15.036-3.233-17.839-6.229h-5.521v-3.115h6.976l0.467,0.585
				c2.258,2.811,8.056,5.645,15.917,5.645c6.519,0,11.351-1.897,14.36-5.645l0.468-0.585h8.533v3.115h-7.062
				C65.501,64.023,60.612,67.284,51.836,67.284z"/>
		</g>
		<g>
			<rect x="42.492" y="71.956" fill="#A3D4FF" width="7.786" height="3.115"/>
		</g>
		<g>
			<rect x="53.393" y="71.956" fill="#A3D4FF" width="7.787" height="3.115"/>
		</g>
		<g>
			<rect x="64.295" y="71.956" fill="#A3D4FF" width="7.787" height="3.115"/>
		</g>
		<g>
			<rect x="42.492" y="84.415" fill="#A3D4FF" width="20.247" height="3.115"/>
		</g>
		<g>
			<rect x="37.82" y="78.186" fill="#A3D4FF" width="7.788" height="3.115"/>
		</g>
		<g>
			<rect x="31.59" y="71.956" fill="#A3D4FF" width="7.787" height="3.115"/>
		</g>
		<g>
			<rect x="48.721" y="78.186" fill="#A3D4FF" width="7.787" height="3.115"/>
		</g>
		<g>
			<rect x="59.623" y="78.186" fill="#A3D4FF" width="7.787" height="3.115"/>
		</g>
		<g>
			<rect x="16.017" y="51.711" fill="#F53E7D" width="71.64" height="3.114"/>
		</g>
		<g>
			<path fill="#F53E7D" d="M92.885,26.793h-9.9v-3.115h6.646c-0.52-2.782-2.433-4.672-4.927-4.672H73.639v-3.115h11.064
				c4.665,0,8.182,4.018,8.182,9.344V26.793z"/>
		</g>
		<g>
			<path fill="#F53E7D" d="M79.869,47.039h-3.115V24.22c0-1.954,0.722-3.775,1.905-5.214H30.724c-2.907,0-5.363,2.323-5.363,5.072
				v22.961h-3.115V24.078c0-4.438,3.882-8.187,8.478-8.187h54.457v3.115c-2.846,0-5.312,2.437-5.312,5.214V47.039z"/>
		</g>
		<g>
			<rect x="37.82" y="26.793" fill="#BCC0C4" width="28.032" height="3.115"/>
		</g>
		<g>
			<rect x="37.82" y="33.022" fill="#BCC0C4" width="28.032" height="3.115"/>
		</g>
	</g>
</g>
</svg>
