<?xml version="1.0" encoding="utf-8"?>
<!-- Generator: Adobe Illustrator 15.0.0, SVG Export Plug-In . SVG Version: 6.00 Build 0)  -->
<!DOCTYPE svg PUBLIC "-//W3C//DTD SVG 1.1//EN" "http://www.w3.org/Graphics/SVG/1.1/DTD/svg11.dtd">
<svg version="1.1" id="Layer_1" xmlns="http://www.w3.org/2000/svg" xmlns:xlink="http://www.w3.org/1999/xlink" x="0px" y="0px"
	 width="100px" height="100px" viewBox="0 0 100 100" enable-background="new 0 0 100 100" xml:space="preserve">
<g id="Layer_2" display="none">
	<rect display="inline" fill="#111111" width="100" height="100"/>
</g>
<g id="Layer_1_1_">
	<g>
		<g>
			<rect x="49.501" y="16.919" fill="#F53E7D" width="3.167" height="66.5"/>
		</g>
		<g>
			
				<rect x="49.504" y="16.919" transform="matrix(0.4999 0.8661 -0.8661 0.4999 68.9983 -19.157)" fill="#F53E7D" width="3.167" height="66.504"/>
		</g>
		<g>
			
				<rect x="17.836" y="48.587" transform="matrix(0.866 0.5 -0.5 0.866 31.9297 -18.8211)" fill="#F53E7D" width="66.497" height="3.166"/>
		</g>
		<g>
			<circle fill="#161616" cx="51.085" cy="50.17" r="25.333"/>
			<path fill="#F53E7D" d="M51.084,77.086c-14.842,0-26.916-12.074-26.916-26.916s12.074-26.917,26.916-26.917
				c14.843,0,26.917,12.075,26.917,26.917S65.927,77.086,51.084,77.086z M51.084,26.419c-13.095,0-23.75,10.653-23.75,23.75
				c0,13.097,10.654,23.75,23.75,23.75c13.098,0,23.751-10.653,23.751-23.75C74.835,37.073,64.182,26.419,51.084,26.419z"/>
		</g>
		<g>
			
				<rect x="32.875" y="13.704" transform="matrix(0.4962 0.8682 -0.8682 0.4962 34.7994 -19.7973)" fill="#F53E7D" width="3.166" height="12.765"/>
		</g>
		<g>
			<rect x="16.251" y="40.669" fill="#F53E7D" width="3.167" height="19"/>
		</g>
		<g>
			
				<rect x="28.071" y="78.669" transform="matrix(0.8682 0.4962 -0.4962 0.8682 44.3648 -6.5194)" fill="#F53E7D" width="12.766" height="3.166"/>
		</g>
		<g>
			
				<rect x="66.126" y="73.87" transform="matrix(0.4959 0.8684 -0.8684 0.4959 103.8254 -18.3409)" fill="#F53E7D" width="3.167" height="12.765"/>
		</g>
		<g>
			<rect x="82.751" y="40.669" fill="#F53E7D" width="3.167" height="19"/>
		</g>
		<g>
			
				<rect x="61.324" y="18.507" transform="matrix(0.8682 0.4962 -0.4962 0.8682 18.8914 -30.9479)" fill="#F53E7D" width="12.764" height="3.166"/>
		</g>
		<g>
			<path fill="#F53E7D" d="M51.084,50.17c-4.364,0-7.916-3.45-7.916-7.692v-3.619c0-4.24,3.552-7.689,7.916-7.689
				c4.365,0,7.917,3.449,7.917,7.689v3.619C59.001,46.72,55.449,50.17,51.084,50.17z M51.084,34.336c-2.619,0-4.75,2.028-4.75,4.522
				v3.619c0,2.494,2.131,4.524,4.75,4.524c2.62,0,4.751-2.03,4.751-4.524v-3.619C55.835,36.365,53.704,34.336,51.084,34.336z"/>
		</g>
		<g>
			<path fill="#F53E7D" d="M66.918,64.42h-3.167v-3.168c0-3.098-7.354-4.75-12.667-4.75c-5.31,0-12.666,1.652-12.666,4.75v3.168
				h-3.167v-3.168c0-6.262,10.356-7.916,15.833-7.916c5.479,0,15.834,1.654,15.834,7.916V64.42z"/>
		</g>
		<g>
			<circle fill="#A3D4FF" cx="51.085" cy="10.586" r="6.333"/>
			<path fill="#F53E7D" d="M51.084,18.503c-4.364,0-7.916-3.552-7.916-7.917c0-4.365,3.552-7.917,7.916-7.917
				c4.365,0,7.917,3.552,7.917,7.917C59.001,14.951,55.449,18.503,51.084,18.503z M51.084,5.836c-2.619,0-4.75,2.131-4.75,4.75
				c0,2.62,2.131,4.75,4.75,4.75c2.62,0,4.751-2.13,4.751-4.75C55.835,7.967,53.704,5.836,51.084,5.836z"/>
		</g>
		<g>
			<circle fill="#A3D4FF" cx="84.334" cy="29.586" r="6.333"/>
			<path fill="#F53E7D" d="M84.335,37.502c-4.364,0-7.917-3.552-7.917-7.916c0-4.365,3.553-7.917,7.917-7.917
				s7.916,3.552,7.916,7.917C92.251,33.951,88.699,37.502,84.335,37.502z M84.335,24.836c-2.62,0-4.75,2.13-4.75,4.75
				c0,2.619,2.13,4.75,4.75,4.75c2.619,0,4.75-2.131,4.75-4.75C89.085,26.966,86.954,24.836,84.335,24.836z"/>
		</g>
		<g>
			<circle fill="#A3D4FF" cx="84.334" cy="70.752" r="6.333"/>
			<path fill="#F53E7D" d="M84.335,78.67c-4.364,0-7.917-3.553-7.917-7.918c0-4.363,3.553-7.916,7.917-7.916
				s7.916,3.553,7.916,7.916C92.251,75.117,88.699,78.67,84.335,78.67z M84.335,66.002c-2.62,0-4.75,2.131-4.75,4.75
				c0,2.621,2.13,4.75,4.75,4.75c2.619,0,4.75-2.129,4.75-4.75C89.085,68.133,86.954,66.002,84.335,66.002z"/>
		</g>
		<g>
			<circle fill="#A3D4FF" cx="17.835" cy="70.752" r="6.333"/>
			<path fill="#F53E7D" d="M17.834,78.67c-4.365,0-7.917-3.553-7.917-7.918c0-4.363,3.552-7.916,7.917-7.916
				s7.917,3.553,7.917,7.916C25.751,75.117,22.2,78.67,17.834,78.67z M17.834,66.002c-2.619,0-4.75,2.131-4.75,4.75
				c0,2.621,2.131,4.75,4.75,4.75c2.62,0,4.75-2.129,4.75-4.75C22.584,68.133,20.454,66.002,17.834,66.002z"/>
		</g>
		<g>
			<circle fill="#A3D4FF" cx="17.835" cy="29.586" r="6.333"/>
			<path fill="#F53E7D" d="M17.834,37.502c-4.365,0-7.917-3.552-7.917-7.916c0-4.365,3.552-7.917,7.917-7.917
				s7.917,3.552,7.917,7.917C25.751,33.951,22.2,37.502,17.834,37.502z M17.834,24.836c-2.619,0-4.75,2.13-4.75,4.75
				c0,2.619,2.131,4.75,4.75,4.75c2.62,0,4.75-2.131,4.75-4.75C22.584,26.966,20.454,24.836,17.834,24.836z"/>
		</g>
		<g>
			<path fill="#A3D4FF" d="M51.084,96.086c-3.497,0-6.333-2.836-6.333-6.334c0-3.496,2.835-6.332,6.333-6.332
				s6.334,2.836,6.334,6.332C57.418,93.25,54.582,96.086,51.084,96.086"/>
			<path fill="#F53E7D" d="M51.084,97.67c-4.364,0-7.916-3.553-7.916-7.918c0-4.363,3.552-7.916,7.916-7.916
				c4.365,0,7.917,3.553,7.917,7.916C59.001,94.117,55.449,97.67,51.084,97.67z M51.084,85.002c-2.619,0-4.75,2.131-4.75,4.75
				c0,2.621,2.131,4.75,4.75,4.75c2.62,0,4.751-2.129,4.751-4.75C55.835,87.133,53.704,85.002,51.084,85.002z"/>
		</g>
	</g>
</g>
</svg>
