<?xml version="1.0" encoding="utf-8"?>
<!-- Generator: Adobe Illustrator 15.0.0, SVG Export Plug-In . SVG Version: 6.00 Build 0)  -->
<!DOCTYPE svg PUBLIC "-//W3C//DTD SVG 1.1//EN" "http://www.w3.org/Graphics/SVG/1.1/DTD/svg11.dtd">
<svg version="1.1" id="Layer_1" xmlns="http://www.w3.org/2000/svg" xmlns:xlink="http://www.w3.org/1999/xlink" x="0px" y="0px"
	 width="100px" height="100px" viewBox="0 0 100 100" enable-background="new 0 0 100 100" xml:space="preserve">
<g id="Layer_2" display="none">
	<rect display="inline" fill="#111111" width="100" height="100"/>
</g>
<g id="Layer_1_1_">
	<g>
		<g>
			<rect x="15.089" y="42.572" fill="#F53E7D" width="28.179" height="3.131"/>
		</g>
		<g>
			<polygon fill="#F53E7D" points="43.268,73.882 35.441,73.882 35.441,70.751 40.137,70.751 40.137,66.057 43.268,66.057 			"/>
		</g>
		<g>
			<polygon fill="#F53E7D" points="38.572,83.273 24.482,83.273 24.482,78.908 19.786,68.288 19.786,64.489 22.917,64.489 
				22.917,67.628 27.613,78.248 27.613,80.145 35.441,80.145 35.441,78.898 30.745,67.939 30.745,64.489 33.875,64.489 
				33.875,67.299 38.572,78.258 			"/>
		</g>
		<g>
			<path fill="#A3D4FF" d="M69.882,43.04v16.142c4.695,0,7.718-3.613,7.718-8.07C77.6,46.656,74.577,43.04,69.882,43.04z"/>
		</g>
		<g>
			<path fill="#F53E7D" d="M69.995,60.746v-3.131c3.392,0,6.147-2.918,6.147-6.506c0-3.586-2.759-6.504-6.147-6.504v-3.131
				c5.114,0,9.278,4.323,9.278,9.635C79.273,56.423,75.109,60.746,69.995,60.746z"/>
		</g>
		<g>
			<path fill="#F53E7D" d="M73.014,80.145h-2.087c-3.028,0-6.032-1-8.454-2.817l-15.03-11.271H16.655
				c-5.179,0-9.393-4.216-9.393-9.396V45.703c0-5.18,4.213-9.393,9.393-9.393h30.788l15.03-11.271
				c2.422-1.818,5.426-2.818,8.454-2.818h2.087V80.145z M16.655,39.441c-3.453,0-6.262,2.808-6.262,6.262v10.958
				c0,3.454,2.809,6.263,6.262,6.263h31.832l15.865,11.898c1.604,1.201,3.537,1.945,5.53,2.141V25.402
				c-1.993,0.194-3.926,0.937-5.53,2.141L48.487,39.441H16.655z"/>
		</g>
		<g>
			<rect x="46.399" y="37.875" fill="#F53E7D" width="3.131" height="26.614"/>
		</g>
		<g>
			<path fill="#F53E7D" d="M87.706,80.956l-2.39-2.022c6.199-7.322,9.61-16.64,9.61-26.232c0-9.835-3.567-19.331-10.049-26.735
				l2.354-2.062c6.979,7.977,10.824,18.203,10.824,28.798C98.061,63.033,94.387,73.066,87.706,80.956z"/>
		</g>
		<g>
			<path fill="#F53E7D" d="M82.042,74.374l-2.594-1.755c3.981-5.883,6.088-12.764,6.088-19.896c0-8.293-2.925-16.372-8.231-22.739
				l2.403-2.006c5.776,6.93,8.959,15.718,8.959,24.745C88.667,60.484,86.376,67.975,82.042,74.374z"/>
		</g>
		<g>
			<path fill="#BCC0C4" d="M12.25,29.785L9.562,28.18C18.1,13.882,33.736,5,50.369,5c8.213,0,16.311,2.13,23.414,6.161l-1.545,2.723
				c-6.635-3.763-14.194-5.753-21.868-5.753C34.833,8.131,20.226,16.429,12.25,29.785z"/>
		</g>
		<g>
			<path fill="#BCC0C4" d="M50.37,100c-17.686,0-33.798-9.729-42.049-25.389l2.771-1.461c7.707,14.632,22.757,23.719,39.278,23.719
				c7.18,0,14.028-1.66,20.356-4.938l1.438,2.783C65.482,98.173,57.945,100,50.37,100z"/>
		</g>
		<g>
			<path fill="#F53E7D" d="M10.393,59.792H1v-17.22h9.393V59.792z M4.131,56.661h3.131V45.703H4.131V56.661z"/>
		</g>
	</g>
</g>
</svg>
