<?xml version="1.0" encoding="utf-8"?>
<!-- Generator: Adobe Illustrator 15.0.0, SVG Export Plug-In . SVG Version: 6.00 Build 0)  -->
<!DOCTYPE svg PUBLIC "-//W3C//DTD SVG 1.1//EN" "http://www.w3.org/Graphics/SVG/1.1/DTD/svg11.dtd">
<svg version="1.1" id="Layer_1" xmlns="http://www.w3.org/2000/svg" xmlns:xlink="http://www.w3.org/1999/xlink" x="0px" y="0px"
	 width="100px" height="100px" viewBox="0 0 100 100" enable-background="new 0 0 100 100" xml:space="preserve">
<g id="Layer_2" display="none">
	<rect display="inline" fill="#111111" width="100" height="100"/>
</g>
<g id="Layer_1_1_">
	<g>
		<g>
			<path fill="#F53E7D" d="M94.73,96.938H5.04V22.711h5.413l4.639-6.186h26.289l4.638,6.186H94.73V96.938z M8.133,93.846h83.506
				V25.804H44.474l-4.64-6.186H16.639l-4.64,6.186H8.133V93.846z"/>
		</g>
		<g>
			<rect x="17.412" y="22.711" fill="#F53E7D" width="21.649" height="3.093"/>
		</g>
		<g>
			<rect x="66.896" y="45.907" fill="#A3D4FF" width="7.73" height="35.567"/>
			<path fill="#F53E7D" d="M76.174,83.021H65.35V44.36h10.826v38.66h-0.002V83.021z M68.441,79.93h4.64V47.453h-4.64V79.93z"/>
		</g>
		<g>
			<rect x="52.979" y="53.639" fill="#A3D4FF" width="7.732" height="27.836"/>
			<path fill="#F53E7D" d="M62.257,83.021H51.432V52.093h10.825V83.021z M54.523,79.93h4.641V55.188h-4.641V79.93z"/>
		</g>
		<g>
			<rect x="39.061" y="62.918" fill="#A3D4FF" width="7.732" height="18.557"/>
			<path fill="#F53E7D" d="M48.339,83.021H37.515v-21.65h10.824V83.021z M40.608,79.93h4.639V64.464h-4.639V79.93z"/>
		</g>
		<g>
			<rect x="25.144" y="69.104" fill="#A3D4FF" width="7.732" height="12.369"/>
			<path fill="#F53E7D" d="M34.422,83.021H23.596V67.557h10.826V83.021z M26.689,79.93h4.639v-9.281h-4.639V79.93z"/>
		</g>
		<g>
			<rect x="17.412" y="79.93" fill="#F53E7D" width="64.949" height="3.092"/>
		</g>
	</g>
</g>
</svg>
