<?xml version="1.0" encoding="utf-8"?>
<!-- Generator: Adobe Illustrator 23.0.0, SVG Export Plug-In . SVG Version: 6.00 Build 0)  -->
<svg version="1.1" id="Layer_1" xmlns="http://www.w3.org/2000/svg" xmlns:xlink="http://www.w3.org/1999/xlink" x="0px" y="0px"
	 viewBox="0 0 100 100" style="enable-background:new 0 0 100 100;" xml:space="preserve">
<style type="text/css">
	.st0{display:none;}
	.st1{display:inline;fill:#111111;}
	.st2{fill:#BCC0C4;}
	.st3{fill:#F53E7D;}
	.st4{fill:#A3D4FF;}
</style>
<g class="st0">
	<rect class="st1" width="100" height="100"/>
</g>
<g>
	<path class="st2" d="M85,35.2H74.4c-0.9,0-1.5,0.6-1.5,1.5c0,0.9,0.6,1.5,1.5,1.5H85c0.9,0,1.5-0.6,1.5-1.5
		C86.5,35.8,85.9,35.2,85,35.2z"/>
	<path class="st2" d="M85,47.3H74.4c-0.9,0-1.5,0.6-1.5,1.5c0,0.9,0.6,1.5,1.5,1.5H85c0.9,0,1.5-0.6,1.5-1.5
		C86.5,47.9,85.9,47.3,85,47.3z"/>
	<path class="st2" d="M85,59.5H74.4c-0.9,0-1.5,0.6-1.5,1.5c0,0.9,0.6,1.5,1.5,1.5H85c0.9,0,1.5-0.6,1.5-1.5
		C86.5,60.1,85.9,59.5,85,59.5z"/>
	<path class="st2" d="M85,71.7H74.4c-0.9,0-1.5,0.6-1.5,1.5c0,0.9,0.6,1.5,1.5,1.5H85c0.9,0,1.5-0.6,1.5-1.5
		C86.5,72.3,85.9,71.7,85,71.7z"/>
	<path class="st2" d="M65.3,35.2H54.6c-0.9,0-1.5,0.6-1.5,1.5c0,0.9,0.6,1.5,1.5,1.5h10.6c0.9,0,1.5-0.6,1.5-1.5
		C66.8,35.8,66.2,35.2,65.3,35.2z"/>
	<path class="st2" d="M65.3,47.3H54.6c-0.9,0-1.5,0.6-1.5,1.5c0,0.9,0.6,1.5,1.5,1.5h10.6c0.9,0,1.5-0.6,1.5-1.5
		C66.8,47.9,66.2,47.3,65.3,47.3z"/>
	<path class="st2" d="M45.5,35.2H34.9c-0.9,0-1.5,0.6-1.5,1.5c0,0.9,0.6,1.5,1.5,1.5h10.6c0.9,0,1.5-0.6,1.5-1.5
		C47,35.8,46.4,35.2,45.5,35.2z"/>
	<path class="st2" d="M45.5,47.3H34.9c-0.9,0-1.5,0.6-1.5,1.5c0,0.9,0.6,1.5,1.5,1.5h10.6c0.9,0,1.5-0.6,1.5-1.5
		C47,47.9,46.4,47.3,45.5,47.3z"/>
	<path class="st2" d="M25.8,35.2H15.1c-0.9,0-1.5,0.6-1.5,1.5c0,0.9,0.6,1.5,1.5,1.5h10.6c0.9,0,1.5-0.6,1.5-1.5
		C27.3,35.8,26.7,35.2,25.8,35.2z"/>
	<path class="st2" d="M25.8,47.3H15.1c-0.9,0-1.5,0.6-1.5,1.5c0,0.9,0.6,1.5,1.5,1.5h10.6c0.9,0,1.5-0.6,1.5-1.5
		C27.3,47.9,26.7,47.3,25.8,47.3z"/>
	<path class="st2" d="M25.8,59.5H15.1c-0.9,0-1.5,0.6-1.5,1.5c0,0.9,0.6,1.5,1.5,1.5h10.6c0.9,0,1.5-0.6,1.5-1.5
		C27.3,60.1,26.7,59.5,25.8,59.5z"/>
	<path class="st2" d="M25.8,71.7H15.1c-0.9,0-1.5,0.6-1.5,1.5c0,0.9,0.6,1.5,1.5,1.5h10.6c0.9,0,1.5-0.6,1.5-1.5
		C27.3,72.3,26.7,71.7,25.8,71.7z"/>
	<path class="st3" d="M89.7,10.8h-3.2V6.3c0-0.9-0.6-1.5-1.5-1.5c-0.9,0-1.5,0.6-1.5,1.5v4.6H69.8V6.3c0-0.9-0.6-1.5-1.5-1.5
		c-0.9,0-1.5,0.6-1.5,1.5v4.6H53.1V6.3c0-0.9-0.6-1.5-1.5-1.5s-1.5,0.6-1.5,1.5v4.6H36.4V6.3c0-0.9-0.6-1.5-1.5-1.5
		s-1.5,0.6-1.5,1.5v4.6H18.2V6.3c0-0.9-0.6-1.5-1.5-1.5s-1.5,0.6-1.5,1.5v4.6h-3.3c-5.3,0-10.3,5-10.3,10.3v56.6
		c0,5.6,5.3,9.1,10.3,9.1h22.8c3.6,5,9.4,8.4,16.1,8.4s12.6-3.3,16.1-8.4h22.8c5.3,0,9-3.7,9-9V21.2C98.7,16.1,95.2,10.8,89.7,10.8z
		 M50.7,92.2c-9.3,0-16.9-7.6-16.9-16.9s7.6-16.9,16.9-16.9s16.9,7.6,16.9,16.9S60,92.2,50.7,92.2z M89.7,83.9H68.6
		c1.2-2.6,2-5.5,2-8.4c0-5-1.8-9.4-4.9-12.9c0.6-0.2,1.1-0.8,1.1-1.4c0-0.9-0.6-1.5-1.5-1.5h-2.7c-3.3-2.4-7.4-4-11.9-4
		c-4.6,0-8.8,1.5-12.2,4.1c-0.2-0.2-0.3-0.3-0.6-0.3h-3c-0.9,0-1.5,0.6-1.5,1.5c0,0.9,0.6,1.5,1.5,1.5h0.8
		c-2.9,3.5-4.7,7.9-4.7,12.9c0,3,0.8,5.9,2,8.4H11.8c-3.5,0-7.3-2.3-7.3-5.9V26h71.4c0.9,0,1.5-0.6,1.5-1.5S76.8,23,75.9,23H4.5
		v-1.8c0-3.7,3.6-7.3,7.3-7.3h3.3v4.6c0,0.9,0.6,1.5,1.5,1.5c0.9,0,1.5-0.6,1.5-1.5v-4.6h15.2v4.6c0,0.9,0.6,1.5,1.5,1.5
		c0.9,0,1.5-0.6,1.5-1.5v-4.6h13.7v4.6c0,0.9,0.6,1.5,1.5,1.5s1.5-0.6,1.5-1.5v-4.6h13.7v4.6c0,0.9,0.6,1.5,1.5,1.5
		c0.9,0,1.5-0.6,1.5-1.5v-4.6h13.7v4.6c0,0.9,0.6,1.5,1.5,1.5c0.9,0,1.5-0.6,1.5-1.5v-4.6h3.2c3.6,0,5.9,3.8,5.9,7.3V23h-7.6
		c-0.9,0-1.5,0.6-1.5,1.5s0.6,1.5,1.5,1.5h7.6v51.9C95.7,81.6,93.4,83.9,89.7,83.9z"/>
	<path class="st4" d="M62.7,68.3c-0.6-0.6-1.5-0.6-2.1,0L49.5,79.4L43.1,73c-0.6-0.6-1.5-0.6-2.1,0s-0.6,1.5,0,2.1l7.4,7.5
		c0.3,0.3,0.8,0.5,1.1,0.5c0.3,0,0.8-0.2,1.1-0.5l12.2-12.2C63.1,69.9,63.1,68.9,62.7,68.3z"/>
</g>
</svg>
