<?xml version="1.0" encoding="UTF-8"?>
<svg width="100px" height="100px" viewBox="0 0 100 100" version="1.1" xmlns="http://www.w3.org/2000/svg" xmlns:xlink="http://www.w3.org/1999/xlink">
    <!-- Generator: Sketch 61.2 (89653) - https://sketch.com -->
    <title>money-trading-pairs</title>
    <desc>Created with Sketch.</desc>
    <g id="Page-1" stroke="none" stroke-width="1" fill="none" fill-rule="evenodd">
        <g id="money-trading-pairs" fill-rule="nonzero">
            <path d="M92.8879668,71.8423237 C90.19405,69.5191802 86.7522754,68.246195 83.1950207,68.2571899 C74.9451241,68.2571899 68.2572614,74.9451241 68.2572614,83.1950207 C68.2709675,91.4392335 74.950808,98.119074 83.1950207,98.1327818 C89.4511793,98.1357355 95.0456603,94.2377117 97.2098219,88.367794 C99.3739834,82.4978764 97.648769,75.901177 92.8879668,71.8423237 Z" id="Path" fill="#A3D4FF"></path>
            <path d="M76.5560166,5.18672199 C74.8919562,5.18712584 73.3368797,6.01442656 72.406639,7.39419087 C71.8677351,8.21839974 71.5794637,9.1812262 71.5767627,10.1659751 C71.5755272,12.3628199 73.0141479,14.3008787 75.1172885,14.9356448 C77.2204291,15.5704108 79.4910429,14.7518664 80.7053942,12.9211618 C81.2419238,12.1020103 81.530125,11.1451823 81.5352697,10.1659751 C81.5352697,7.41600954 79.3059822,5.18672199 76.5560166,5.18672199 L76.5560166,5.18672199 Z" id="Path" fill="#A3D4FF"></path>
            <path d="M74.8962656,40.0414938 L74.8962656,59.9585062 C74.890797,61.7895467 73.4078039,63.2725397 71.5767635,63.2780083 L28.4232365,63.2780083 C26.5921961,63.2725397 25.109203,61.7895467 25.1037344,59.9585062 L25.1037344,40.0414938 C25.109203,38.2104533 26.5921961,36.7274603 28.4232365,36.7219917 L71.5767635,36.7219917 C73.4078039,36.7274603 74.890797,38.2104533 74.8962656,40.0414938 L74.8962656,40.0414938 Z M56.6390041,50 C56.6390041,46.3333793 53.6666207,43.3609959 50,43.3609959 C46.3333793,43.3609959 43.3609959,46.3333793 43.3609959,50 C43.3609959,53.6666207 46.3333793,56.6390041 50,56.6390041 C53.6666207,56.6390041 56.6390041,53.6666207 56.6390041,50 Z" id="Shape" fill="#A3D4FF"></path>
            <path d="M23.4439834,84.8547535 C21.7746224,84.8502483 20.2150709,85.6861679 19.2946058,87.0788382 C18.7580762,87.8979897 18.469875,88.8548177 18.4647303,89.8340249 C18.4682396,92.0274695 19.9043707,93.9611698 22.0032,94.5984507 C24.1020293,95.2357316 26.3708643,94.4269937 27.593361,92.6058091 C28.1322649,91.7816003 28.4205363,90.8187738 28.4232365,89.8340249 C28.4232365,87.0840593 26.193949,84.8547535 23.4439834,84.8547535 L23.4439834,84.8547535 Z" id="Path" fill="#A3D4FF"></path>
            <path d="M28.1576763,7.1120332 C24.5148031,2.83272985 18.7774471,0.961683051 13.3121434,2.27065908 C7.84683971,3.57963512 3.57963512,7.84683971 2.27065908,13.3121434 C0.961683051,18.7774471 2.83272985,24.5148031 7.1120332,28.1576763 C9.80594998,30.4808198 13.2477246,31.753805 16.8049793,31.7428101 C25.0548759,31.7428101 31.7428101,25.0548759 31.7428101,16.8049793 C31.753805,13.2477246 30.4808198,9.80594998 28.1576763,7.1120332 L28.1576763,7.1120332 Z" id="Path" fill="#A3D4FF"></path>
            <g id="Group" fill="#F53E7D">
                <path d="M94.9128631,71.4522822 C98.145235,64.7641095 99.8138866,57.4282855 99.7925311,50 C99.803145,35.6244712 93.5860046,21.9491839 82.746888,12.5062241 C83.0376366,11.7599698 83.1895107,10.9668495 83.1950207,10.1659751 C83.2019608,7.51477558 81.6266647,5.11507952 79.1913736,4.06709848 C76.7560825,3.01911744 73.9304451,3.52495583 72.0099585,5.3526971 C65.1643579,1.97410765 57.6339423,0.21373602 50,0.20746888 C42.5717145,0.186113402 35.2358905,1.85476503 28.5477178,5.08713693 C24.3611351,0.875171342 18.2424032,-0.777558536 12.5045163,0.753709793 C6.76662934,2.28497812 2.28497812,6.76662934 0.753709793,12.5045163 C-0.777558536,18.2424032 0.875171342,24.3611351 5.08713693,28.5477178 C1.85476503,35.2358905 0.186113402,42.5717145 0.20746888,50 C0.196855027,64.3755288 6.41399536,78.0508161 17.253112,87.4937759 C16.9623634,88.2400302 16.8104893,89.0331505 16.8049793,89.8340249 C16.7980392,92.4852244 18.3733353,94.8849205 20.8086264,95.9329015 C23.2439175,96.9808826 26.0695549,96.4750442 27.9900415,94.6473029 C34.8356421,98.0258924 42.3660577,99.786264 50,99.7925311 C57.4282855,99.8138866 64.7641095,98.145235 71.4522822,94.9128631 C75.6388649,99.1248287 81.7575968,100.777559 87.4954837,99.2462902 C93.2333707,97.7150219 97.7150219,93.2333707 99.2462902,87.4954837 C100.777559,81.7575968 99.1248287,75.6388649 94.9128631,71.4522822 L94.9128631,71.4522822 Z M76.5560166,6.84647303 C78.389327,6.84647303 79.8755187,8.33266473 79.8755187,10.1659751 C79.8755187,11.9992855 78.389327,13.4854772 76.5560166,13.4854772 C74.7227062,13.4854772 73.2365145,11.9992855 73.2365145,10.1659751 C73.2365145,8.33266473 74.7227062,6.84647303 76.5560166,6.84647303 Z M3.52697095,16.8049793 C3.52697095,9.47173776 9.47173776,3.52697095 16.8049793,3.52697095 C24.1382207,3.52697095 30.0829876,9.47173776 30.0829876,16.8049793 C30.0829876,24.1382207 24.1382207,30.0829876 16.8049793,30.0829876 C9.47515035,30.0747554 3.53520313,24.1348082 3.52697095,16.8049793 Z M23.4439834,93.153527 C21.610673,93.153527 20.1244813,91.6673353 20.1244813,89.8340249 C20.1244813,88.0007145 21.610673,86.5145228 23.4439834,86.5145228 C25.2772938,86.5145228 26.7634855,88.0007145 26.7634855,89.8340249 C26.7634855,91.6673353 25.2772938,93.153527 23.4439834,93.153527 Z M50,96.473241 C42.982555,96.4918636 36.0546301,94.897873 29.7510373,91.8141079 C29.9623609,91.1749557 30.0743149,90.5071504 30.0829876,89.8340249 C30.0829876,86.1674042 27.1106041,83.1950207 23.4439834,83.1950207 C21.8828042,83.2016592 20.3749108,83.7635157 19.1900415,84.780083 C9.22212987,75.969938 3.5177611,63.3033016 3.52675896,50 C3.50666774,43.3337171 4.9449946,36.7436988 7.74107884,30.6921162 C14.3092277,34.9945391 22.9948219,34.0990034 28.5469126,28.5469126 C34.0990034,22.9948219 34.9945391,14.3092277 30.6921162,7.74107884 C43.2818714,1.97153121 57.7921306,2.13469781 70.2489627,8.18589212 C70.0376391,8.82504432 69.9256851,9.49284957 69.9170124,10.1659751 C69.9170124,13.8325958 72.8893959,16.8049793 76.5560166,16.8049793 C78.1171958,16.7983408 79.6250892,16.2364843 80.8099585,15.219917 C90.7778701,24.030062 96.4822389,36.6966984 96.473241,50 C96.4933323,56.6662829 95.0550054,63.2563012 92.2589212,69.3078838 C85.6907723,65.0054609 77.0051781,65.9009966 71.4530874,71.4530874 C65.9009966,77.0051781 65.0054609,85.6907723 69.3078838,92.2589212 C63.2563012,95.0550054 56.6662829,96.4933323 50,96.473241 L50,96.473241 Z M83.1950207,96.473029 C75.8617793,96.473029 69.9170124,90.5282622 69.9170124,83.1950207 C69.9170124,75.8617793 75.8617793,69.9170124 83.1950207,69.9170124 C90.5282622,69.9170124 96.473029,75.8617793 96.473029,83.1950207 C96.4647969,90.5248497 90.5248497,96.4647969 83.1950207,96.473029 L83.1950207,96.473029 Z" id="Shape"></path>
                <path d="M50,16.8049793 C66.8703374,16.8291169 81.0457023,29.4901021 82.9676349,46.2506224 L80.5278008,44.2024896 L78.393361,46.7452282 L83.7875519,51.2713693 C84.1247216,51.5544571 84.560549,51.6919891 84.9991333,51.6537025 C85.4377177,51.6154159 85.8431224,51.4044476 86.1261411,51.0672199 L90.6522822,45.673029 L88.1095436,43.5385892 L86.2589212,45.7460581 C84.9230005,34.3900113 78.3469717,24.3145633 68.4893496,18.5204482 C58.6317276,12.7263332 46.6298125,11.8820336 36.0580913,16.2390041 L37.3261411,19.3078838 C41.3444321,17.646173 45.6516834,16.7955529 50,16.8049793 L50,16.8049793 Z" id="Path"></path>
                <path d="M50,83.1950207 C38.9259776,83.1895833 28.5830403,77.665482 22.4201503,68.464787 C16.2572604,59.264092 15.0851252,47.5971238 19.2946058,37.3543568 L16.2257261,36.0896266 C11.5942733,47.3563986 12.8829366,60.1903688 19.661947,70.3114124 C26.4409575,80.4324561 37.818437,86.5090015 50,86.5145228 C52.3067017,86.5145228 54.60833,86.2984033 56.8746888,85.8688797 L56.2539419,82.6074689 C54.1922756,82.9986039 52.098441,83.1953177 50,83.1950207 L50,83.1950207 Z" id="Path"></path>
                <path d="M59.5136929,81.8124481 L60.4630705,84.9925311 C61.6033195,84.6605809 62.7319502,84.2539419 63.8190871,83.8091286 L62.5593361,80.7369295 C61.573444,81.140249 60.5477178,81.5020747 59.5136929,81.8124481 Z" id="Path"></path>
                <path d="M28.4232365,64.9377593 L71.5767635,64.9377593 C74.326729,64.9377593 76.5560166,62.7084718 76.5560166,59.9585062 L76.5560166,40.0414938 C76.5560166,37.2915282 74.326729,35.0622407 71.5767635,35.0622407 L28.4232365,35.0622407 C25.673271,35.0622407 23.4439834,37.2915282 23.4439834,40.0414938 L23.4439834,59.9585062 C23.4439834,62.7084718 25.673271,64.9377593 28.4232365,64.9377593 Z M26.7634855,40.0414938 C26.7634855,39.1248386 27.5065813,38.3817427 28.4232365,38.3817427 L71.5767635,38.3817427 C72.4934187,38.3817427 73.2365145,39.1248386 73.2365145,40.0414938 L73.2365145,59.9585062 C73.2365145,60.8751614 72.4934187,61.6182573 71.5767635,61.6182573 L28.4232365,61.6182573 C27.5065813,61.6182573 26.7634855,60.8751614 26.7634855,59.9585062 L26.7634855,40.0414938 Z" id="Shape"></path>
                <path d="M50,58.2987552 C54.5832759,58.2987552 58.2987552,54.5832759 58.2987552,50 C58.2987552,45.4167241 54.5832759,41.7012448 50,41.7012448 C45.4167241,41.7012448 41.7012448,45.4167241 41.7012448,50 C41.7067321,54.5810011 45.4189989,58.2932679 50,58.2987552 Z M50,45.0207469 C52.7499656,45.0207469 54.9792531,47.2500344 54.9792531,50 C54.9792531,52.7499656 52.7499656,54.9792531 50,54.9792531 C47.2500344,54.9792531 45.0207469,52.7499656 45.0207469,50 C45.0207469,47.2500344 47.2500344,45.0207469 50,45.0207469 Z" id="Shape"></path>
                <path d="M33.4024896,45.0207469 L36.7219917,45.0207469 L36.7219917,41.7012448 L31.7427386,41.7012448 C30.8260834,41.7012448 30.0829876,42.4443407 30.0829876,43.3609959 L30.0829876,48.340249 L33.4024896,48.340249 L33.4024896,45.0207469 Z" id="Path"></path>
                <path d="M66.5975104,48.340249 L69.9170124,48.340249 L69.9170124,43.3609959 C69.9170124,42.4443407 69.1739166,41.7012448 68.2572614,41.7012448 L63.2780083,41.7012448 L63.2780083,45.0207469 L66.5975104,45.0207469 L66.5975104,48.340249 Z" id="Path"></path>
                <path d="M31.7427386,58.2987552 L36.7219917,58.2987552 L36.7219917,54.9792531 L33.4024896,54.9792531 L33.4024896,51.659751 L30.0829876,51.659751 L30.0829876,56.6390041 C30.0829876,57.5556593 30.8260834,58.2987552 31.7427386,58.2987552 Z" id="Path"></path>
                <path d="M69.9170124,56.6390041 L69.9170124,51.659751 L66.5975104,51.659751 L66.5975104,54.9792531 L63.2780083,54.9792531 L63.2780083,58.2987552 L68.2572614,58.2987552 C69.1739166,58.2987552 69.9170124,57.5556593 69.9170124,56.6390041 Z" id="Path"></path>
                <path d="M18.4647303,21.7842324 L15.1452282,21.7842324 C14.228573,21.7842324 13.4854772,21.0411365 13.4854772,20.1244813 L10.1659751,20.1244813 C10.1659751,22.8744469 12.3952627,25.1037344 15.1452282,25.1037344 L15.1452282,26.7634855 L18.4647303,26.7634855 L18.4647303,25.1037344 C21.2146958,25.1037344 23.4439834,22.8744468 23.4439834,20.1244813 C23.4439834,17.3745158 21.2146958,15.1452283 18.4647303,15.1452282 L15.1452282,15.1452282 C14.228573,15.1452282 13.4854772,14.4021324 13.4854772,13.4854772 C13.4854772,12.568822 14.228573,11.8257261 15.1452282,11.8257261 L18.4647303,11.8257261 C19.3813855,11.8257261 20.1244813,12.568822 20.1244813,13.4854772 L23.4439834,13.4854772 C23.4439834,10.7355116 21.2146958,8.50622407 18.4647303,8.50622407 L18.4647303,6.84647303 L15.1452282,6.84647303 L15.1452282,8.50622407 C12.3952627,8.50622412 10.1659751,10.7355117 10.1659751,13.4854772 C10.1659751,16.2354427 12.3952627,18.4647302 15.1452282,18.4647303 L18.4647303,18.4647303 C19.3813855,18.4647303 20.1244813,19.2078261 20.1244813,20.1244813 C20.1244813,21.0411365 19.3813855,21.7842324 18.4647303,21.7842324 L18.4647303,21.7842324 Z" id="Path"></path>
                <path d="M81.5352697,78.2157676 L84.8547718,78.2157676 C85.771427,78.2157676 86.5145228,78.9588635 86.5145228,79.8755187 L89.8340249,79.8755187 C89.8340249,77.1255531 87.6047373,74.8962656 84.8547718,74.8962656 L84.8547718,73.2365145 L81.5352697,73.2365145 L81.5352697,74.8962656 C78.7853042,74.8962656 76.5560166,77.1255531 76.5560166,79.8755187 C76.5560166,82.6254842 78.7853042,84.8547718 81.5352697,84.8547718 L84.8547718,84.8547718 C85.771427,84.8547718 86.5145228,85.5978676 86.5145228,86.5145228 C86.5145228,87.431178 85.771427,88.1742739 84.8547718,88.1742739 L81.5352697,88.1742739 C80.6186145,88.1742739 79.8755187,87.431178 79.8755187,86.5145228 L76.5560166,86.5145228 C76.5560166,89.2644884 78.7853042,91.4937759 81.5352697,91.4937759 L81.5352697,93.153527 L84.8547718,93.153527 L84.8547718,91.4937759 C87.6047373,91.4937759 89.8340249,89.2644884 89.8340249,86.5145228 C89.8340249,83.7645573 87.6047373,81.5352697 84.8547718,81.5352697 L81.5352697,81.5352697 C80.6186145,81.5352697 79.8755187,80.7921739 79.8755187,79.8755187 C79.8755187,78.9588635 80.6186145,78.2157676 81.5352697,78.2157676 L81.5352697,78.2157676 Z" id="Path"></path>
            </g>
        </g>
    </g>
</svg>