<?xml version="1.0" encoding="utf-8"?>
<!-- Generator: Adobe Illustrator 15.0.0, SVG Export Plug-In . SVG Version: 6.00 Build 0)  -->
<!DOCTYPE svg PUBLIC "-//W3C//DTD SVG 1.1//EN" "http://www.w3.org/Graphics/SVG/1.1/DTD/svg11.dtd">
<svg version="1.1" id="Layer_1" xmlns="http://www.w3.org/2000/svg" xmlns:xlink="http://www.w3.org/1999/xlink" x="0px" y="0px"
	 width="100px" height="100px" viewBox="0 0 100 100" enable-background="new 0 0 100 100" xml:space="preserve">
<g id="Layer_2" display="none">
	<rect display="inline" fill="#111111" width="100" height="100"/>
</g>
<g id="Layer_1_1_">
	<g>
		<g>
			<path fill="#BCC0C4" d="M11.111,53.221H7.937c0-6.485,1.722-12.854,4.979-18.419l2.739,1.604
				C12.683,41.485,11.111,47.298,11.111,53.221z"/>
		</g>
		<g>
			<path fill="#BCC0C4" d="M44.444,89.729v-3.174c14.35,0,27.052-9.135,31.611-22.729l3.01,1.011
				C74.07,79.727,60.159,89.729,44.444,89.729z"/>
		</g>
		<g>
			<path fill="#FFFFFF" d="M69.418,48.151c-0.615-3.215-1.828-6.249-3.602-9.021l2.674-1.711c1.992,3.112,3.354,6.521,4.047,10.133
				L69.418,48.151z"/>
		</g>
		<g>
			<path fill="#F53E7D" d="M44.015,82.102c-16.014,0-29.042-13.026-29.042-29.041s13.028-29.042,29.042-29.042
				c6.203,0,12.122,1.927,17.112,5.574l-1.872,2.564c-4.444-3.248-9.715-4.964-15.24-4.964c-14.263,0-25.868,11.605-25.868,25.87
				c0,14.264,11.604,25.865,25.868,25.865c12.367,0,23.045-8.797,25.397-20.917l3.115,0.604
				C69.889,72.225,57.898,82.102,44.015,82.102z"/>
		</g>
		<g>
			<path fill="#BCC0C4" d="M64.363,17.679c-6.165-3.558-13.209-5.438-20.37-5.438c-6.756,0-13.449,1.684-19.355,4.871l-1.508-2.793
				c6.368-3.437,13.583-5.252,20.863-5.252c7.718,0,15.312,2.027,21.958,5.862L64.363,17.679z"/>
		</g>
		<g>
			<path fill="#BCC0C4" d="M24.694,92.604C9.463,85.158,0,70.004,0,53.061c0-7.433,1.888-14.777,5.459-21.244l2.779,1.535
				c-3.312,5.995-5.063,12.81-5.063,19.708c0,15.723,8.78,29.781,22.915,36.69L24.694,92.604z"/>
		</g>
		<g>
			<path fill="#BCC0C4" d="M64.223,92.136l-1.461-2.817c9.551-4.951,16.893-13.656,20.141-23.881l3.027,0.961
				C82.427,77.418,74.516,86.799,64.223,92.136z"/>
		</g>
		<g>
			<path fill="#BCC0C4" d="M83.439,42.524c-0.703-2.63-1.674-5.203-2.891-7.644l2.844-1.415c1.312,2.632,2.356,5.405,3.112,8.243
				L83.439,42.524z"/>
		</g>
		<g>
			<path fill="#FFFFFF" d="M60.188,49.903c-0.326-1.664-0.903-3.266-1.725-4.76l2.784-1.526c0.978,1.783,1.669,3.693,2.054,5.68
				L60.188,49.903z"/>
		</g>
		<g>
			<path fill="#F53E7D" d="M44.015,72.704c-10.832,0-19.646-8.812-19.646-19.646c0-10.833,8.813-19.646,19.646-19.646
				c3.533,0,6.999,0.95,10.022,2.746l-1.622,2.73c-2.533-1.506-5.438-2.301-8.4-2.301c-9.082,0-16.471,7.39-16.471,16.472
				c0,9.082,7.389,16.471,16.471,16.471c7.196,0,13.678-4.801,15.762-11.678l3.037,0.922C60.29,67.105,52.732,72.704,44.015,72.704z
				"/>
		</g>
		<g>
			<path fill="#F53E7D" d="M44.015,63.698c-5.866,0-10.639-4.771-10.639-10.64c0-5.867,4.772-10.639,10.639-10.639
				c1.641,0,3.216,0.365,4.678,1.083l-1.398,2.85c-1.024-0.502-2.127-0.757-3.28-0.757c-4.116,0-7.464,3.348-7.464,7.462
				c0,4.114,3.348,7.463,7.464,7.463c3.011,0,5.714-1.791,6.881-4.566l2.928,1.229C52.157,61.145,48.307,63.698,44.015,63.698z"/>
		</g>
		<g>
			<rect x="44.444" y="51.496" fill="#F53E7D" width="55.556" height="3.176"/>
		</g>
		<g>
			<polygon fill="#A3D4FF" points="95.236,46.734 85.789,46.734 80.952,51.473 80.952,53.061 80.952,54.646 85.789,59.434 
				95.236,59.434 95.236,57.82 92.062,53.061 95.236,48.298 			"/>
			<path fill="#F53E7D" d="M96.825,61.02H85.137l-5.771-5.711v-4.502l5.774-5.659h11.687v3.631l-2.854,4.282l2.854,4.28
				L96.825,61.02L96.825,61.02z M86.441,57.846h6.906l-3.193-4.785l3.16-4.739h-6.879l-3.896,3.817v1.846L86.441,57.846z"/>
		</g>
		<g>
			
				<rect x="62.02" y="7.216" transform="matrix(0.703 0.7112 -0.7112 0.703 43.3369 -35.0258)" fill="#F53E7D" width="3.172" height="54.318"/>
		</g>
		<g>
			<polygon fill="#A3D4FF" points="75.034,14.171 68.254,20.906 68.254,27.641 69.422,28.457 70.589,29.274 77.324,29.274 
				84.057,22.845 82.936,21.876 77.324,20.83 76.178,15.256 			"/>
			<path fill="#F53E7D" d="M77.96,30.862h-7.873l-3.421-2.395v-8.221l8.342-8.285l2.624,2.487l1.031,5.018l4.983,0.928l2.771,2.393
				L77.96,30.862z M71.089,27.687h5.601l4.695-4.485l-5.4-1.006l-1.146-5.588l-4.995,4.959v5.248L71.089,27.687z"/>
		</g>
	</g>
</g>
</svg>
