<?xml version="1.0" encoding="utf-8"?>
<!-- Generator: Adobe Illustrator 15.0.0, SVG Export Plug-In . SVG Version: 6.00 Build 0)  -->
<!DOCTYPE svg PUBLIC "-//W3C//DTD SVG 1.1//EN" "http://www.w3.org/Graphics/SVG/1.1/DTD/svg11.dtd">
<svg version="1.1" id="Layer_1" xmlns="http://www.w3.org/2000/svg" xmlns:xlink="http://www.w3.org/1999/xlink" x="0px" y="0px"
	 width="100px" height="100px" viewBox="0 0 100 100" enable-background="new 0 0 100 100" xml:space="preserve">
<g id="Layer_2" display="none">
	<rect display="inline" fill="#111111" width="100" height="100"/>
</g>
<g id="Layer_1_1_">
	<g>
		<g>
			<path fill="#F53E7D" d="M71.309,51.977L69.04,50.06c2.358-2.792,3.976-6.152,4.675-9.719l2.913,0.57
				C75.831,44.973,73.991,48.799,71.309,51.977z"/>
		</g>
		<g>
			<path fill="#F53E7D" d="M73.714,31.994c-1.667-8.472-8.479-15.281-16.952-16.942l0.571-2.914
				c9.793,1.921,17.367,9.489,19.293,19.283L73.714,31.994z"/>
		</g>
		<g>
			<path fill="#F53E7D" d="M31.474,32.003l-2.914-0.571c1.922-9.798,9.496-17.372,19.295-19.294l0.571,2.914
				C39.95,16.714,33.136,23.526,31.474,32.003z"/>
		</g>
		<g>
			<path fill="#F53E7D" d="M33.881,51.977c-2.685-3.178-4.524-7.002-5.321-11.062l2.914-0.571c0.7,3.566,2.316,6.926,4.675,9.718
				L33.881,51.977z"/>
		</g>
		<g>
			<path fill="#F53E7D" d="M65.316,47.553l-2.213-1.98c1.332-1.487,2.313-3.2,2.922-5.09l2.826,0.906
				C68.118,43.68,66.93,45.754,65.316,47.553z"/>
		</g>
		<g>
			<path fill="#F53E7D" d="M66.115,32.151c-1.362-4.583-4.909-8.133-9.491-9.498l0.847-2.846c5.547,1.651,9.842,5.95,11.49,11.498
				L66.115,32.151z"/>
		</g>
		<g>
			<path fill="#F53E7D" d="M39.076,32.142l-2.846-0.846c1.608-5.403,5.774-9.657,11.144-11.381l0.907,2.827
				C43.846,24.165,40.405,27.68,39.076,32.142z"/>
		</g>
		<g>
			<path fill="#F53E7D" d="M39.871,47.553c-1.67-1.866-2.927-4.112-3.638-6.497l2.846-0.847c0.585,1.968,1.625,3.822,3.004,5.363
				L39.871,47.553z"/>
		</g>
		<g>
			<rect x="25.875" y="34.688" fill="#F53E7D" width="16.328" height="2.969"/>
		</g>
		<g>
			<rect x="62.984" y="34.688" fill="#F53E7D" width="16.328" height="2.969"/>
		</g>
		<g>
			<rect x="51.109" y="10.938" fill="#F53E7D" width="2.97" height="14.844"/>
		</g>
		<g>
			<path fill="#A3D4FF" d="M52.596,46.108c3.979,0,7.422-3.256,7.422-7.271V36.45c0-4.017-3.442-7.271-7.422-7.271
				c-3.979,0-7.423,3.254-7.423,7.271v2.388C45.172,42.853,48.615,46.108,52.596,46.108z"/>
			<path fill="#F53E7D" d="M52.596,47.593c-4.829,0-8.908-4.009-8.908-8.755V36.45c0-4.746,4.079-8.755,8.908-8.755
				c4.826,0,8.905,4.009,8.905,8.755v2.388C61.501,43.584,57.422,47.593,52.596,47.593z M52.596,30.664
				c-3.22,0-5.938,2.65-5.938,5.787v2.388c0,3.137,2.719,5.786,5.938,5.786s5.938-2.649,5.938-5.786V36.45
				C58.532,33.313,55.812,30.664,52.596,30.664z"/>
		</g>
		<g>
		</g>
		<g>
			<path fill="#F53E7D" d="M61.13,82.188v-2.969c2.595,0,6.31-3.496,6.31-5.938V61.406c0-5.438-5.274-8.906-8.905-8.906H46.657
				c-3.631,0-8.906,3.469-8.906,8.906v11.875c0,2.553,3.173,5.938,5.566,5.938v2.969c-4.068,0-8.535-4.662-8.535-8.904V61.406
				c0-6.797,6.27-11.875,11.875-11.875h11.875c5.604,0,11.875,5.078,11.875,11.875v11.875C70.407,77.359,65.378,82.188,61.13,82.188
				z"/>
		</g>
		<g>
			<rect x="60.018" y="59.922" fill="#F53E7D" width="2.969" height="40.078"/>
		</g>
		<g>
			<rect x="42.204" y="59.922" fill="#F53E7D" width="2.969" height="40.078"/>
		</g>
		<g>
			<rect x="51.109" y="77.734" fill="#F53E7D" width="2.97" height="22.266"/>
		</g>
		<g>
			<rect x="19.938" y="34.688" fill="#F53E7D" width="2.969" height="2.969"/>
		</g>
		<g>
			<rect x="82.282" y="34.688" fill="#F53E7D" width="2.969" height="2.969"/>
		</g>
		<g>
			<rect x="51.109" y="5" fill="#F53E7D" width="2.97" height="2.969"/>
		</g>
		<g>
			<rect x="14" y="34.688" fill="#F53E7D" width="2.969" height="2.969"/>
		</g>
		<g>
			<rect x="88.221" y="34.688" fill="#F53E7D" width="2.969" height="2.969"/>
		</g>
	</g>
</g>
</svg>
