<?xml version="1.0" encoding="utf-8"?>
<!-- Generator: Adobe Illustrator 15.0.0, SVG Export Plug-In . SVG Version: 6.00 Build 0)  -->
<!DOCTYPE svg PUBLIC "-//W3C//DTD SVG 1.1//EN" "http://www.w3.org/Graphics/SVG/1.1/DTD/svg11.dtd">
<svg version="1.1" id="Layer_1" xmlns="http://www.w3.org/2000/svg" xmlns:xlink="http://www.w3.org/1999/xlink" x="0px" y="0px"
	 width="100px" height="100px" viewBox="0 0 100 100" enable-background="new 0 0 100 100" xml:space="preserve">
<g id="Layer_2" display="none">
	<rect display="inline" fill="#111111" width="100" height="100"/>
</g>
<g id="Layer_1_1_">
	<g>
		<g>
			<path fill="#F53E7D" d="M93.871,57.629H44.839c-3.38,0-6.129-2.749-6.129-6.129V37.71h3.064V51.5
				c0,1.689,1.374,3.064,3.064,3.064H93.87c1.69,0,3.063-1.375,3.063-3.064V20.855c0-1.689-1.373-3.064-3.063-3.064H44.839
				c-1.69,0-3.064,1.375-3.064,3.064v12.258H38.71V20.855c0-3.38,2.749-6.129,6.129-6.129h49.032c3.379,0,6.129,2.749,6.129,6.129
				V51.5C100,54.88,97.25,57.629,93.871,57.629z"/>
		</g>
		<g>
			<path fill="#F53E7D" d="M69.354,40.774c-2.342,0-4.609-0.84-6.389-2.364L43.842,22.018l1.994-2.325l19.126,16.392
				c2.444,2.095,6.341,2.095,8.786,0l19.126-16.392l1.993,2.325L75.744,38.41C73.967,39.935,71.695,40.774,69.354,40.774z"/>
		</g>
		<g>
			
				<rect x="73.523" y="41.543" transform="matrix(0.7071 0.7071 -0.7071 0.7071 55.4875 -47.8016)" fill="#F53E7D" width="23.837" height="3.064"/>
		</g>
		<g>
			
				<rect x="56.331" y="33.059" transform="matrix(0.7069 0.7073 -0.7073 0.7069 44.1698 -29.6488)" fill="#F53E7D" width="3.064" height="10.834"/>
		</g>
		<g>
			<path fill="#A3D4FF" d="M57.098,46.903H8.064c-2.539,0-4.597,2.059-4.597,4.597v30.646c0,2.537,2.058,4.597,4.597,4.597h49.032
				c2.539,0,4.598-2.06,4.598-4.597V51.5C61.693,48.962,59.637,46.903,57.098,46.903z"/>
		</g>
		<g>
			<path fill="#F53E7D" d="M57.098,88.273H8.064c-3.379,0-6.129-2.748-6.129-6.129V51.5c0-3.38,2.75-6.129,6.129-6.129h49.032
				c3.379,0,6.129,2.749,6.129,6.129v15.322h-3.062V51.5c0-1.689-1.373-3.064-3.062-3.064H8.064C6.375,48.436,5,49.811,5,51.5
				v30.646c0,1.688,1.375,3.062,3.064,3.062h49.032c1.691,0,3.064-1.375,3.064-3.062v-9.194h3.064v9.194
				C63.227,85.525,60.477,88.273,57.098,88.273z"/>
		</g>
		<g>
			<path fill="#F53E7D" d="M32.581,71.419c-2.342,0-4.611-0.839-6.389-2.364L7.067,52.663l1.995-2.326L28.187,66.73
				c2.445,2.095,6.343,2.095,8.788,0l17.546-16.353l2.088,2.242L39.017,69.014C37.191,70.58,34.922,71.419,32.581,71.419z"/>
		</g>
		<g>
			
				<rect x="36.749" y="72.184" transform="matrix(0.7071 0.7071 -0.7071 0.7071 66.3801 -12.8221)" fill="#F53E7D" width="23.837" height="3.066"/>
		</g>
		<g>
			
				<rect x="14.574" y="62.722" transform="matrix(0.7072 0.707 -0.707 0.7072 57.1053 10.3099)" fill="#F53E7D" width="3.064" height="22.753"/>
		</g>
		<g>
			<rect x="27.984" y="31.581" fill="#F53E7D" width="18.387" height="3.064"/>
		</g>
		<g>
			<rect x="17.258" y="14.726" fill="#F53E7D" width="16.854" height="3.065"/>
		</g>
		<g>
			<rect x="55.564" y="66.822" fill="#F53E7D" width="18.388" height="3.062"/>
		</g>
		<g>
			<rect x="67.822" y="85.21" fill="#F53E7D" width="16.854" height="3.063"/>
		</g>
		<g>
			<rect x="11.129" y="14.726" fill="#F53E7D" width="3.065" height="3.065"/>
		</g>
		<g>
			<rect x="5" y="14.726" fill="#F53E7D" width="3.064" height="3.065"/>
		</g>
		<g>
			<rect x="21.855" y="31.581" fill="#F53E7D" width="3.064" height="3.064"/>
		</g>
		<g>
			<rect x="87.742" y="85.21" fill="#F53E7D" width="3.064" height="3.063"/>
		</g>
		<g>
			<rect x="93.871" y="85.21" fill="#F53E7D" width="3.064" height="3.063"/>
		</g>
		<g>
			<rect x="32.581" y="95.936" fill="#BCC0C4" width="42.903" height="3.064"/>
		</g>
		<g>
			<rect x="78.549" y="95.936" fill="#BCC0C4" width="3.064" height="3.064"/>
		</g>
		<g>
			<rect x="84.678" y="95.936" fill="#BCC0C4" width="3.064" height="3.064"/>
		</g>
		<g>
			<rect x="31.048" y="4" fill="#BCC0C4" width="42.904" height="3.064"/>
		</g>
		<g>
			<rect x="24.919" y="4" fill="#BCC0C4" width="3.064" height="3.064"/>
		</g>
		<g>
			<rect x="18.791" y="4" fill="#BCC0C4" width="3.064" height="3.064"/>
		</g>
		<g>
			<rect x="75.484" y="66.822" fill="#F53E7D" width="3.062" height="3.062"/>
		</g>
	</g>
</g>
</svg>
