<?xml version="1.0" encoding="utf-8"?>
<!-- Generator: Adobe Illustrator 15.0.0, SVG Export Plug-In . SVG Version: 6.00 Build 0)  -->
<!DOCTYPE svg PUBLIC "-//W3C//DTD SVG 1.1//EN" "http://www.w3.org/Graphics/SVG/1.1/DTD/svg11.dtd">
<svg version="1.1" id="Layer_1" xmlns="http://www.w3.org/2000/svg" xmlns:xlink="http://www.w3.org/1999/xlink" x="0px" y="0px"
	 width="100px" height="100px" viewBox="0 0 100 100" enable-background="new 0 0 100 100" xml:space="preserve">
<g id="Layer_2" display="none">
	<rect display="inline" fill="#111111" width="100" height="100"/>
</g>
<g id="Layer_1_1_">
	<g>
		<g>
			<path fill="#BCC0C4" d="M30.637,20.893l-1.558-2.505c6.716-4.181,14.47-6.39,22.421-6.39c4.297,0,8.54,0.64,12.607,1.902
				l-0.873,2.818c-3.784-1.174-7.733-1.77-11.734-1.77C44.101,14.948,36.887,17.004,30.637,20.893z"/>
		</g>
		<g>
			<path fill="#BCC0C4" d="M15.107,76.461c-3.995-6.605-6.106-14.199-6.106-21.962c0-7.302,1.883-14.506,5.445-20.831l2.57,1.447
				C13.703,41,11.951,47.703,11.951,54.499c0,7.224,1.964,14.291,5.68,20.437L15.107,76.461z"/>
		</g>
		<g>
			<path fill="#BCC0C4" d="M51.5,97c-4.574,0-9.074-0.725-13.376-2.148l0.928-2.799c4.001,1.323,8.189,1.997,12.448,1.997
				c5.654,0,11.113-1.167,16.223-3.471l1.215,2.69C63.441,95.744,57.576,97,51.5,97z"/>
		</g>
		<g>
			<path fill="#BCC0C4" d="M88.561,75.32l-2.57-1.447c3.311-5.882,5.062-12.582,5.062-19.374c0-4.198-0.651-8.329-1.94-12.274
				l2.805-0.917c1.386,4.243,2.087,8.681,2.087,13.19C94.001,61.797,92.12,68.997,88.561,75.32z"/>
		</g>
		<g>
			<path fill="#F53E7D" d="M70.736,85.941c-0.393,0-0.766-0.153-1.043-0.432l-46.94-46.94c-0.162-0.162-0.284-0.359-0.356-0.576
				l-4.172-12.516c-0.176-0.53-0.039-1.115,0.356-1.51s0.979-0.534,1.51-0.356l12.517,4.172c0.217,0.073,0.415,0.195,0.577,0.357
				L80.123,75.08c0.577,0.576,0.577,1.51,0,2.086l-8.344,8.346C71.503,85.788,71.129,85.941,70.736,85.941z M25.085,36.73
				l45.651,45.651l6.259-6.26l-45.65-45.649l-9.389-3.129L25.085,36.73z"/>
		</g>
		<g>
			
				<rect x="18.246" y="55.35" transform="matrix(-0.7071 -0.7071 0.7071 -0.7071 47.629 133.378)" fill="#F53E7D" width="66.384" height="2.95"/>
		</g>
		<g>
			<path fill="#F53E7D" d="M76.995,90.977c-1.134,0-2.267-0.431-3.129-1.293l-4.173-4.172l2.086-2.087l4.172,4.173
				c0.576,0.575,1.51,0.575,2.086,0l4.173-4.173c0.575-0.575,0.575-1.511,0-2.087l-4.173-4.173l2.086-2.086l4.173,4.173
				c1.726,1.727,1.726,4.532,0,6.26l-4.173,4.172C79.262,90.546,78.129,90.977,76.995,90.977z"/>
		</g>
		<g>
			<path fill="#161616" d="M68.125,43.269c4.736,2.509,10.744,1.772,14.732-2.217c4.896-4.897,4.896-12.836,0-17.732
				c-4.896-4.897-12.836-4.897-17.732,0c-3.988,3.989-4.727,9.997-2.217,14.735L19.75,81.214l5.215,5.216l2.086-2.086l5.216,5.215
				l4.172-4.172l-5.217-5.217l4.173-4.173l5.216,5.217l4.173-4.174l-5.216-5.215L68.125,43.269z"/>
			<path fill="#F53E7D" d="M32.268,91.033c-0.377,0-0.754-0.145-1.043-0.434l-4.173-4.172l-1.043,1.043
				c-0.576,0.576-1.51,0.576-2.086,0l-5.215-5.215c-0.576-0.576-0.576-1.511,0-2.087l42.419-42.42
				c-2.288-5.261-1.162-11.355,2.956-15.473c2.646-2.647,6.166-4.105,9.909-4.105c3.742,0,7.263,1.458,9.908,4.105
				c5.466,5.464,5.466,14.354,0,19.819c-2.646,2.646-6.164,4.104-9.906,4.104c-1.913,0-3.816-0.395-5.562-1.15L41.656,71.825
				l4.173,4.172c0.276,0.276,0.432,0.651,0.432,1.043s-0.155,0.767-0.432,1.043l-4.174,4.174c-0.276,0.276-0.652,0.433-1.042,0.433
				l0,0c-0.392,0-0.767-0.155-1.043-0.433l-4.172-4.174l-2.086,2.087l4.173,4.174c0.276,0.275,0.432,0.65,0.432,1.043
				c0,0.391-0.156,0.766-0.432,1.043l-4.172,4.172C33.023,90.889,32.646,91.033,32.268,91.033z M27.052,82.867
				c0.377,0,0.755,0.145,1.043,0.433l4.173,4.173l2.085-2.086l-4.173-4.173c-0.276-0.276-0.432-0.651-0.432-1.044
				s0.156-0.766,0.432-1.042l4.174-4.174c0.276-0.276,0.652-0.433,1.042-0.433l0,0c0.391,0,0.766,0.156,1.043,0.433l4.172,4.174
				l2.086-2.088l-4.172-4.172c-0.277-0.276-0.432-0.651-0.432-1.043s0.155-0.767,0.432-1.043l28.556-28.556
				c0.46-0.459,1.164-0.563,1.733-0.261c1.584,0.84,3.375,1.284,5.179,1.284c2.954,0,5.731-1.151,7.821-3.24
				c4.312-4.313,4.312-11.333,0-15.647c-2.092-2.089-4.869-3.241-7.823-3.241c-2.956,0-5.733,1.151-7.823,3.241
				c-3.458,3.458-4.244,8.682-1.957,13.001c0.305,0.572,0.198,1.275-0.261,1.733L21.837,81.214l3.129,3.13l1.043-1.044
				C26.297,83.012,26.674,82.867,27.052,82.867z"/>
		</g>
		<g>
			<path fill="#A3D4FF" d="M73.991,38.823c-1.771,0-3.438-0.689-4.693-1.943c-2.588-2.589-2.588-6.799,0-9.388
				c1.255-1.253,2.923-1.944,4.693-1.944c1.772,0,3.44,0.69,4.694,1.943c2.588,2.589,2.588,6.801,0,9.389
				C77.432,38.134,75.766,38.823,73.991,38.823z M73.991,28.498c-0.984,0-1.91,0.384-2.607,1.081c-1.437,1.437-1.437,3.778,0,5.215
				c1.396,1.393,3.823,1.392,5.216,0c1.438-1.438,1.438-3.778,0-5.216C75.902,28.882,74.977,28.498,73.991,28.498z"/>
		</g>
	</g>
</g>
</svg>
