<?xml version="1.0" encoding="utf-8"?>
<!-- Generator: Adobe Illustrator 15.0.0, SVG Export Plug-In . SVG Version: 6.00 Build 0)  -->
<!DOCTYPE svg PUBLIC "-//W3C//DTD SVG 1.1//EN" "http://www.w3.org/Graphics/SVG/1.1/DTD/svg11.dtd">
<svg version="1.1" id="Layer_1" xmlns="http://www.w3.org/2000/svg" xmlns:xlink="http://www.w3.org/1999/xlink" x="0px" y="0px"
	 width="100px" height="100px" viewBox="0 0 100 100" enable-background="new 0 0 100 100" xml:space="preserve">
<g id="Layer_2" display="none">
	<rect display="inline" fill="#111111" width="100" height="100"/>
</g>
<g id="Layer_1_1_">
	<g>
		<g>
			<path fill="#A3D4FF" d="M80.841,85.282h-1.558V72.823h1.558c1.72,0,3.115-1.396,3.115-3.115s-1.396-3.114-3.115-3.114h-4.313
				c3.506-2.017,5.871-5.789,5.871-10.123c0-6.452-5.229-11.681-11.681-11.681c-5.624,0-10.317,3.976-11.429,9.271l1.307,1.631
				l-6.229,9.346v4.672h1.557c2.58,0,4.673,2.093,4.673,4.672v4.674h1.559c2.578,0,4.672,2.092,4.672,4.672v10.9h18.688v-4.672
				C85.514,87.375,83.421,85.282,80.841,85.282z"/>
		</g>
		<g>
			<path fill="#F53E7D" d="M20.103,79.053h-3.115V74.38c0-3.437,2.794-6.229,6.229-6.229h12.459v3.115H23.217
				c-1.718,0-3.115,1.397-3.115,3.114L20.103,79.053L20.103,79.053z"/>
		</g>
		<g>
			<path fill="#F53E7D" d="M62.152,79.053h-3.114V74.38c0-1.717-1.397-3.114-3.116-3.114h-7.786V68.15h7.786
				c3.436,0,6.23,2.793,6.23,6.229V79.053z"/>
		</g>
		<g>
			<path fill="#F53E7D" d="M68.382,96.184H10.758V83.725c0-3.436,2.794-6.229,6.229-6.229h23.361v3.113h-23.36
				c-1.718,0-3.115,1.398-3.115,3.115v9.344h51.395v-9.344c0-1.717-1.397-3.115-3.115-3.115H51.25v-3.113h10.902
				c3.435,0,6.229,2.794,6.229,6.229L68.382,96.184L68.382,96.184z"/>
		</g>
		<g>
			<rect x="43.463" y="77.495" fill="#F53E7D" width="3.115" height="3.114"/>
		</g>
		<g>
			<rect x="38.791" y="68.15" fill="#F53E7D" width="3.115" height="3.115"/>
		</g>
		<g>
			<polygon fill="#F53E7D" points="55.922,69.708 52.809,69.708 52.809,64.564 58.667,55.775 46.578,40.664 46.578,35.446 
				49.692,35.446 49.692,39.572 62.521,55.607 55.922,65.508 			"/>
		</g>
		<g>
			<path fill="#F53E7D" d="M26.332,69.708h-3.115V58.027l-6.229-4.672V27.659c0-14.599,11.876-26.476,26.475-26.476
				c6,0,11.878,2.063,16.549,5.808l1.356,1.087l-7.062,7.062l-2.203-2.202l4.56-4.559c-3.888-2.675-8.415-4.081-13.199-4.081
				c-12.881,0-23.36,10.479-23.36,23.361v24.14l6.229,4.672L26.332,69.708L26.332,69.708z"/>
		</g>
		<g>
			<path fill="#F53E7D" d="M60.596,42.32l-5.318-5.317H45.021c-5.152,0-9.344-4.191-9.344-9.344h3.115
				c0,3.435,2.795,6.229,6.229,6.229h11.547l4.027,4.027l4.672-4.672V29.86L48.592,13.187l2.202-2.203l17.588,17.587v5.962
				L60.596,42.32z"/>
		</g>
		<g>
			<path fill="#F53E7D" d="M26.332,35.446h-3.115v-7.787c0-11.164,9.082-20.246,20.246-20.246v3.115
				c-9.446,0-17.131,7.685-17.131,17.131V35.446z"/>
		</g>
		<g>
			<path fill="#F53E7D" d="M87.07,96.184H55.922v-3.115h28.034v-3.113c0-1.717-1.397-3.115-3.115-3.115h-3.114V71.266h3.114
				c0.858,0,1.558-0.697,1.558-1.558S81.7,68.15,80.841,68.15H70.698l5.054-2.907c3.141-1.806,5.089-5.168,5.089-8.772
				c0-5.582-4.541-10.123-10.123-10.123c-3.215,0-6.168,1.477-8.1,4.05l-2.491-1.87c2.525-3.364,6.387-5.295,10.591-5.295
				c7.3,0,13.238,5.939,13.238,13.238c0,3.174-1.156,6.203-3.161,8.565h0.046c2.576,0,4.673,2.096,4.673,4.672
				s-2.097,4.672-4.673,4.672v9.345c3.435,0,6.229,2.795,6.229,6.229V96.184L87.07,96.184z"/>
		</g>
		<g>
			<rect x="68.382" y="65.036" fill="#F53E7D" width="7.787" height="3.114"/>
		</g>
		<g>
			<rect x="71.497" y="71.266" fill="#F53E7D" width="7.786" height="3.114"/>
		</g>
		<g>
			<rect x="71.497" y="83.725" fill="#F53E7D" width="7.786" height="3.114"/>
		</g>
		<g>
			<path fill="#F53E7D" d="M66.824,55.691H63.71c0-3.437,2.794-6.229,6.229-6.229v3.115C68.221,52.577,66.824,53.975,66.824,55.691z
				"/>
		</g>
	</g>
</g>
</svg>
